<?xml version="1.0" encoding="utf-8"?>
<!-- Generator: Adobe Illustrator 24.2.3, SVG Export Plug-In . SVG Version: 6.00 Build 0)  -->
<svg version="1.1" id="Слой_1" xmlns="http://www.w3.org/2000/svg" xmlns:xlink="http://www.w3.org/1999/xlink" x="0px" y="0px"
	 viewBox="0 0 1352 587" style="enable-background:new 0 0 1352 587;" xml:space="preserve">
<style type="text/css">
	.st0{display:none;}
	.st1{display:inline;}
	.st2{fill:#013927;}
	.st3{fill:#A97C50;}
	.st4{fill:#70C387;}
	.st5{fill:#FFECBD;}
	.st6{fill:#F15C22;}
	.st7{fill:#F44335;}
	.st8{fill:#C81E1E;}
	.st9{fill:#F5F5F5;}
	.st10{fill:#CFD8DC;}
	.st11{fill:#FFE0B2;}
	.st12{fill:#BB193B;}
	.st13{fill:none;stroke:#000000;stroke-width:17.0667;stroke-linecap:round;stroke-linejoin:round;stroke-miterlimit:34.1333;}
	.st14{fill:#DFC49C;}
	.st15{display:inline;fill:#F3F1F4;}
	.st16{display:inline;fill:#D5D9F2;}
	.st17{display:inline;fill:#717ED4;}
	.st18{display:inline;fill:#BD96E4;}
	.st19{fill:#9D66D6;}
	.st20{display:inline;fill:#F8E883;}
	.st21{display:inline;fill:#FFD064;}
	.st22{display:inline;fill:#FCF5C7;}
	.st23{display:inline;fill:#DDC9F1;}
	.st24{display:none;fill:#F9D366;}
	.st25{display:none;fill:#DD8833;}
	.st26{display:inline;fill:#9966CC;}
	.st27{display:none;fill:#DDAC33;}
	.st28{display:inline;fill:#DD8833;}
	.st29{display:inline;fill:#CF8BFC;}
	.st30{display:none;fill:#9966CC;}
	.st31{display:none;fill:#FFDB82;}
	.st32{fill:#D1A08F;}
	.st33{fill:#CB97E7;}
	.st34{fill:#BD80E1;}
	.st35{fill:#F4EAFA;}
	.st36{fill:#EBD5F6;}
	.st37{fill:#B5ADB6;}
	.st38{opacity:0.6;}
	.st39{fill:#E0E0E0;}
</style>
<g class="st0">
	<g class="st1">
		<path class="st2" d="M513,566c0,0-26.8,11.9-46.1,9.8c-19.3,2.2-46.1-9.8-46.1-9.8c-24.3-6-37,15.7-37,15.7s31.9,38.3,83,46.5
			c51.2-8.2,83-46.5,83-46.5S537.3,559.9,513,566z"/>
		<path class="st3" d="M543.6,581c-19.7-24.9-76.7,4.1-76.7,4.1s-57-29.1-76.7-4.1c0,0,29.2,32.5,76.7,41.3l0,0l0,0l0,0l0,0
			C514.3,613.5,543.6,581,543.6,581z"/>
		<path class="st2" d="M522.9,580.4c0,0-5.5,14.4-3.9,21.8l-6.4,4.8C512.6,607.1,512.8,587.5,522.9,580.4z"/>
		<g>
			<g>
				<path class="st2" d="M532.7,494.9c-2.8-2.9-6.5-4.4-11.1-4.4c-7.4,0-14.6,3.9-16.1,4.8c-3.6-0.5-6.2-3-7.5-7.2
					c-1-3.4-0.9-6.7-0.9-6.7v-0.3L497,481c-6.2-10.8-12.9-16.3-19.6-16.3c-5.2,0-9,3.4-10.5,5c-1.5-1.6-5.3-5-10.5-5
					c-6.8,0-13.4,5.5-19.6,16.3l-0.1,0.2v0.3c0,0.1,0.1,3.3-0.9,6.7c-1.3,4.2-3.9,6.6-7.5,7.2c-1.5-0.9-8.7-4.8-16.1-4.8
					c-4.5,0-8.3,1.5-11.1,4.4c-4.5,4.6-6.6,12.8-6.2,24.3v0.1c0.1,0.1,2.9,13.5,12.2,29.5c8.5,14.7,24.3,34.7,51.4,46.5l7.7,2.2v0.5
					l0.9-0.2l0.9,0.2v-0.5l7.6-2.1l0.1-0.1c27-11.8,42.8-31.8,51.4-46.5c9.2-16,12.2-29.3,12.2-29.5v-0.1
					C539.3,507.7,537.3,499.5,532.7,494.9z"/>
				<path class="st4" d="M523.3,497.2c-10.9-1.1-30.8,14.6-30.8,14.6c3-4.7,9.4-9.9,9.4-9.9c-12.8-5.6-10.8-19.8-10.8-19.8
					c-10.3-15.9-19.4-8.6-19.4-8.6L467,477l-4.7-3.5c0,0-9.1-7.3-19.4,8.5c0,0,1.9,14.2-10.8,19.8c0,0,6.3,5.2,9.4,9.9
					c0,0-19.8-15.7-30.8-14.6c0,0-12.3,3.6-10.6,22.1c0,0,3.2,10.3,10.3,23.3c1.1,1.9,10,16.7,25.2,18.6c0,0-6.5,2.4-14.6-2.3
					c10.7,14.1,25.8,27.8,46.1,33l0,0l0,0l0,0l0,0c20.3-5.2,35.5-18.9,46.1-33c-8.2,4.7-14.6,2.3-14.6,2.3
					c15.1-1.9,24.1-16.7,25.2-18.6c7.2-12.9,10.3-23.3,10.3-23.3C535.6,500.9,523.3,497.2,523.3,497.2z M519.7,510.7
					c-1,38.3-24.3,44.2-33.8,45c-1.5,3.6-4.8,10.9-8.5,12.9c0,0-3.6-4.8-3.6-13.1c-2.1-0.4-4.4-1.2-6.8-2.4l0,0l0,0l0,0l0,0l0,0l0,0
					c-2.5,1.3-4.8,2-6.8,2.4c-0.1,8.4-3.6,13.1-3.6,13.1c-3.8-2-7.1-9.4-8.5-12.9c-9.5-0.7-32.7-6.6-33.8-45
					c-0.7-0.5-1.3-0.7-3.2-0.9c0,0,6.4-3,10.4,2.4c0,0-3.2-1.3-5.3-1.1c0,0,5.4,19.3,25.5,29.1c-1.5-5.6-1.4-10.1-1.4-10.1
					c2.1-16.5,23.7-14.8,23.7-14.8l3,0.1l0,0c0.1,0,0.1,0,0.2,0s0.1,0,0.2,0l0,0l3-0.1c0,0,21.7-1.6,23.7,14.8c0,0,0.1,4.4-1.4,10.1
					c20-9.8,25.5-29.1,25.5-29.1c-2.2-0.1-5.3,1.1-5.3,1.1c4-5.4,10.4-2.4,10.4-2.4C521.1,510,520.4,510.2,519.7,510.7z"/>
				<path class="st4" d="M488.9,529.5c-1.7-9.5-17.4-10.8-17.4-10.8l-4.4-0.2l0,0H467h-0.1l0,0l-4.4,0.2c0,0-15.7,1.3-17.4,10.8
					c-1,5.8,0.1,13.3,6.3,21.7c0,0,4.4,4,15.7-3.8c11.3,7.8,15.7,3.8,15.7,3.8C488.8,542.8,489.9,535.2,488.9,529.5z"/>
				<path class="st2" d="M461.1,482.8c0,0-4.5-5.3-11.5-0.5c0,0,6.3-1.3,8.3,1.9c0,0-12.8-5.4-11.9,16l1,5.3c0,0,11,4,15.4,2.5
					C462.5,508,465.3,491.7,461.1,482.8z"/>
				<path class="st5" d="M459.3,487.7c0,0-9.1-5.6-10.9,8.3c0,0,0.1,5.6,0.9,6.8l10.6,2.4C459.9,505.3,462.1,490.9,459.3,487.7z"/>
				<path class="st2" d="M462.9,500.1c-0.2,4.4-2.4,7.8-5,7.7c-2.5-0.1-4.4-3.8-4.2-8.2s2.4-7.8,5-7.7
					C461.2,492,463.1,495.8,462.9,500.1z"/>
				<path class="st5" d="M442.9,544.7c-10.2-2.7-18-11.9-22.3-18c2.7,5.1,6.6,11.7,10.3,14.9c0,0-6.9-4.7-12.2-14.8
					c8.2,24.3,27.5,25.7,27.5,25.7L442.9,544.7z"/>
				
					<ellipse transform="matrix(0.9802 -0.1978 0.1978 0.9802 -97.0932 100.7744)" class="st2" cx="455.9" cy="536.4" rx="4" ry="7.1"/>
				<path class="st5" d="M456.7,555.3c0,0-1,0.2-2.2,0.4l-0.2,5c-0.5-1.3-1.1-3.6-1.3-4.9c-0.7,0.1-1.3,0.1-1.9-0.1
					c0,0,2.1,6.2,4.5,9.1C455.5,564.9,457.3,558.5,456.7,555.3z"/>
				<path class="st2" d="M454.3,545.8c0,0,5.4,3.3,7.5-3.9C461.9,541.8,460.7,551,454.3,545.8z"/>
				<path class="st2" d="M472.7,482.8c0,0,4.5-5.3,11.5-0.5c0,0-6.3-1.3-8.3,1.9c0,0,12.8-5.4,11.9,16l-1,5.3c0,0-11,4-15.4,2.5
					C471.3,508,468.5,491.7,472.7,482.8z"/>
				<path class="st5" d="M474.5,487.7c0,0,9.1-5.6,10.9,8.3c0,0-0.1,5.6-0.9,6.8l-10.6,2.4C473.9,505.3,471.8,490.9,474.5,487.7z"/>
				<path class="st2" d="M470.9,500.1c0.2,4.4,2.4,7.8,5,7.7c2.5-0.1,4.4-3.8,4.2-8.2s-2.4-7.8-5-7.7
					C472.5,492,470.7,495.8,470.9,500.1z"/>
				<path class="st5" d="M490.9,544.7c10.2-2.7,18-11.9,22.3-18c-2.7,5.1-6.6,11.7-10.3,14.9c0,0,6.9-4.7,12.2-14.8
					c-8.2,24.3-27.6,25.7-27.6,25.7L490.9,544.7z"/>
				
					<ellipse transform="matrix(0.1978 -0.9802 0.9802 0.1978 -142.5361 898.8077)" class="st2" cx="477.9" cy="536.5" rx="7.1" ry="4"/>
				<path class="st5" d="M477.1,555.3c0,0,1,0.2,2.2,0.4l0.2,5c0.5-1.3,1.1-3.6,1.3-4.9c0.7,0.1,1.3,0.1,1.9-0.1
					c0,0-2.1,6.2-4.5,9.1C478.3,564.9,476.5,558.5,477.1,555.3z"/>
				<path class="st2" d="M479.4,545.8c0,0-5.4,3.3-7.5-3.9C472,541.8,473,551,479.4,545.8z"/>
			</g>
			<g>
				<path class="st2" d="M446.7,570.3c3,1.4,4.8,2.9,8.7,4.2c0.1,0.1,0.4,0.1,0.6,0.1c0.2,0.1,0.5,0.1,0.8,0.2
					c0.3,0.1,0.7,0.1,1.1,0.3c0.4,0.1,0.9,0.2,1.5,0.3c0.4,0.1,0.9,0.1,1.5,0.3c0.6,0.1,1.3,0.1,1.8,0.2c0.6,0.1,1.1,0.1,1.5,0.1
					s0.7,0.1,0.7,0.1s0.1,0,0.5,0.1c0.3,0.1,0.7,0,1.3,0.1c0.5,0,1.1,0,1.6,0c0.5-0.1,1.1-0.1,1.6-0.1c0.7-0.1,1.5-0.1,2.1-0.2
					c0.7-0.1,1.2-0.1,1.7-0.3c0.5-0.1,0.9-0.1,1.3-0.3c0.4-0.1,0.7-0.1,0.9-0.2c2-0.5,3.4-1.3,4.7-1.9c0.7-0.3,1.3-0.7,2-1
					c0.7-0.4,1.3-0.7,2.1-1c-0.7,0.3-1.5,0.5-2.2,0.7c-0.7,0.1-1.4,0.3-2.2,0.4c-1.5,0.3-3,0.5-4.9,0.7c-0.2,0.1-0.5,0.1-0.9,0.1
					s-0.7,0.1-1.3,0.1c-0.4,0.1-1,0.1-1.6,0.1c-0.6,0.1-1.3,0.1-2,0.1c-0.4,0-0.9,0.1-1.5,0.1c-0.5,0-1,0-1.6,0s-0.9,0-1.3,0
					s-0.5-0.1-0.5-0.1s-0.2,0-0.6-0.1s-0.9-0.1-1.4-0.1c-0.5-0.1-1.1-0.1-1.7-0.1c-0.5-0.1-1-0.1-1.5-0.1c-0.5-0.1-1-0.1-1.5-0.2
					c-0.4-0.1-0.7-0.1-1.1-0.1c-0.3-0.1-0.5-0.1-0.7-0.1s-0.4-0.1-0.5-0.1c-1.9-0.4-3.4-0.7-4.8-1c-0.7-0.1-1.4-0.3-2.2-0.5
					C448.2,570.9,447.5,570.6,446.7,570.3z"/>
			</g>
			<g>
				<path class="st2" d="M457.3,580.4c0.4,0.2,0.7,0.5,1,0.8s0.7,0.6,1.1,0.9c0.1,0.1,0.3,0.1,0.6,0.3c0.1,0.1,0.3,0.1,0.4,0.2
					s0.3,0.1,0.5,0.1c0.4,0.1,0.7,0.3,1.1,0.4c0.2,0.1,0.4,0.1,0.7,0.1s0.4,0.1,0.7,0.1c0.2,0.1,0.4,0.1,0.7,0.1
					c0.1,0,0.4,0.1,0.6,0.1c0.4,0,0.7,0.1,1,0.1s0.5,0,0.7-0.1c0.1,0,0.3,0,0.3,0s0.4-0.1,1-0.1c0.6-0.1,1.3-0.2,2.2-0.4
					s1.6-0.4,2.3-0.7c0.7-0.3,1.3-0.5,1.5-0.7c1-0.5,1.5-1,2.3-1.3c-0.9,0.2-1.6-0.1-2.7,0.1c-0.3,0-0.9,0.1-1.6,0.1
					c-0.7,0.1-1.5,0.1-2.3,0.2c-0.8,0.1-1.5,0.1-2,0.2s-0.9,0.1-0.9,0.1s-0.1,0-0.2,0s-0.4,0-0.7,0.1c-0.3,0.1-0.6,0.1-0.9,0.1
					c-0.1,0-0.4,0-0.5,0s-0.4,0-0.5,0s-0.4,0-0.5,0s-0.4,0-0.5-0.1c-0.4,0-0.7-0.1-1-0.1c-0.1,0-0.3-0.1-0.4-0.1s-0.3-0.1-0.4-0.1
					c-0.3-0.1-0.4-0.1-0.6-0.1c-0.5-0.1-1-0.1-1.3-0.1C458.1,580.7,457.7,580.6,457.3,580.4z"/>
			</g>
			<g>
				<path class="st2" d="M430.4,500.7c0.3,0.1,0.5,0.3,0.7,0.5c0.2,0.1,0.4,0.4,0.7,0.7c0.1,0.1,0.4,0.4,0.9,0.7
					c0.4,0.3,0.8,0.7,1.3,1c0.4,0.3,0.9,0.7,1.1,0.9c0.3,0.2,0.5,0.4,0.5,0.4s0.1,0.1,0.5,0.4c0.3,0.2,0.7,0.5,1.2,0.9
					c0.9,0.7,2,1.3,2.3,1.6c0.7,0.4,1.2,0.4,1.7,0.9c-0.4-0.4-0.6-0.9-1.1-1.6c-0.1-0.1-0.4-0.5-0.7-0.9c-0.3-0.4-0.7-0.8-1.1-1.3
					c-0.4-0.4-0.8-0.7-1.1-1c-0.3-0.3-0.5-0.4-0.5-0.4s-0.2-0.1-0.5-0.4c-0.3-0.2-0.7-0.6-1.3-0.9c-0.5-0.3-1-0.6-1.6-0.7
					s-0.9-0.3-1.1-0.4C431.6,500.9,431,500.9,430.4,500.7z"/>
			</g>
			<g>
				<path class="st2" d="M492.6,506c0.3-0.1,0.6-0.3,0.9-0.4s0.7-0.2,1-0.4c0.2-0.1,0.7-0.2,1.1-0.4s1.1-0.4,1.7-0.7
					c0.5-0.2,1.1-0.4,1.5-0.5s0.7-0.2,0.7-0.2l0.1-0.1c0.1-0.1,0.3-0.1,0.5-0.1c0.1-0.1,0.4-0.1,0.7-0.2c0.1-0.1,0.3-0.1,0.4-0.1
					s0.3-0.1,0.4-0.1c0.3-0.1,0.6-0.1,0.9-0.3c0.1-0.1,0.3-0.1,0.4-0.1s0.3-0.1,0.4-0.1c0.5-0.1,1-0.3,1.2-0.3
					c0.4-0.1,0.7-0.2,1-0.3s0.6-0.1,1-0.2c-0.7,0-1.2-0.3-2.1-0.3c-0.2,0-0.7,0-1.3,0c-0.1,0-0.3,0-0.4,0s-0.3,0.1-0.4,0.1
					c-0.3,0.1-0.7,0.1-1,0.1c-0.1,0.1-0.3,0.1-0.4,0.1c-0.1,0.1-0.3,0.1-0.4,0.1c-0.3,0.1-0.5,0.1-0.7,0.2s-0.4,0.1-0.5,0.1
					c-0.1,0.1-0.1,0.1-0.1,0.1s-0.3,0.1-0.7,0.3c-0.4,0.1-1,0.4-1.6,0.7c-0.5,0.3-1.2,0.7-1.6,1c-0.4,0.4-0.8,0.7-1,0.8
					C493.3,505,493.1,505.6,492.6,506z"/>
			</g>
			<g>
				<path class="st2" d="M406.2,508.1c0.2-0.4,0.5-0.7,0.8-0.9c0.1-0.1,0.3-0.3,0.5-0.4c0.1-0.1,0.3-0.3,0.5-0.4
					c0.1-0.1,0.3-0.1,0.5-0.4c0.1-0.1,0.4-0.3,0.7-0.4c0.1-0.1,0.3-0.1,0.4-0.3c0.1-0.1,0.3-0.1,0.5-0.2s0.3-0.1,0.5-0.2
					s0.4-0.1,0.5-0.1c0.1-0.1,0.4-0.1,0.5-0.1c0.1-0.1,0.4-0.1,0.5-0.1c0.3-0.1,0.7-0.1,0.9-0.3c0.5-0.1,0.9-0.1,0.9-0.1
					s0.3-0.1,0.9-0.1c0.3-0.1,0.6-0.1,0.9-0.1c0.1,0,0.4-0.1,0.5-0.1s0.4-0.1,0.5-0.1c0.4-0.1,0.7-0.1,1.1-0.1s0.7-0.1,1.1,0
					c0.7,0,1.3,0.1,1.6,0.1s0.5,0,0.7,0.1c0.2,0,0.4,0,0.7,0.1c0.4,0.1,0.7,0.1,1.2,0.2c-0.4-0.1-0.7-0.4-1.1-0.6
					c-0.4-0.1-0.7-0.4-1.3-0.6c-0.3-0.1-0.9-0.3-1.6-0.4c-0.4-0.1-0.7-0.1-1.2-0.1c-0.2,0-0.4-0.1-0.7-0.1s-0.4,0-0.7,0
					s-0.4,0-0.7,0c-0.1,0-0.4,0.1-0.6,0.1c-0.4,0.1-0.7,0.1-1,0.1c-0.6,0.1-1,0.1-1,0.1s-0.4,0.1-1,0.2c-0.3,0.1-0.7,0.1-1,0.3
					c-0.1,0.1-0.4,0.1-0.5,0.2s-0.4,0.1-0.5,0.3c-0.1,0.1-0.4,0.1-0.6,0.3c-0.1,0.1-0.4,0.2-0.5,0.4s-0.4,0.2-0.5,0.4
					c-0.1,0.1-0.3,0.3-0.4,0.4c-0.6,0.4-1,1-1.2,1.2c-0.4,0.4-0.5,0.9-0.7,1.3C406.6,507.4,406.4,507.8,406.2,508.1z"/>
			</g>
			<g>
				<path class="st2" d="M514.5,502.9c0.7,0.1,1.3,0.4,2.2,0.7c0.4,0.1,1.9,0.7,3,1.4c0.6,0.3,1.1,0.7,1.5,0.9
					c0.4,0.3,0.7,0.4,0.7,0.4s0.2,0.1,0.6,0.4c0.4,0.3,0.8,0.7,1.3,1.2s0.7,1,1,1.6c0.3,0.5,0.4,1,0.4,1.2c0.1,0.4,0.2,0.7,0.3,1.1
					c0.1,0.1,0.1,0.4,0.1,0.5s0,0.4-0.1,0.5c0.1-0.7,0.5-1.3,0.5-2.3c0-0.3,0-0.8-0.1-1.5s-0.5-1.4-1-2.1c-0.4-0.7-1-1.2-1.3-1.5
					c-0.4-0.4-0.7-0.5-0.7-0.5s-0.3-0.2-0.7-0.5s-1.1-0.7-1.8-0.9c-0.7-0.3-1.4-0.5-2.1-0.7c-0.7-0.1-1.2-0.1-1.4-0.1
					C516,502.7,515.4,503,514.5,502.9z"/>
			</g>
		</g>
		<path class="st2" d="M499.5,476.2c-4-7.2-32.6-7.9-32.6-7.9c-3.3-0.1-29.2,1.9-32.6,7.9c0,0-4.2,7.9,1.9,15.1
			c0,0,24.9-4.3,30.7-4.4l0,0l0,0c5.8,0.1,30.7,4.4,30.7,4.4C503.8,484,499.5,476.2,499.5,476.2z"/>
		<path class="st6" d="M496.8,478.3c-4.5-4.8-29.9-5-29.9-5l0,0l0,0l0,0l0,0c0,0-25.5,0.2-29.9,5c0,0-1.3,5.1,1.1,8.2
			c0,0,24-4,28.8-4.2l0,0c4.7,0.2,28.8,4.2,28.8,4.2C498.1,483.4,496.8,478.3,496.8,478.3z"/>
		<path class="st2" d="M410.9,580.4c0,0,5.5,14.4,3.9,21.8l6.4,4.8C421.2,607.1,421,587.5,410.9,580.4z"/>
		<path class="st2" d="M465.6,605.4c0,0-15.4-3.9-30.8-17.7c0,0,7.6,14.7,30.8,20.6c23.2-5.8,30.8-20.6,30.8-20.6
			C481.1,601.5,465.6,605.4,465.6,605.4z"/>
		<path class="st2" d="M440,478c0,0-1.5,3.2,0,5.6C440,483.6,440.9,481.1,440,478z"/>
		<path class="st2" d="M442.3,477.5c0,0-1.5,3.2,0,5.6C442.3,483.1,443.1,480.6,442.3,477.5z"/>
		<path class="st2" d="M445.4,477.1c0,0-1.5,3.2,0,5.6C445.4,482.6,446.2,480.2,445.4,477.1z"/>
		<path class="st2" d="M491.5,478c0,0,0.9,3.4-1,5.5C490.6,483.4,490.2,480.9,491.5,478z"/>
		<path class="st2" d="M489.2,477.6c0,0,0.9,3.4-1,5.5C488.2,483,487.8,480.4,489.2,477.6z"/>
		<path class="st2" d="M494.1,478.8c0,0,0.9,3.4-1,5.5C493.2,484.2,492.8,481.6,494.1,478.8z"/>
	</g>
	<g class="st1">
		<path class="st2" d="M718.8,571.6c0,0-26.8,11.9-46.1,9.8c-19.3,2.2-46.1-9.8-46.1-9.8c-24.3-6-37,15.7-37,15.7s31.9,38.3,83,46.5
			c51.2-8.2,83-46.5,83-46.5S743,565.6,718.8,571.6z"/>
		<path class="st3" d="M749.3,586.6c-19.7-24.9-76.7,4.1-76.7,4.1s-57-29.1-76.7-4.1c0,0,29.2,32.5,76.7,41.3l0,0l0,0l0,0l0,0
			C720,619.1,749.3,586.6,749.3,586.6z"/>
		<path class="st2" d="M728.7,586.1c0,0-5.5,14.4-3.9,21.8l-6.4,4.8C718.4,612.7,718.6,593.1,728.7,586.1z"/>
		<g>
			<g>
				<path class="st2" d="M738.5,500.6c-2.8-2.9-6.5-4.4-11.1-4.4c-7.4,0-14.6,3.9-16.1,4.8c-3.6-0.5-6.2-3-7.5-7.2
					c-1-3.4-0.9-6.7-0.9-6.7v-0.3l-0.1-0.2c-6.2-10.8-12.9-16.3-19.6-16.3c-5.2,0-9,3.4-10.5,5c-1.5-1.6-5.3-5-10.5-5
					c-6.8,0-13.4,5.5-19.6,16.3l-0.1,0.2v0.3c0,0.1,0.1,3.3-0.9,6.7c-1.3,4.2-3.9,6.6-7.5,7.2c-1.5-0.9-8.7-4.8-16.1-4.8
					c-4.5,0-8.3,1.5-11.1,4.4c-4.5,4.6-6.6,12.8-6.2,24.3v0.1c0.1,0.1,2.9,13.5,12.2,29.5c8.5,14.7,24.3,34.7,51.4,46.5l7.7,2.2v0.5
					l0.9-0.2l0.9,0.2v-0.5l7.6-2.1l0.1-0.1c27-11.8,42.8-31.8,51.4-46.5c9.2-16,12.2-29.3,12.2-29.5v-0.1
					C745.1,513.3,743,505.2,738.5,500.6z"/>
				<path class="st4" d="M729,502.9c-10.9-1.1-30.8,14.6-30.8,14.6c3-4.7,9.4-9.9,9.4-9.9c-12.8-5.6-10.8-19.8-10.8-19.8
					c-10.3-15.9-19.4-8.6-19.4-8.6l-4.7,3.5l-4.7-3.5c0,0-9.1-7.3-19.4,8.5c0,0,1.9,14.2-10.8,19.8c0,0,6.3,5.2,9.4,9.9
					c0,0-19.8-15.7-30.8-14.6c0,0-12.3,3.6-10.6,22.1c0,0,3.2,10.3,10.3,23.3c1.1,1.9,10,16.7,25.2,18.6c0,0-6.5,2.4-14.6-2.3
					c10.7,14.1,25.8,27.8,46.1,33l0,0l0,0l0,0l0,0c20.3-5.2,35.5-18.9,46.1-33c-8.2,4.7-14.6,2.3-14.6,2.3
					c15.1-1.9,24.1-16.7,25.2-18.6c7.2-12.9,10.3-23.3,10.3-23.3C741.4,506.4,729,502.9,729,502.9z M725.5,516.3
					c-1,38.3-24.3,44.2-33.8,45c-1.5,3.6-4.8,10.9-8.5,12.9c0,0-3.6-4.8-3.6-13.1c-2.1-0.4-4.4-1.2-6.8-2.4l0,0l0,0l0,0l0,0l0,0l0,0
					c-2.5,1.3-4.8,2-6.8,2.4c-0.1,8.4-3.6,13.1-3.6,13.1c-3.8-2-7.1-9.4-8.5-12.9c-9.5-0.7-32.7-6.6-33.8-45
					c-0.7-0.5-1.3-0.7-3.2-0.9c0,0,6.4-3,10.4,2.4c0,0-3.2-1.3-5.3-1.1c0,0,5.4,19.3,25.5,29.1c-1.5-5.6-1.4-10.1-1.4-10.1
					c2.1-16.5,23.7-14.8,23.7-14.8l3,0.1l0,0c0.1,0,0.1,0,0.2,0c0.1,0,0.1,0,0.2,0l0,0l3-0.1c0,0,21.7-1.6,23.7,14.8
					c0,0,0.1,4.4-1.4,10.1c20-9.8,25.5-29.1,25.5-29.1c-2.2-0.1-5.3,1.1-5.3,1.1c4-5.4,10.4-2.4,10.4-2.4
					C726.8,515.6,726.1,515.8,725.5,516.3z"/>
				<path class="st4" d="M694.6,535.2c-1.7-9.5-17.4-10.8-17.4-10.8l-4.4-0.2l0,0h-0.1h-0.1l0,0l-4.4,0.2c0,0-15.7,1.3-17.4,10.8
					c-1,5.8,0.1,13.3,6.3,21.7c0,0,4.4,4,15.7-3.8c11.3,7.8,15.7,3.8,15.7,3.8C694.6,548.4,695.6,540.9,694.6,535.2z"/>
				<path class="st2" d="M666.9,488.4c0,0-4.5-5.3-11.5-0.5c0,0,6.3-1.3,8.3,1.9c0,0-12.8-5.4-11.9,16l1,5.3c0,0,11,4,15.4,2.5
					C668.2,513.6,671,497.4,666.9,488.4z"/>
				<path class="st5" d="M665.1,493.4c0,0-9.1-5.6-10.9,8.3c0,0,0.1,5.6,0.9,6.8l10.6,2.4C665.6,510.9,667.8,496.5,665.1,493.4z"/>
				<path class="st2" d="M668.7,505.7c-0.2,4.4-2.4,7.8-5,7.7c-2.5-0.1-4.4-3.8-4.2-8.2c0.2-4.4,2.4-7.8,5-7.7
					C667,497.7,668.8,501.3,668.7,505.7z"/>
				<path class="st5" d="M648.6,550.4c-10.2-2.7-18-11.9-22.3-18c2.7,5.1,6.6,11.7,10.3,14.9c0,0-6.9-4.7-12.2-14.8
					c8.2,24.3,27.5,25.7,27.5,25.7L648.6,550.4z"/>
				
					<ellipse transform="matrix(0.9802 -0.1978 0.1978 0.9802 -94.1537 141.5965)" class="st2" cx="661.7" cy="542.1" rx="4" ry="7.1"/>
				<path class="st5" d="M662.5,560.9c0,0-1,0.2-2.2,0.4l-0.2,5c-0.5-1.3-1.1-3.6-1.3-4.9c-0.7,0.1-1.3,0.1-1.9-0.1
					c0,0,2.1,6.2,4.5,9.1C661.3,570.6,663,564.1,662.5,560.9z"/>
				<path class="st2" d="M660.1,551.4c0,0,5.4,3.3,7.5-3.9C667.6,547.5,666.5,556.7,660.1,551.4z"/>
				<path class="st2" d="M678.5,488.4c0,0,4.5-5.3,11.5-0.5c0,0-6.3-1.3-8.3,1.9c0,0,12.8-5.4,11.9,16l-1,5.3c0,0-11,4-15.4,2.5
					C677.1,513.6,674.3,497.4,678.5,488.4z"/>
				<path class="st5" d="M680.3,493.4c0,0,9.1-5.6,10.9,8.3c0,0-0.1,5.6-0.9,6.8l-10.6,2.4C679.7,510.9,677.5,496.5,680.3,493.4z"/>
				<path class="st2" d="M676.7,505.7c0.2,4.4,2.4,7.8,5,7.7c2.5-0.1,4.4-3.8,4.2-8.2c-0.2-4.4-2.4-7.8-5-7.7
					C678.3,497.7,676.4,501.3,676.7,505.7z"/>
				<path class="st5" d="M696.7,550.4c10.2-2.7,18-11.9,22.3-18c-2.7,5.1-6.6,11.7-10.3,14.9c0,0,6.9-4.7,12.2-14.8
					c-8.2,24.3-27.5,25.7-27.5,25.7L696.7,550.4z"/>
				
					<ellipse transform="matrix(0.1978 -0.9802 0.9802 0.1978 16.8683 1105.0231)" class="st2" cx="683.6" cy="542.2" rx="7.1" ry="4"/>
				<path class="st5" d="M682.9,560.9c0,0,1,0.2,2.2,0.4l0.2,5c0.5-1.3,1.1-3.6,1.3-4.9c0.7,0.1,1.3,0.1,1.9-0.1
					c0,0-2.1,6.2-4.5,9.1C684,570.6,682.3,564.1,682.9,560.9z"/>
				<path class="st2" d="M685.2,551.4c0,0-5.4,3.3-7.5-3.9C677.7,547.5,678.8,556.7,685.2,551.4z"/>
			</g>
			<g>
				<path class="st2" d="M652.5,575.9c3,1.4,4.8,2.9,8.7,4.2c0.1,0.1,0.4,0.1,0.6,0.1c0.2,0.1,0.5,0.1,0.8,0.2
					c0.3,0.1,0.7,0.1,1.1,0.3c0.4,0.1,0.9,0.2,1.5,0.3c0.4,0.1,0.9,0.1,1.5,0.3c0.6,0.1,1.3,0.1,1.8,0.2c0.6,0.1,1.1,0.1,1.5,0.1
					c0.4,0.1,0.7,0.1,0.7,0.1s0.1,0,0.5,0.1c0.3,0.1,0.7,0,1.3,0.1c0.5,0,1.1,0,1.6,0c0.5-0.1,1.1-0.1,1.6-0.1
					c0.7-0.1,1.5-0.1,2.1-0.2c0.7-0.1,1.2-0.1,1.7-0.3c0.5-0.1,0.9-0.1,1.3-0.3c0.4-0.1,0.7-0.1,0.9-0.2c2-0.5,3.4-1.3,4.7-1.9
					c0.7-0.3,1.3-0.7,2-1c0.7-0.4,1.3-0.7,2.1-1c-0.7,0.3-1.5,0.5-2.2,0.7c-0.7,0.1-1.4,0.3-2.2,0.4c-1.5,0.3-3,0.5-4.9,0.7
					c-0.2,0.1-0.5,0.1-0.9,0.1c-0.4,0.1-0.7,0.1-1.3,0.1s-1,0.1-1.6,0.1s-1.3,0.1-2,0.1c-0.4,0-0.9,0.1-1.5,0.1c-0.5,0-1,0-1.6,0
					s-0.9,0-1.3,0c-0.4,0-0.5-0.1-0.5-0.1s-0.2,0-0.6-0.1c-0.4-0.1-0.9-0.1-1.4-0.1c-0.5-0.1-1.1-0.1-1.7-0.1
					c-0.5-0.1-1-0.1-1.5-0.1c-0.5-0.1-1-0.1-1.5-0.2c-0.4-0.1-0.7-0.1-1.1-0.1c-0.3-0.1-0.5-0.1-0.7-0.1c-0.2-0.1-0.4-0.1-0.5-0.1
					c-1.9-0.4-3.4-0.7-4.8-1c-0.7-0.1-1.4-0.3-2.2-0.5C653.9,576.5,653.2,576.2,652.5,575.9z"/>
			</g>
			<g>
				<path class="st2" d="M663,586.1c0.4,0.2,0.7,0.5,1,0.8s0.7,0.6,1.1,0.9c0.1,0.1,0.3,0.1,0.6,0.3c0.1,0.1,0.3,0.1,0.4,0.2
					c0.1,0.1,0.3,0.1,0.5,0.1c0.4,0.1,0.7,0.3,1.1,0.4c0.2,0.1,0.4,0.1,0.7,0.1s0.4,0.1,0.7,0.1c0.2,0.1,0.4,0.1,0.7,0.1
					c0.1,0,0.4,0.1,0.6,0.1c0.4,0,0.7,0.1,1,0.1s0.5,0,0.7-0.1c0.1,0,0.3,0,0.3,0s0.4-0.1,1-0.1c0.6-0.1,1.3-0.2,2.2-0.4
					c0.8-0.1,1.6-0.4,2.3-0.7s1.3-0.5,1.5-0.7c1-0.5,1.5-1,2.3-1.3c-0.9,0.2-1.6-0.1-2.7,0.1c-0.3,0-0.9,0.1-1.6,0.1
					c-0.7,0.1-1.5,0.1-2.3,0.2c-0.7,0.1-1.5,0.1-2,0.2c-0.5,0.1-0.9,0.1-0.9,0.1s-0.1,0-0.2,0s-0.4,0-0.7,0.1s-0.6,0.1-0.9,0.1
					c-0.1,0-0.4,0-0.5,0s-0.4,0-0.5,0s-0.4,0-0.5,0s-0.4,0-0.5-0.1c-0.4,0-0.7-0.1-1-0.1c-0.1,0-0.3-0.1-0.4-0.1
					c-0.1,0-0.3-0.1-0.4-0.1c-0.3-0.1-0.4-0.1-0.6-0.1c-0.5-0.1-1-0.1-1.3-0.1C663.8,586.4,663.4,586.2,663,586.1z"/>
			</g>
			<g>
				<path class="st2" d="M636.2,506.3c0.3,0.1,0.5,0.3,0.7,0.5c0.2,0.1,0.4,0.4,0.7,0.7c0.1,0.1,0.4,0.4,0.9,0.7s0.8,0.7,1.3,1
					c0.4,0.3,0.9,0.7,1.1,0.9c0.3,0.2,0.5,0.4,0.5,0.4s0.1,0.1,0.5,0.4c0.3,0.2,0.7,0.5,1.2,0.9c0.9,0.7,2,1.3,2.3,1.6
					c0.7,0.4,1.2,0.4,1.7,0.9c-0.4-0.4-0.6-0.9-1.1-1.6c-0.1-0.1-0.4-0.5-0.7-0.9s-0.7-0.8-1.1-1.3c-0.4-0.4-0.8-0.7-1.1-1
					s-0.5-0.4-0.5-0.4s-0.2-0.1-0.5-0.4c-0.3-0.2-0.7-0.6-1.3-0.9c-0.5-0.3-1-0.6-1.6-0.7c-0.5-0.1-0.9-0.3-1.1-0.4
					C637.3,506.4,636.8,506.6,636.2,506.3z"/>
			</g>
			<g>
				<path class="st2" d="M698.3,511.6c0.3-0.1,0.6-0.3,0.9-0.4s0.7-0.2,1-0.4c0.2-0.1,0.7-0.2,1.1-0.4c0.5-0.2,1.1-0.4,1.7-0.7
					c0.5-0.2,1.1-0.4,1.5-0.5s0.7-0.2,0.7-0.2l0.1-0.1c0.1-0.1,0.3-0.1,0.5-0.1c0.1-0.1,0.4-0.1,0.7-0.2c0.1-0.1,0.3-0.1,0.4-0.1
					c0.1-0.1,0.3-0.1,0.4-0.1c0.3-0.1,0.6-0.1,0.9-0.3c0.1-0.1,0.3-0.1,0.4-0.1c0.1-0.1,0.3-0.1,0.4-0.1c0.5-0.1,1-0.3,1.2-0.3
					c0.4-0.1,0.7-0.2,1-0.3s0.6-0.1,1-0.2c-0.7,0-1.2-0.3-2.1-0.3c-0.2,0-0.7,0-1.3,0c-0.1,0-0.3,0-0.4,0c-0.1,0-0.3,0.1-0.4,0.1
					c-0.3,0.1-0.7,0.1-1,0.1c-0.1,0.1-0.3,0.1-0.4,0.1c-0.1,0.1-0.3,0.1-0.4,0.1c-0.3,0.1-0.5,0.1-0.7,0.2s-0.4,0.1-0.5,0.1
					c-0.1,0.1-0.1,0.1-0.1,0.1s-0.3,0.1-0.7,0.3c-0.4,0.1-1,0.4-1.6,0.7c-0.5,0.3-1.2,0.7-1.6,1s-0.8,0.7-1,0.8
					C699.1,510.7,698.8,511.2,698.3,511.6z"/>
			</g>
			<g>
				<path class="st2" d="M612,513.8c0.2-0.4,0.5-0.7,0.8-0.9c0.1-0.1,0.3-0.3,0.5-0.4c0.1-0.1,0.3-0.3,0.5-0.4
					c0.1-0.1,0.3-0.1,0.5-0.4c0.1-0.1,0.4-0.3,0.7-0.4c0.1-0.1,0.3-0.1,0.4-0.3c0.1-0.1,0.3-0.1,0.5-0.2c0.1-0.1,0.3-0.1,0.5-0.2
					c0.1-0.1,0.4-0.1,0.5-0.1c0.1-0.1,0.4-0.1,0.5-0.1c0.1-0.1,0.4-0.1,0.5-0.1c0.3-0.1,0.7-0.1,0.9-0.3c0.5-0.1,0.9-0.1,0.9-0.1
					s0.3-0.1,0.9-0.1c0.3-0.1,0.6-0.1,0.9-0.1c0.1,0,0.4-0.1,0.5-0.1s0.4-0.1,0.5-0.1c0.4-0.1,0.7-0.1,1.1-0.1s0.7-0.1,1.1,0
					c0.7,0,1.3,0.1,1.6,0.1s0.5,0,0.7,0.1c0.2,0,0.4,0,0.7,0.1c0.4,0.1,0.7,0.1,1.2,0.2c-0.4-0.1-0.7-0.4-1.1-0.6
					c-0.4-0.1-0.7-0.4-1.3-0.6c-0.3-0.1-0.9-0.3-1.6-0.4c-0.4-0.1-0.7-0.1-1.2-0.1c-0.2,0-0.4-0.1-0.7-0.1s-0.4,0-0.7,0
					s-0.4,0-0.7,0c-0.1,0-0.4,0.1-0.6,0.1c-0.4,0.1-0.7,0.1-1,0.1c-0.6,0.1-1,0.1-1,0.1s-0.4,0.1-1,0.2c-0.3,0.1-0.7,0.1-1,0.3
					c-0.1,0.1-0.4,0.1-0.5,0.2s-0.4,0.1-0.5,0.3c-0.1,0.1-0.4,0.1-0.6,0.3c-0.1,0.1-0.4,0.2-0.5,0.4s-0.4,0.2-0.5,0.4
					c-0.1,0.1-0.3,0.3-0.4,0.4c-0.6,0.4-1,1-1.2,1.2c-0.4,0.4-0.5,0.9-0.7,1.3C612.3,513,612.2,513.4,612,513.8z"/>
			</g>
			<g>
				<path class="st2" d="M720.3,508.5c0.7,0.1,1.3,0.4,2.2,0.7c0.4,0.1,1.9,0.7,3,1.4c0.6,0.3,1.1,0.7,1.5,0.9
					c0.4,0.3,0.7,0.4,0.7,0.4s0.2,0.1,0.6,0.4c0.4,0.3,0.8,0.7,1.3,1.2c0.4,0.5,0.7,1,1,1.6c0.3,0.5,0.4,1,0.4,1.2
					c0.1,0.4,0.2,0.7,0.3,1.1c0.1,0.1,0.1,0.4,0.1,0.5s0,0.4-0.1,0.5c0.1-0.7,0.5-1.3,0.5-2.3c0-0.3,0-0.8-0.1-1.5s-0.5-1.4-1-2.1
					c-0.4-0.7-1-1.2-1.3-1.5c-0.4-0.4-0.7-0.5-0.7-0.5s-0.3-0.2-0.7-0.5s-1.1-0.7-1.8-0.9c-0.7-0.2-1.4-0.5-2.1-0.7
					c-0.7-0.1-1.2-0.1-1.4-0.1C721.7,508.4,721.1,508.6,720.3,508.5z"/>
			</g>
		</g>
		<path class="st2" d="M705.3,481.8c-4-7.2-32.6-7.9-32.6-7.9c-3.3-0.1-29.2,2-32.6,7.9c0,0-4.2,7.9,1.9,15.1c0,0,24.9-4.3,30.7-4.4
			l0,0l0,0c5.8,0.1,30.7,4.4,30.7,4.4C709.6,489.7,705.3,481.8,705.3,481.8z"/>
		<path class="st6" d="M702.5,484c-4.5-4.8-29.9-5-29.9-5l0,0l0,0l0,0l0,0c0,0-25.5,0.2-29.9,5c0,0-1.3,5.1,1.1,8.2
			c0,0,24-4,28.8-4.2l0,0c4.7,0.2,28.8,4.2,28.8,4.2C703.9,489.1,702.5,484,702.5,484z"/>
		<path class="st2" d="M616.6,586.1c0,0,5.5,14.4,3.9,21.8l6.4,4.8C626.9,612.7,626.8,593.1,616.6,586.1z"/>
		<path class="st2" d="M671.4,611c0,0-15.4-3.9-30.8-17.7c0,0,7.6,14.7,30.8,20.6c23.2-5.8,30.8-20.6,30.8-20.6
			C686.8,607.1,671.4,611,671.4,611z"/>
		<path class="st2" d="M645.8,483.7c0,0-1.5,3.2,0,5.6C645.8,489.2,646.6,486.7,645.8,483.7z"/>
		<path class="st2" d="M648,483.1c0,0-1.5,3.2,0,5.6C648,488.7,648.9,486.2,648,483.1z"/>
		<path class="st2" d="M651.2,482.8c0,0-1.5,3.2,0,5.6C651.2,488.3,652,485.8,651.2,482.8z"/>
		<path class="st2" d="M697.3,483.7c0,0,0.9,3.4-1,5.5C696.3,489.1,695.9,486.6,697.3,483.7z"/>
		<path class="st2" d="M694.9,483.2c0,0,0.9,3.4-1,5.5C694,488.6,693.5,486,694.9,483.2z"/>
		<path class="st2" d="M699.9,484.4c0,0,0.9,3.4-1,5.5C699,489.8,698.5,487.2,699.9,484.4z"/>
	</g>
	<g class="st1">
		<path class="st2" d="M918.9,568.8c0,0-26.8,11.9-46.1,9.8c-19.3,2.2-46.1-9.8-46.1-9.8c-24.3-6-37,15.7-37,15.7s31.9,38.3,83,46.5
			c51.2-8.2,83-46.5,83-46.5S943.2,562.8,918.9,568.8z"/>
		<path class="st3" d="M949.4,583.8c-19.7-24.9-76.7,4.1-76.7,4.1s-57-29.1-76.7-4.1c0,0,29.2,32.5,76.7,41.3l0,0l0,0l0,0l0,0
			C920.2,616.3,949.4,583.8,949.4,583.8z"/>
		<path class="st2" d="M928.8,583.3c0,0-5.5,14.4-3.9,21.8l-6.4,4.8C918.5,609.9,918.7,590.3,928.8,583.3z"/>
		<g>
			<g>
				<path class="st2" d="M938.6,497.8c-2.8-2.9-6.5-4.4-11.1-4.4c-7.4,0-14.6,3.9-16.1,4.8c-3.6-0.5-6.2-3-7.5-7.2
					c-1-3.4-0.9-6.7-0.9-6.7V484l-0.1-0.2c-6.2-10.8-12.9-16.3-19.6-16.3c-5.2,0-9,3.4-10.5,5c-1.5-1.6-5.3-5-10.5-5
					c-6.8,0-13.4,5.5-19.6,16.3l-0.1,0.2v0.3c0,0.1,0.1,3.3-0.9,6.7c-1.3,4.2-3.9,6.6-7.5,7.2c-1.5-0.9-8.7-4.8-16.1-4.8
					c-4.5,0-8.3,1.5-11.1,4.4c-4.5,4.6-6.6,12.8-6.2,24.3v0.1c0.1,0.1,2.9,13.5,12.2,29.5c8.5,14.7,24.3,34.7,51.4,46.5l7.7,2.2v0.5
					l0.9-0.2l0.9,0.2v-0.5l7.6-2.1l0.1-0.1c27-11.8,42.8-31.8,51.4-46.5c9.2-16,12.2-29.3,12.2-29.5V522
					C945.2,510.5,943.1,502.4,938.6,497.8z"/>
				<path class="st4" d="M929.2,500.1c-10.9-1.1-30.8,14.6-30.8,14.6c3-4.7,9.4-9.9,9.4-9.9C895,499.2,897,485,897,485
					c-10.3-15.9-19.4-8.6-19.4-8.6l-4.7,3.5l-4.7-3.5c0,0-9.1-7.3-19.4,8.5c0,0,1.9,14.2-10.8,19.8c0,0,6.3,5.2,9.4,9.9
					c0,0-19.8-15.7-30.8-14.6c0,0-12.3,3.6-10.6,22.1c0,0,3.2,10.3,10.3,23.3c1.1,1.9,10,16.7,25.2,18.6c0,0-6.5,2.4-14.6-2.3
					c10.7,14.1,25.8,27.8,46.1,33l0,0l0,0l0,0l0,0c20.3-5.2,35.5-18.9,46.1-33c-8.2,4.7-14.6,2.3-14.6,2.3
					c15.1-1.9,24.1-16.7,25.2-18.6c7.2-12.9,10.3-23.3,10.3-23.3C941.5,503.7,929.2,500.1,929.2,500.1z M925.6,513.5
					c-1,38.3-24.3,44.2-33.8,45c-1.5,3.6-4.8,10.9-8.5,12.9c0,0-3.6-4.8-3.6-13.1c-2.1-0.4-4.4-1.2-6.8-2.4l0,0l0,0l0,0l0,0l0,0l0,0
					c-2.5,1.3-4.8,2-6.8,2.4c-0.1,8.4-3.6,13.1-3.6,13.1c-3.8-2-7.1-9.4-8.5-12.9c-9.5-0.7-32.7-6.6-33.8-45
					c-0.7-0.5-1.3-0.7-3.2-0.9c0,0,6.4-3,10.4,2.4c0,0-3.2-1.3-5.3-1.1c0,0,5.4,19.3,25.5,29.1c-1.5-5.6-1.4-10.1-1.4-10.1
					c2.1-16.5,23.7-14.8,23.7-14.8l3,0.1l0,0c0.1,0,0.1,0,0.2,0c0.1,0,0.1,0,0.2,0l0,0l3-0.1c0,0,21.7-1.6,23.7,14.8
					c0,0,0.1,4.4-1.4,10.1c20-9.8,25.5-29.1,25.5-29.1c-2.2-0.1-5.3,1.1-5.3,1.1c4-5.4,10.4-2.4,10.4-2.4
					C926.9,512.8,926.3,513,925.6,513.5z"/>
				<path class="st4" d="M894.7,532.3c-1.7-9.5-17.4-10.8-17.4-10.8l-4.4-0.2l0,0h-0.1h-0.1l0,0l-4.4,0.2c0,0-15.7,1.3-17.4,10.8
					c-1,5.8,0.1,13.3,6.3,21.7c0,0,4.4,4,15.7-3.8c11.3,7.8,15.7,3.8,15.7,3.8C894.7,545.6,895.8,538.1,894.7,532.3z"/>
				<path class="st2" d="M867,485.6c0,0-4.5-5.3-11.5-0.5c0,0,6.3-1.3,8.3,1.9c0,0-12.8-5.4-11.9,16l1,5.3c0,0,11,4,15.4,2.5
					C868.4,510.8,871.1,494.6,867,485.6z"/>
				<path class="st5" d="M865.2,490.6c0,0-9.1-5.6-10.9,8.3c0,0,0.1,5.6,0.9,6.8l10.6,2.4C865.8,508.1,867.9,493.7,865.2,490.6z"/>
				<path class="st2" d="M868.8,502.9c-0.2,4.4-2.4,7.8-5,7.7c-2.5-0.1-4.4-3.8-4.2-8.2c0.2-4.4,2.4-7.8,5-7.7
					C867.1,494.9,869,498.5,868.8,502.9z"/>
				<path class="st5" d="M848.7,547.6c-10.2-2.7-18-11.9-22.3-18c2.7,5.1,6.6,11.7,10.3,14.9c0,0-6.9-4.7-12.2-14.8
					c8.2,24.3,27.5,25.7,27.5,25.7L848.7,547.6z"/>
				
					<ellipse transform="matrix(0.9802 -0.1978 0.1978 0.9802 -89.6262 181.1157)" class="st2" cx="861.8" cy="539.2" rx="4" ry="7.1"/>
				<path class="st5" d="M862.6,558.2c0,0-1,0.2-2.2,0.4l-0.2,5c-0.5-1.3-1.1-3.6-1.3-4.9c-0.7,0.1-1.3,0.1-1.9-0.1
					c0,0,2.1,6.2,4.5,9.1C861.4,567.7,863.1,561.3,862.6,558.2z"/>
				<path class="st2" d="M860.2,548.6c0,0,5.4,3.3,7.5-3.9C867.7,544.7,866.6,553.9,860.2,548.6z"/>
				<path class="st2" d="M878.6,485.6c0,0,4.5-5.3,11.5-0.5c0,0-6.3-1.3-8.3,1.9c0,0,12.8-5.4,11.9,16l-1,5.3c0,0-11,4-15.4,2.5
					C877.2,510.8,874.4,494.6,878.6,485.6z"/>
				<path class="st5" d="M880.3,490.6c0,0,9.1-5.6,10.9,8.3c0,0-0.1,5.6-0.9,6.8l-10.6,2.4C879.8,508.1,877.7,493.7,880.3,490.6z"/>
				<path class="st2" d="M876.8,502.9c0.2,4.4,2.4,7.8,5,7.7c2.5-0.1,4.4-3.8,4.2-8.2c-0.2-4.4-2.4-7.8-5-7.7
					C878.4,494.9,876.6,498.5,876.8,502.9z"/>
				<path class="st5" d="M896.8,547.6c10.2-2.7,18-11.9,22.3-18c-2.7,5.1-6.6,11.7-10.3,14.9c0,0,6.9-4.7,12.2-14.8
					c-8.2,24.3-27.5,25.7-27.5,25.7L896.8,547.6z"/>
				
					<ellipse transform="matrix(0.1978 -0.9802 0.9802 0.1978 180.1532 1298.9207)" class="st2" cx="883.7" cy="539.4" rx="7.1" ry="4"/>
				<path class="st5" d="M882.9,558.2c0,0,1,0.2,2.2,0.4l0.2,5c0.5-1.3,1.1-3.6,1.3-4.9c0.7,0.1,1.3,0.1,1.9-0.1
					c0,0-2.1,6.2-4.5,9.1C884.1,567.7,882.4,561.3,882.9,558.2z"/>
				<path class="st2" d="M885.3,548.6c0,0-5.4,3.3-7.5-3.9C877.9,544.7,878.9,553.9,885.3,548.6z"/>
			</g>
			<g>
				<path class="st2" d="M852.6,573.1c3,1.4,4.8,2.9,8.7,4.2c0.1,0.1,0.4,0.1,0.6,0.1c0.2,0.1,0.5,0.1,0.8,0.2
					c0.3,0.1,0.7,0.1,1.1,0.3c0.4,0.1,0.9,0.2,1.5,0.3c0.4,0.1,0.9,0.1,1.5,0.3c0.6,0.1,1.3,0.1,1.8,0.2c0.6,0.1,1.1,0.1,1.5,0.1
					c0.4,0.1,0.7,0.1,0.7,0.1s0.1,0,0.5,0.1c0.3,0.1,0.7,0,1.3,0.1c0.5,0,1.1,0,1.6,0c0.5-0.1,1.1-0.1,1.6-0.1
					c0.7-0.1,1.5-0.1,2.1-0.2c0.7-0.1,1.2-0.1,1.7-0.3c0.5-0.1,0.9-0.1,1.3-0.3c0.4-0.1,0.7-0.1,0.9-0.2c2-0.5,3.4-1.3,4.7-1.9
					c0.7-0.3,1.3-0.7,2-1c0.7-0.4,1.3-0.7,2.1-1c-0.7,0.3-1.5,0.5-2.2,0.7c-0.7,0.1-1.4,0.3-2.2,0.4c-1.5,0.3-3,0.5-4.9,0.7
					c-0.2,0.1-0.5,0.1-0.9,0.1c-0.4,0.1-0.7,0.1-1.3,0.1c-0.5,0.1-1,0.1-1.6,0.1s-1.3,0.1-2,0.1c-0.4,0-0.9,0.1-1.5,0.1
					c-0.5,0-1,0-1.6,0s-0.9,0-1.3,0c-0.4,0-0.5-0.1-0.5-0.1s-0.2,0-0.6-0.1c-0.4-0.1-0.9-0.1-1.4-0.1c-0.5-0.1-1.1-0.1-1.7-0.1
					c-0.5-0.1-1-0.1-1.5-0.1c-0.5-0.1-1-0.1-1.5-0.2c-0.4-0.1-0.7-0.1-1.1-0.1c-0.3-0.1-0.5-0.1-0.7-0.1c-0.2-0.1-0.4-0.1-0.5-0.1
					c-1.9-0.4-3.4-0.7-4.8-1c-0.7-0.1-1.4-0.3-2.2-0.5C854.1,573.7,853.3,573.4,852.6,573.1z"/>
			</g>
			<g>
				<path class="st2" d="M863.1,583.3c0.4,0.2,0.7,0.5,1,0.8s0.7,0.6,1.1,0.9c0.1,0.1,0.3,0.1,0.6,0.3c0.1,0.1,0.3,0.1,0.4,0.2
					s0.3,0.1,0.5,0.1c0.4,0.1,0.7,0.3,1.1,0.4c0.2,0.1,0.4,0.1,0.7,0.1s0.4,0.1,0.7,0.1c0.2,0.1,0.4,0.1,0.7,0.1
					c0.1,0,0.4,0.1,0.6,0.1c0.4,0,0.7,0.1,1,0.1s0.5,0,0.7-0.1c0.1,0,0.3,0,0.3,0s0.4-0.1,1-0.1c0.6-0.1,1.3-0.2,2.2-0.4
					c0.8-0.1,1.6-0.4,2.3-0.7s1.3-0.5,1.5-0.7c1-0.5,1.5-1,2.3-1.3c-0.9,0.2-1.6-0.1-2.7,0.1c-0.3,0-0.9,0.1-1.6,0.1
					c-0.7,0.1-1.5,0.1-2.3,0.2c-0.7,0.1-1.5,0.1-2,0.2c-0.5,0.1-0.9,0.1-0.9,0.1s-0.1,0-0.2,0s-0.4,0-0.7,0.1s-0.6,0.1-0.9,0.1
					c-0.1,0-0.4,0-0.5,0s-0.4,0-0.5,0s-0.4,0-0.5,0s-0.4,0-0.5-0.1c-0.4,0-0.7-0.1-1-0.1c-0.1,0-0.3-0.1-0.4-0.1
					c-0.1,0-0.3-0.1-0.4-0.1c-0.3-0.1-0.4-0.1-0.6-0.1c-0.5-0.1-1-0.1-1.3-0.1C863.9,583.5,863.6,583.4,863.1,583.3z"/>
			</g>
			<g>
				<path class="st2" d="M836.3,503.5c0.3,0.1,0.5,0.3,0.7,0.5c0.2,0.1,0.4,0.4,0.7,0.7c0.1,0.1,0.4,0.4,0.9,0.7s0.8,0.7,1.3,1
					c0.4,0.4,0.9,0.7,1.1,0.9c0.3,0.2,0.5,0.4,0.5,0.4s0.1,0.1,0.5,0.4c0.3,0.2,0.7,0.5,1.2,0.9c0.9,0.7,2,1.3,2.3,1.6
					c0.7,0.4,1.2,0.4,1.7,0.9c-0.4-0.4-0.6-0.9-1.1-1.6c-0.1-0.1-0.4-0.5-0.7-0.9s-0.7-0.8-1.1-1.3c-0.4-0.4-0.8-0.7-1.1-1
					s-0.5-0.4-0.5-0.4s-0.2-0.1-0.5-0.4c-0.3-0.2-0.7-0.6-1.3-0.9c-0.5-0.3-1-0.6-1.6-0.7s-0.9-0.3-1.1-0.4
					C837.4,503.7,836.9,503.8,836.3,503.5z"/>
			</g>
			<g>
				<path class="st2" d="M898.5,508.8c0.3-0.1,0.6-0.3,0.9-0.4s0.7-0.2,1-0.4c0.2-0.1,0.7-0.2,1.1-0.4s1.1-0.4,1.7-0.7
					c0.5-0.2,1.1-0.4,1.5-0.5s0.7-0.2,0.7-0.2l0.1-0.1c0.1-0.1,0.3-0.1,0.5-0.1c0.1-0.1,0.4-0.1,0.7-0.2c0.1-0.1,0.3-0.1,0.4-0.1
					c0.1-0.1,0.3-0.1,0.4-0.1c0.3-0.1,0.6-0.1,0.9-0.3c0.1-0.1,0.3-0.1,0.4-0.1c0.1-0.1,0.3-0.1,0.4-0.1c0.5-0.1,1-0.3,1.2-0.3
					c0.4-0.1,0.7-0.2,1-0.3c0.3-0.1,0.6-0.1,1-0.2c-0.7,0-1.2-0.3-2.1-0.3c-0.2,0-0.7,0-1.3,0c-0.1,0-0.3,0-0.4,0s-0.3,0.1-0.4,0.1
					c-0.3,0.1-0.7,0.1-1,0.1c-0.1,0.1-0.3,0.1-0.4,0.1c-0.1,0.1-0.3,0.1-0.4,0.1c-0.3,0.1-0.5,0.1-0.7,0.2s-0.4,0.1-0.5,0.1
					c-0.1,0.1-0.1,0.1-0.1,0.1s-0.3,0.1-0.7,0.3c-0.4,0.1-1,0.4-1.6,0.7c-0.5,0.3-1.2,0.7-1.6,1c-0.4,0.4-0.8,0.7-1,0.8
					C899.2,507.9,899,508.4,898.5,508.8z"/>
			</g>
			<g>
				<path class="st2" d="M812.1,511c0.2-0.4,0.5-0.7,0.8-0.9c0.1-0.1,0.3-0.3,0.5-0.4c0.1-0.1,0.3-0.3,0.5-0.4
					c0.1-0.1,0.3-0.1,0.5-0.4c0.1-0.1,0.4-0.3,0.7-0.4c0.1-0.1,0.3-0.1,0.4-0.3c0.1-0.1,0.3-0.1,0.5-0.2c0.1-0.1,0.3-0.1,0.5-0.2
					c0.1-0.1,0.4-0.1,0.5-0.1c0.1-0.1,0.4-0.1,0.5-0.1c0.1-0.1,0.4-0.1,0.5-0.1c0.3-0.1,0.7-0.1,0.9-0.3c0.5-0.1,0.9-0.1,0.9-0.1
					s0.3-0.1,0.9-0.1c0.3-0.1,0.6-0.1,0.9-0.1c0.1,0,0.4-0.1,0.5-0.1s0.4-0.1,0.5-0.1c0.4-0.1,0.7-0.1,1.1-0.1c0.4,0,0.7-0.1,1.1,0
					c0.7,0,1.3,0.1,1.6,0.1s0.5,0,0.7,0.1c0.2,0,0.4,0,0.7,0.1c0.4,0.1,0.7,0.1,1.2,0.2c-0.4-0.1-0.7-0.4-1.1-0.6
					c-0.4-0.1-0.7-0.4-1.3-0.6c-0.3-0.1-0.9-0.3-1.6-0.4c-0.4-0.1-0.7-0.1-1.2-0.1c-0.2,0-0.4-0.1-0.7-0.1c-0.2,0-0.4,0-0.7,0
					s-0.4,0-0.7,0c-0.1,0-0.4,0.1-0.6,0.1c-0.4,0.1-0.7,0.1-1,0.1c-0.6,0.1-1,0.1-1,0.1s-0.4,0.1-1,0.2c-0.3,0.1-0.7,0.1-1,0.3
					c-0.1,0.1-0.4,0.1-0.5,0.2s-0.4,0.1-0.5,0.3c-0.1,0.1-0.4,0.1-0.6,0.3c-0.1,0.1-0.4,0.2-0.5,0.4c-0.1,0.1-0.4,0.2-0.5,0.4
					s-0.3,0.3-0.4,0.4c-0.6,0.4-1,1-1.2,1.2c-0.4,0.4-0.5,0.9-0.7,1.3C812.4,510.2,812.3,510.6,812.1,511z"/>
			</g>
			<g>
				<path class="st2" d="M920.4,505.7c0.7,0.1,1.3,0.4,2.2,0.7c0.4,0.1,1.9,0.7,3,1.4c0.6,0.3,1.1,0.7,1.5,0.9
					c0.4,0.3,0.7,0.4,0.7,0.4s0.2,0.1,0.6,0.4c0.4,0.3,0.8,0.7,1.3,1.2c0.4,0.5,0.7,1,1,1.6c0.3,0.5,0.4,1,0.4,1.2
					c0.1,0.4,0.2,0.7,0.3,1.1c0.1,0.1,0.1,0.4,0.1,0.5s0,0.4-0.1,0.5c0.1-0.7,0.5-1.3,0.5-2.3c0-0.3,0-0.8-0.1-1.5s-0.5-1.4-1-2.1
					c-0.4-0.7-1-1.2-1.3-1.5c-0.4-0.4-0.7-0.5-0.7-0.5s-0.3-0.2-0.7-0.5s-1.1-0.7-1.8-0.9c-0.7-0.2-1.4-0.5-2.1-0.7
					c-0.7-0.1-1.2-0.1-1.4-0.1C921.8,505.6,921.2,505.8,920.4,505.7z"/>
			</g>
		</g>
		<path class="st2" d="M905.4,479c-4-7.2-32.6-7.9-32.6-7.9c-3.3-0.1-29.2,2-32.6,7.9c0,0-4.2,7.9,1.9,15.1c0,0,24.9-4.3,30.7-4.4
			l0,0l0,0c5.8,0.1,30.7,4.4,30.7,4.4C909.7,486.8,905.4,479,905.4,479z"/>
		<path class="st6" d="M902.7,481.1c-4.5-4.8-29.9-5-29.9-5l0,0l0,0l0,0l0,0c0,0-25.5,0.2-29.9,5c0,0-1.3,5.1,1.1,8.2
			c0,0,24-4,28.8-4.2l0,0c4.7,0.2,28.8,4.2,28.8,4.2C903.9,486.3,902.7,481.1,902.7,481.1z"/>
		<path class="st2" d="M816.7,583.3c0,0,5.5,14.4,3.9,21.8l6.4,4.8C827.1,609.9,826.8,590.3,816.7,583.3z"/>
		<path class="st2" d="M871.5,608.2c0,0-15.4-3.9-30.8-17.7c0,0,7.6,14.7,30.8,20.6c23.2-5.8,30.9-20.6,30.9-20.6
			C886.9,604.3,871.5,608.2,871.5,608.2z"/>
		<path class="st2" d="M845.8,480.8c0,0-1.5,3.2,0,5.6C845.8,486.4,846.7,483.9,845.8,480.8z"/>
		<path class="st2" d="M848.1,480.3c0,0-1.5,3.2,0,5.6C848.1,485.9,849,483.4,848.1,480.3z"/>
		<path class="st2" d="M851.3,479.9c0,0-1.5,3.2,0,5.6C851.3,485.4,852.1,483,851.3,479.9z"/>
		<path class="st2" d="M897.4,480.8c0,0,0.9,3.4-1,5.5C896.4,486.3,896.1,483.7,897.4,480.8z"/>
		<path class="st2" d="M895,480.4c0,0,0.9,3.4-1,5.5C894.1,485.8,893.6,483.2,895,480.4z"/>
		<path class="st2" d="M900,481.6c0,0,0.9,3.4-1,5.5C899,487,898.7,484.4,900,481.6z"/>
	</g>
	<g class="st1">
		<path class="st2" d="M913.2,382.8c0,0-26.8,11.9-46.1,9.8c-19.3,2.2-46.1-9.8-46.1-9.8c-24.3-6-37,15.7-37,15.7s31.9,38.3,83,46.5
			c51.2-8.2,83-46.5,83-46.5S937.6,376.7,913.2,382.8z"/>
		<path class="st3" d="M943.8,397.8c-19.7-24.9-76.7,4.1-76.7,4.1s-57-29.1-76.7-4.1c0,0,29.2,32.5,76.7,41.3l0,0l0,0l0,0l0,0
			C914.6,430.2,943.8,397.8,943.8,397.8z"/>
		<path class="st2" d="M923.2,397.2c0,0-5.5,14.4-3.9,21.8l-6.4,4.8C912.8,423.8,913.1,404.2,923.2,397.2z"/>
		<g>
			<g>
				<path class="st2" d="M933,311.7c-2.8-2.9-6.5-4.4-11.1-4.4c-7.4,0-14.6,3.9-16.1,4.8c-3.6-0.5-6.2-3-7.5-7.2
					c-1-3.4-0.9-6.7-0.9-6.7V298l-0.1-0.2c-6.2-10.8-12.9-16.3-19.6-16.3c-5.2,0-9,3.4-10.5,5c-1.5-1.6-5.3-5-10.5-5
					c-6.8,0-13.4,5.5-19.6,16.3L837,298v0.3c0,0.1,0.1,3.3-0.9,6.7c-1.3,4.2-3.9,6.6-7.5,7.2c-1.5-0.9-8.7-4.8-16.1-4.8
					c-4.5,0-8.3,1.5-11.1,4.4c-4.5,4.6-6.6,12.8-6.2,24.3v0.1c0.1,0.1,2.9,13.5,12.2,29.5c8.5,14.7,24.3,34.7,51.4,46.5l7.7,2.2v0.5
					l0.9-0.2l0.9,0.2v-0.5l7.6-2.1l0.1-0.1c27-11.8,42.8-31.8,51.4-46.5c9.2-16,12.2-29.3,12.2-29.5V336
					C939.6,324.5,937.5,316.4,933,311.7z"/>
				<path class="st4" d="M923.5,314.1c-10.9-1.1-30.8,14.6-30.8,14.6c3-4.7,9.4-9.9,9.4-9.9c-12.8-5.6-10.8-19.8-10.8-19.8
					c-10.3-15.9-19.4-8.6-19.4-8.6l-4.7,3.5l-4.7-3.5c0,0-9.1-7.3-19.4,8.5c0,0,1.9,14.2-10.8,19.8c0,0,6.3,5.2,9.4,9.9
					c0,0-19.8-15.7-30.8-14.6c0,0-12.3,3.6-10.6,22.1c0,0,3.2,10.3,10.3,23.3c1.1,1.9,10,16.7,25.2,18.6c0,0-6.5,2.4-14.6-2.3
					c10.7,14.1,25.8,27.8,46.1,33l0,0l0,0l0,0l0,0c20.3-5.2,35.5-18.9,46.1-33c-8.2,4.7-14.6,2.3-14.6,2.3
					c15.1-1.9,24.1-16.7,25.2-18.6c7.2-12.9,10.3-23.3,10.3-23.3C935.9,317.6,923.5,314.1,923.5,314.1z M920,327.4
					c-1,38.3-24.3,44.2-33.8,45c-1.5,3.6-4.8,10.9-8.5,12.9c0,0-3.6-4.8-3.6-13.1c-2.1-0.4-4.4-1.2-6.8-2.4l0,0l0,0l0,0l0,0l0,0l0,0
					c-2.5,1.3-4.8,2-6.8,2.4c-0.1,8.4-3.6,13.1-3.6,13.1c-3.8-2-7.1-9.4-8.5-12.9c-9.5-0.7-32.7-6.6-33.8-45
					c-0.7-0.5-1.3-0.7-3.2-0.9c0,0,6.4-3,10.4,2.4c0,0-3.2-1.3-5.3-1.1c0,0,5.4,19.3,25.5,29.1c-1.5-5.6-1.4-10.1-1.4-10.1
					C842.4,330.4,864,332,864,332l3,0.1l0,0c0.1,0,0.1,0,0.2,0c0.1,0,0.1,0,0.2,0l0,0l3-0.1c0,0,21.7-1.6,23.7,14.8
					c0,0,0.1,4.4-1.4,10.1c20-9.8,25.5-29.1,25.5-29.1c-2.2-0.1-5.3,1.1-5.3,1.1c4-5.4,10.4-2.4,10.4-2.4
					C921.3,326.8,920.6,326.9,920,327.4z"/>
				<path class="st4" d="M889.1,346.3c-1.7-9.5-17.4-10.8-17.4-10.8l-4.4-0.2l0,0h-0.1h-0.1l0,0l-4.4,0.2c0,0-15.7,1.3-17.4,10.8
					c-1,5.8,0.1,13.3,6.3,21.7c0,0,4.4,4,15.7-3.8C878.6,372,883,368,883,368C889,359.6,890.1,352,889.1,346.3z"/>
				<path class="st2" d="M861.3,299.5c0,0-4.5-5.3-11.5-0.5c0,0,6.3-1.3,8.3,1.9c0,0-12.8-5.4-11.9,16l1,5.3c0,0,11,4,15.4,2.5
					C862.8,324.8,865.5,308.5,861.3,299.5z"/>
				<path class="st5" d="M859.6,304.5c0,0-9.1-5.6-10.9,8.3c0,0,0.1,5.6,0.9,6.8l10.6,2.4C860.2,322.1,862.3,307.6,859.6,304.5z"/>
				<path class="st2" d="M863.1,316.8c-0.2,4.4-2.4,7.8-5,7.7c-2.5-0.1-4.4-3.8-4.2-8.2c0.2-4.4,2.4-7.8,5-7.7
					C861.4,308.9,863.3,312.5,863.1,316.8z"/>
				<path class="st5" d="M843.1,361.6c-10.2-2.7-18-11.9-22.3-18c2.7,5.1,6.6,11.7,10.3,14.9c0,0-6.9-4.7-12.2-14.8
					c8.2,24.3,27.5,25.7,27.5,25.7L843.1,361.6z"/>
				
					<ellipse transform="matrix(0.9802 -0.1978 0.1978 0.9802 -52.9695 176.3186)" class="st2" cx="856.1" cy="353.3" rx="4" ry="7.1"/>
				<path class="st5" d="M857,372.1c0,0-1,0.2-2.2,0.4l-0.2,5c-0.5-1.3-1.1-3.6-1.3-4.9c-0.7,0.1-1.3,0.1-1.9-0.1
					c0,0,2.1,6.2,4.5,9.1C855.8,381.7,857.5,375.2,857,372.1z"/>
				<path class="st2" d="M854.5,362.5c0,0,5.4,3.3,7.5-3.9C862,358.6,861,367.8,854.5,362.5z"/>
				<path class="st2" d="M872.9,299.5c0,0,4.5-5.3,11.5-0.5c0,0-6.3-1.3-8.3,1.9c0,0,12.8-5.4,11.9,16l-1,5.3c0,0-11,4-15.4,2.5
					C871.5,324.8,868.8,308.5,872.9,299.5z"/>
				<path class="st5" d="M874.7,304.5c0,0,9.1-5.6,10.9,8.3c0,0-0.1,5.6-0.9,6.8l-10.6,2.4C874.1,322.1,872,307.6,874.7,304.5z"/>
				<path class="st2" d="M871.1,316.8c0.2,4.4,2.4,7.8,5,7.7c2.5-0.1,4.4-3.8,4.2-8.2c-0.2-4.4-2.4-7.8-5-7.7
					C872.8,308.9,870.9,312.5,871.1,316.8z"/>
				<path class="st5" d="M891.2,361.6c10.2-2.7,18-11.9,22.3-18c-2.7,5.1-6.6,11.7-10.3,14.9c0,0,6.9-4.7,12.2-14.8
					c-8.2,24.3-27.5,25.7-27.5,25.7L891.2,361.6z"/>
				
					<ellipse transform="matrix(0.1978 -0.9802 0.9802 0.1978 358.0903 1144.1267)" class="st2" cx="878.1" cy="353.3" rx="7.1" ry="4"/>
				<path class="st5" d="M877.3,372.1c0,0,1,0.2,2.2,0.4l0.2,5c0.5-1.3,1.1-3.6,1.3-4.9c0.7,0.1,1.3,0.1,1.9-0.1
					c0,0-2.1,6.2-4.5,9.1C878.5,381.7,876.8,375.2,877.3,372.1z"/>
				<path class="st2" d="M879.7,362.5c0,0-5.4,3.3-7.5-3.9C872.3,358.6,873.2,367.8,879.7,362.5z"/>
			</g>
			<g>
				<path class="st2" d="M846.9,387c3,1.4,4.8,2.9,8.7,4.2c0.1,0.1,0.4,0.1,0.6,0.1c0.2,0.1,0.5,0.1,0.8,0.2s0.7,0.1,1.1,0.3
					c0.4,0.1,0.9,0.2,1.5,0.3c0.4,0.1,0.9,0.1,1.5,0.3c0.6,0.1,1.3,0.1,1.8,0.2c0.6,0.1,1.1,0.1,1.5,0.1c0.4,0.1,0.7,0.1,0.7,0.1
					s0.1,0,0.5,0.1c0.3,0.1,0.7,0,1.3,0.1c0.5,0,1.1,0,1.6,0c0.5-0.1,1.1-0.1,1.6-0.1c0.7-0.1,1.5-0.1,2.1-0.2
					c0.7-0.1,1.2-0.1,1.7-0.3c0.5-0.1,0.9-0.1,1.3-0.3c0.4-0.1,0.7-0.1,0.9-0.2c1.9-0.5,3.4-1.3,4.7-1.9c0.7-0.3,1.3-0.7,2-1
					c0.7-0.4,1.3-0.7,2.1-1c-0.7,0.3-1.5,0.5-2.2,0.7c-0.7,0.1-1.4,0.3-2.2,0.4c-1.5,0.3-3,0.5-4.9,0.7c-0.2,0.1-0.5,0.1-0.9,0.1
					c-0.4,0.1-0.7,0.1-1.3,0.1c-0.4,0.1-1,0.1-1.6,0.1s-1.3,0.1-2,0.1c-0.4,0-0.9,0.1-1.5,0.1c-0.5,0-1,0-1.6,0s-0.9,0-1.3,0
					c-0.3,0-0.5-0.1-0.5-0.1s-0.2,0-0.6-0.1c-0.4-0.1-0.9-0.1-1.4-0.1c-0.5-0.1-1.1-0.1-1.7-0.1c-0.5-0.1-1-0.1-1.5-0.1
					c-0.5-0.1-1-0.1-1.5-0.2c-0.4-0.1-0.7-0.1-1.1-0.1c-0.3-0.1-0.5-0.1-0.7-0.1c-0.2-0.1-0.4-0.1-0.5-0.1c-1.9-0.4-3.4-0.7-4.8-1
					c-0.7-0.1-1.4-0.3-2.2-0.5C848.4,387.6,847.7,387.4,846.9,387z"/>
			</g>
			<g>
				<path class="st2" d="M857.5,397.2c0.4,0.2,0.7,0.5,1,0.8s0.7,0.6,1.1,0.9c0.1,0.1,0.3,0.1,0.6,0.3c0.1,0.1,0.3,0.1,0.4,0.2
					c0.1,0.1,0.3,0.1,0.5,0.1c0.4,0.1,0.7,0.3,1.1,0.4c0.2,0.1,0.4,0.1,0.7,0.1s0.4,0.1,0.7,0.1c0.2,0.1,0.4,0.1,0.7,0.1
					c0.1,0,0.4,0.1,0.6,0.1c0.4,0,0.7,0.1,1,0.1s0.5,0,0.7-0.1c0.1,0,0.3,0,0.3,0s0.4-0.1,1-0.1c0.6-0.1,1.3-0.2,2.2-0.4
					c0.8-0.1,1.6-0.4,2.3-0.7c0.7-0.3,1.3-0.5,1.5-0.7c1-0.5,1.5-1,2.3-1.3c-0.9,0.2-1.6-0.1-2.7,0.1c-0.3,0-0.9,0.1-1.6,0.1
					c-0.7,0.1-1.5,0.1-2.3,0.2c-0.7,0.1-1.5,0.1-2,0.2s-0.9,0.1-0.9,0.1s-0.1,0-0.2,0s-0.4,0-0.7,0.1s-0.6,0.1-0.9,0.1
					c-0.1,0-0.4,0-0.5,0s-0.4,0-0.5,0s-0.4,0-0.5,0s-0.4,0-0.5-0.1c-0.4,0-0.7-0.1-1-0.1c-0.1,0-0.3-0.1-0.4-0.1
					c-0.1,0-0.3-0.1-0.4-0.1c-0.3-0.1-0.4-0.1-0.6-0.1c-0.5-0.1-1-0.1-1.3-0.1C858.3,397.5,857.9,397.4,857.5,397.2z"/>
			</g>
			<g>
				<path class="st2" d="M830.6,317.4c0.3,0.1,0.5,0.3,0.7,0.5c0.2,0.1,0.4,0.4,0.7,0.7c0.1,0.1,0.4,0.4,0.9,0.7
					c0.4,0.3,0.8,0.7,1.3,1c0.4,0.3,0.9,0.7,1.1,0.9c0.3,0.2,0.5,0.4,0.5,0.4s0.1,0.1,0.5,0.4c0.3,0.2,0.7,0.5,1.2,0.9
					c0.9,0.7,2,1.3,2.3,1.6c0.7,0.4,1.2,0.4,1.7,0.9c-0.4-0.4-0.6-0.9-1.1-1.6c-0.1-0.1-0.4-0.5-0.7-0.9s-0.7-0.8-1.1-1.3
					c-0.4-0.4-0.8-0.7-1.1-1s-0.5-0.4-0.5-0.4s-0.2-0.1-0.5-0.4c-0.3-0.2-0.7-0.6-1.3-0.9c-0.5-0.3-1-0.6-1.6-0.7
					c-0.5-0.1-0.9-0.3-1.1-0.4C831.7,317.6,831.2,317.7,830.6,317.4z"/>
			</g>
			<g>
				<path class="st2" d="M892.8,322.8c0.3-0.1,0.6-0.3,0.9-0.4c0.3-0.1,0.7-0.2,1-0.4c0.2-0.1,0.7-0.2,1.1-0.4
					c0.4-0.2,1.1-0.4,1.7-0.7c0.5-0.2,1.1-0.4,1.5-0.5s0.7-0.2,0.7-0.2l0.1-0.1c0.1-0.1,0.3-0.1,0.5-0.1c0.1-0.1,0.4-0.1,0.7-0.2
					c0.1-0.1,0.3-0.1,0.4-0.1c0.1-0.1,0.3-0.1,0.4-0.1c0.3-0.1,0.6-0.1,0.9-0.3c0.1-0.1,0.3-0.1,0.4-0.1c0.1-0.1,0.3-0.1,0.4-0.1
					c0.5-0.1,1-0.3,1.2-0.3c0.4-0.1,0.7-0.2,1-0.3c0.3-0.1,0.6-0.1,1-0.2c-0.7,0-1.2-0.3-2.1-0.3c-0.2,0-0.7,0-1.3,0
					c-0.1,0-0.3,0-0.4,0s-0.3,0.1-0.4,0.1c-0.3,0.1-0.7,0.1-1,0.1c-0.1,0.1-0.3,0.1-0.4,0.1c-0.1,0.1-0.3,0.1-0.4,0.1
					c-0.3,0.1-0.5,0.1-0.7,0.2s-0.4,0.1-0.5,0.1c-0.1,0.1-0.1,0.1-0.1,0.1s-0.3,0.1-0.7,0.3c-0.4,0.1-1,0.4-1.6,0.7
					c-0.5,0.3-1.2,0.7-1.6,1c-0.4,0.4-0.8,0.7-1,0.8C893.6,321.8,893.3,322.3,892.8,322.8z"/>
			</g>
			<g>
				<path class="st2" d="M806.4,325c0.2-0.4,0.5-0.7,0.8-0.9c0.1-0.1,0.3-0.3,0.5-0.4c0.1-0.1,0.3-0.3,0.5-0.4
					c0.1-0.1,0.3-0.1,0.5-0.4c0.1-0.1,0.4-0.3,0.7-0.4c0.1-0.1,0.3-0.1,0.4-0.3c0.1-0.1,0.3-0.1,0.5-0.2c0.1-0.1,0.3-0.1,0.5-0.2
					s0.4-0.1,0.5-0.1c0.1-0.1,0.4-0.1,0.5-0.1c0.1-0.1,0.4-0.1,0.5-0.1c0.3-0.1,0.7-0.1,0.9-0.3c0.5-0.1,0.9-0.1,0.9-0.1
					s0.3-0.1,0.9-0.1c0.3-0.1,0.6-0.1,0.9-0.1c0.1,0,0.4-0.1,0.5-0.1s0.4-0.1,0.5-0.1c0.4-0.1,0.7-0.1,1.1-0.1c0.4,0,0.7-0.1,1.1,0
					c0.7,0,1.3,0.1,1.6,0.1s0.5,0,0.7,0.1c0.2,0,0.4,0,0.7,0.1c0.4,0.1,0.7,0.1,1.2,0.2c-0.4-0.1-0.7-0.4-1.1-0.6
					c-0.4-0.1-0.7-0.4-1.3-0.6c-0.3-0.1-0.9-0.3-1.6-0.4c-0.4-0.1-0.7-0.1-1.2-0.1c-0.2,0-0.4-0.1-0.7-0.1c-0.2,0-0.4,0-0.7,0
					c-0.2,0-0.4,0-0.7,0c-0.1,0-0.4,0.1-0.6,0.1c-0.4,0.1-0.7,0.1-1,0.1c-0.6,0.1-1,0.1-1,0.1s-0.4,0.1-1,0.2
					c-0.3,0.1-0.7,0.1-1,0.3c-0.1,0.1-0.4,0.1-0.5,0.2s-0.4,0.1-0.5,0.3c-0.1,0.1-0.4,0.1-0.6,0.3c-0.1,0.1-0.4,0.2-0.5,0.4
					c-0.1,0.1-0.4,0.2-0.5,0.4c-0.1,0.1-0.3,0.3-0.4,0.4c-0.6,0.4-1,1-1.2,1.2c-0.4,0.4-0.5,0.9-0.7,1.3
					C806.8,324.2,806.6,324.6,806.4,325z"/>
			</g>
			<g>
				<path class="st2" d="M914.8,319.6c0.7,0.1,1.3,0.4,2.2,0.7c0.4,0.1,1.9,0.7,3,1.4c0.6,0.3,1.1,0.7,1.5,0.9
					c0.4,0.3,0.7,0.4,0.7,0.4s0.2,0.1,0.6,0.4c0.4,0.3,0.8,0.7,1.3,1.2c0.4,0.5,0.7,1,1,1.6s0.4,1,0.4,1.2c0.1,0.4,0.2,0.7,0.3,1.1
					c0.1,0.1,0.1,0.4,0.1,0.5s0,0.4-0.1,0.5c0.1-0.7,0.5-1.3,0.5-2.3c0-0.3,0-0.8-0.1-1.5s-0.5-1.4-1-2.1c-0.4-0.7-1-1.2-1.3-1.5
					c-0.4-0.4-0.7-0.5-0.7-0.5s-0.3-0.2-0.7-0.5s-1.1-0.7-1.8-0.9c-0.7-0.2-1.4-0.5-2.1-0.7c-0.7-0.1-1.2-0.1-1.4-0.1
					C916.2,319.5,915.6,319.7,914.8,319.6z"/>
			</g>
		</g>
		<path class="st2" d="M899.7,292.9c-4-7.2-32.6-7.9-32.6-7.9c-3.3-0.1-29.2,2-32.6,7.9c0,0-4.2,7.9,1.9,15.1c0,0,24.9-4.3,30.7-4.4
			l0,0l0,0c5.8,0.1,30.7,4.4,30.7,4.4C904,300.8,899.7,292.9,899.7,292.9z"/>
		<path class="st6" d="M897,295.2c-4.5-4.8-29.9-5-29.9-5l0,0l0,0l0,0l0,0c0,0-25.5,0.2-29.9,5c0,0-1.3,5.1,1.1,8.2
			c0,0,24-4,28.8-4.2l0,0c4.7,0.2,28.8,4.2,28.8,4.2C898.3,300.3,897,295.2,897,295.2z"/>
		<path class="st2" d="M811.1,397.2c0,0,5.5,14.4,3.9,21.8l6.4,4.8C821.4,423.8,821.2,404.2,811.1,397.2z"/>
		<path class="st2" d="M865.9,422.1c0,0-15.4-3.9-30.8-17.7c0,0,7.6,14.7,30.8,20.6c23.2-5.8,30.8-20.6,30.8-20.6
			C881.3,418.3,865.9,422.1,865.9,422.1z"/>
		<path class="st2" d="M840.2,294.8c0,0-1.5,3.2,0,5.6C840.2,300.4,841.1,297.8,840.2,294.8z"/>
		<path class="st2" d="M842.5,294.3c0,0-1.5,3.2,0,5.6C842.5,299.8,843.3,297.4,842.5,294.3z"/>
		<path class="st2" d="M845.6,293.9c0,0-1.5,3.2,0,5.6C845.6,299.5,846.4,296.9,845.6,293.9z"/>
		<path class="st2" d="M891.8,294.8c0,0,0.9,3.4-1,5.5C890.7,300.3,890.4,297.7,891.8,294.8z"/>
		<path class="st2" d="M889.4,294.3c0,0,0.9,3.4-1,5.5C888.4,299.8,888.1,297.2,889.4,294.3z"/>
		<path class="st2" d="M894.4,295.5c0,0,0.9,3.4-1,5.5C893.4,301,893,298.3,894.4,295.5z"/>
	</g>
	<g class="st1">
		<path class="st2" d="M718.8,380c0,0-26.8,11.9-46.1,9.8c-19.3,2.2-46.1-9.8-46.1-9.8c-24.3-6-37,15.7-37,15.7s31.9,38.3,83,46.5
			c51.2-8.2,83-46.5,83-46.5S743,373.9,718.8,380z"/>
		<path class="st3" d="M749.3,395c-19.7-24.9-76.7,4.1-76.7,4.1s-57-29.1-76.7-4.1c0,0,29.2,32.5,76.7,41.3l0,0l0,0l0,0l0,0
			C720,427.4,749.3,395,749.3,395z"/>
		<path class="st2" d="M728.7,394.4c0,0-5.5,14.4-3.9,21.8l-6.4,4.8C718.4,421,718.6,401.4,728.7,394.4z"/>
		<g>
			<g>
				<path class="st2" d="M738.5,308.9c-2.8-2.9-6.5-4.4-11.1-4.4c-7.4,0-14.6,3.9-16.1,4.8c-3.6-0.5-6.2-3-7.5-7.2
					c-1-3.4-0.9-6.7-0.9-6.7v-0.3l-0.1-0.2c-6.2-10.8-12.9-16.3-19.6-16.3c-5.2,0-9,3.4-10.5,5c-1.5-1.6-5.3-5-10.5-5
					c-6.8,0-13.4,5.5-19.6,16.3l-0.1,0.2v0.3c0,0.1,0.1,3.3-0.9,6.7c-1.3,4.2-3.9,6.6-7.5,7.2c-1.5-0.9-8.7-4.8-16.1-4.8
					c-4.5,0-8.3,1.5-11.1,4.4c-4.5,4.6-6.6,12.8-6.2,24.3v0.1c0.1,0.1,2.9,13.5,12.2,29.5c8.5,14.7,24.3,34.7,51.4,46.5l7.7,2.2v0.5
					l0.9-0.2l0.9,0.2v-0.5l7.6-2.1l0.1-0.1c27-11.8,42.8-31.8,51.4-46.5c9.2-16,12.2-29.3,12.2-29.5v-0.1
					C745.1,321.7,743,313.6,738.5,308.9z"/>
				<path class="st4" d="M729,311.3c-10.9-1.1-30.8,14.6-30.8,14.6c3-4.7,9.4-9.9,9.4-9.9c-12.7-5.6-10.8-19.8-10.8-19.8
					c-10.3-15.9-19.4-8.6-19.4-8.6l-4.7,3.5l-4.7-3.5c0,0-9.1-7.3-19.4,8.5c0,0,1.9,14.2-10.8,19.8c0,0,6.3,5.2,9.4,9.9
					c0,0-19.8-15.7-30.8-14.6c0,0-12.3,3.6-10.6,22.1c0,0,3.2,10.3,10.3,23.3c1.1,1.9,10,16.7,25.2,18.6c0,0-6.5,2.4-14.6-2.3
					c10.7,14.1,25.8,27.8,46.1,33l0,0l0,0l0,0l0,0c20.3-5.2,35.5-18.9,46.1-33c-8.2,4.7-14.6,2.3-14.6,2.3
					c15.1-1.9,24.1-16.7,25.2-18.6c7.2-12.9,10.3-23.3,10.3-23.3C741.4,314.8,729,311.3,729,311.3z M725.5,324.6
					c-1,38.3-24.3,44.2-33.8,45c-1.5,3.6-4.8,10.9-8.5,12.9c0,0-3.6-4.8-3.6-13.1c-2.1-0.4-4.4-1.2-6.8-2.4l0,0l0,0l0,0l0,0l0,0l0,0
					c-2.5,1.3-4.8,2-6.8,2.4c-0.1,8.4-3.6,13.1-3.6,13.1c-3.8-2-7.1-9.4-8.5-12.9c-9.5-0.7-32.7-6.6-33.8-45
					c-0.7-0.5-1.3-0.7-3.2-0.9c0,0,6.4-3,10.4,2.4c0,0-3.2-1.3-5.3-1.1c0,0,5.4,19.3,25.5,29.1c-1.5-5.6-1.4-10.1-1.4-10.1
					c2.1-16.5,23.7-14.8,23.7-14.8l3,0.1l0,0c0.1,0,0.1,0,0.2,0c0.1,0,0.1,0,0.2,0l0,0l3-0.1c0,0,21.7-1.6,23.7,14.8
					c0,0,0.1,4.4-1.4,10.1c20-9.8,25.5-29.1,25.5-29.1c-2.2-0.1-5.3,1.1-5.3,1.1c4-5.4,10.4-2.4,10.4-2.4
					C726.8,324,726.1,324.1,725.5,324.6z"/>
				<path class="st4" d="M694.6,343.5c-1.7-9.5-17.4-10.8-17.4-10.8l-4.4-0.2l0,0h-0.1h-0.1l0,0l-4.4,0.2c0,0-15.7,1.3-17.4,10.8
					c-1,5.8,0.1,13.3,6.3,21.7c0,0,4.4,4,15.7-3.8c11.3,7.8,15.7,3.8,15.7,3.8C694.6,356.8,695.6,349.2,694.6,343.5z"/>
				<path class="st2" d="M666.9,296.8c0,0-4.5-5.3-11.5-0.5c0,0,6.3-1.3,8.3,1.9c0,0-12.8-5.4-11.9,16l1,5.3c0,0,11,4,15.4,2.5
					C668.2,322,671,305.7,666.9,296.8z"/>
				<path class="st5" d="M665.1,301.7c0,0-9.1-5.6-10.9,8.3c0,0,0.1,5.6,0.9,6.8l10.6,2.4C665.6,319.3,667.8,304.8,665.1,301.7z"/>
				<path class="st2" d="M668.7,314c-0.2,4.4-2.4,7.8-5,7.7c-2.5-0.1-4.4-3.8-4.2-8.2c0.2-4.4,2.4-7.8,5-7.7
					C667,306.1,668.8,309.7,668.7,314z"/>
				<path class="st5" d="M648.6,358.8c-10.2-2.7-18-11.9-22.3-18c2.7,5.1,6.6,11.7,10.3,14.9c0,0-6.9-4.7-12.2-14.8
					c8.2,24.3,27.5,25.7,27.5,25.7L648.6,358.8z"/>
				
					<ellipse transform="matrix(0.9802 -0.1978 0.1978 0.9802 -56.2361 137.8056)" class="st2" cx="661.7" cy="350.4" rx="4" ry="7.1"/>
				<path class="st5" d="M662.5,369.3c0,0-1,0.2-2.2,0.4l-0.2,5c-0.5-1.3-1.1-3.6-1.3-4.9c-0.7,0.1-1.3,0.1-1.9-0.1
					c0,0,2.1,6.2,4.5,9.1C661.3,378.9,663,372.4,662.5,369.3z"/>
				<path class="st2" d="M660.1,359.7c0,0,5.4,3.3,7.5-3.9C667.6,355.8,666.5,365,660.1,359.7z"/>
				<path class="st2" d="M678.5,296.8c0,0,4.5-5.3,11.5-0.5c0,0-6.3-1.3-8.3,1.9c0,0,12.8-5.4,11.9,16l-1,5.3c0,0-11,4-15.4,2.5
					C677.1,322,674.3,305.7,678.5,296.8z"/>
				<path class="st5" d="M680.3,301.7c0,0,9.1-5.6,10.9,8.3c0,0-0.1,5.6-0.9,6.8l-10.6,2.4C679.7,319.3,677.5,304.8,680.3,301.7z"/>
				<path class="st2" d="M676.7,314c0.2,4.4,2.4,7.8,5,7.7c2.5-0.1,4.4-3.8,4.2-8.2c-0.2-4.4-2.4-7.8-5-7.7
					C678.3,306.1,676.4,309.7,676.7,314z"/>
				<path class="st5" d="M696.7,358.8c10.2-2.7,18-11.9,22.3-18c-2.7,5.1-6.6,11.7-10.3,14.9c0,0,6.9-4.7,12.2-14.8
					c-8.2,24.3-27.5,25.7-27.5,25.7L696.7,358.8z"/>
				
					<ellipse transform="matrix(0.1978 -0.9802 0.9802 0.1978 204.7418 951.2959)" class="st2" cx="683.6" cy="350.6" rx="7.1" ry="4"/>
				<path class="st5" d="M682.9,369.3c0,0,1,0.2,2.2,0.4l0.2,5c0.5-1.3,1.1-3.6,1.3-4.9c0.7,0.1,1.3,0.1,1.9-0.1
					c0,0-2.1,6.2-4.5,9.1C684,378.9,682.3,372.4,682.9,369.3z"/>
				<path class="st2" d="M685.2,359.7c0,0-5.4,3.3-7.5-3.9C677.7,355.8,678.8,365,685.2,359.7z"/>
			</g>
			<g>
				<path class="st2" d="M652.5,384.2c3,1.4,4.8,2.9,8.7,4.2c0.1,0.1,0.4,0.1,0.6,0.1c0.2,0.1,0.5,0.1,0.8,0.2s0.7,0.1,1.1,0.3
					c0.4,0.1,0.9,0.2,1.5,0.3c0.4,0.1,0.9,0.1,1.5,0.3c0.6,0.1,1.3,0.1,1.8,0.2c0.6,0.1,1.1,0.1,1.5,0.1c0.4,0.1,0.7,0.1,0.7,0.1
					s0.1,0,0.5,0.1c0.3,0.1,0.7,0,1.3,0.1c0.5,0,1.1,0,1.6,0c0.5-0.1,1.1-0.1,1.6-0.1c0.7-0.1,1.5-0.1,2.1-0.2
					c0.7-0.1,1.2-0.1,1.7-0.3c0.5-0.1,0.9-0.1,1.3-0.3c0.4-0.1,0.7-0.1,0.9-0.2c2-0.5,3.4-1.3,4.7-1.9c0.7-0.3,1.3-0.7,2-1
					c0.7-0.4,1.3-0.7,2.1-1c-0.7,0.3-1.5,0.5-2.2,0.7c-0.7,0.1-1.4,0.3-2.2,0.4c-1.5,0.3-3,0.5-4.9,0.7c-0.2,0.1-0.5,0.1-0.9,0.1
					c-0.4,0.1-0.7,0.1-1.3,0.1c-0.4,0.1-1,0.1-1.6,0.1c-0.6,0.1-1.3,0.1-2,0.1c-0.4,0-0.9,0.1-1.5,0.1c-0.5,0-1,0-1.6,0
					s-0.9,0-1.3,0c-0.4,0-0.5-0.1-0.5-0.1s-0.2,0-0.6-0.1c-0.4-0.1-0.9-0.1-1.4-0.1c-0.5-0.1-1.1-0.1-1.7-0.1
					c-0.5-0.1-1-0.1-1.5-0.1c-0.5-0.1-1-0.1-1.5-0.2c-0.4-0.1-0.7-0.1-1.1-0.1c-0.3-0.1-0.5-0.1-0.7-0.1c-0.2-0.1-0.4-0.1-0.5-0.1
					c-1.9-0.4-3.4-0.7-4.8-1c-0.7-0.1-1.4-0.3-2.2-0.5C653.9,384.8,653.2,384.6,652.5,384.2z"/>
			</g>
			<g>
				<path class="st2" d="M663,394.4c0.4,0.2,0.7,0.5,1,0.8s0.7,0.6,1.1,0.9c0.1,0.1,0.3,0.1,0.6,0.3c0.1,0.1,0.3,0.1,0.4,0.2
					c0.1,0.1,0.3,0.1,0.5,0.1c0.4,0.1,0.7,0.3,1.1,0.4c0.2,0.1,0.4,0.1,0.7,0.1s0.4,0.1,0.7,0.1c0.2,0.1,0.4,0.1,0.7,0.1
					c0.1,0,0.4,0.1,0.6,0.1c0.4,0,0.7,0.1,1,0.1s0.5,0,0.7-0.1c0.1,0,0.3,0,0.3,0s0.4-0.1,1-0.1c0.6-0.1,1.3-0.2,2.2-0.4
					c0.8-0.1,1.6-0.4,2.3-0.7s1.3-0.5,1.5-0.7c1-0.5,1.5-1,2.3-1.3c-0.9,0.2-1.6-0.1-2.7,0.1c-0.3,0-0.9,0.1-1.6,0.1
					c-0.7,0.1-1.5,0.1-2.3,0.2c-0.7,0.1-1.5,0.1-2,0.2s-0.9,0.1-0.9,0.1s-0.1,0-0.2,0s-0.4,0-0.7,0.1s-0.6,0.1-0.9,0.1
					c-0.1,0-0.4,0-0.5,0s-0.4,0-0.5,0s-0.4,0-0.5,0s-0.4,0-0.5-0.1c-0.4,0-0.7-0.1-1-0.1c-0.1,0-0.3-0.1-0.4-0.1
					c-0.1,0-0.3-0.1-0.4-0.1c-0.3-0.1-0.4-0.1-0.6-0.1c-0.5-0.1-1-0.1-1.3-0.1C663.8,394.7,663.4,394.6,663,394.4z"/>
			</g>
			<g>
				<path class="st2" d="M636.2,314.6c0.3,0.1,0.5,0.3,0.7,0.5c0.2,0.1,0.4,0.4,0.7,0.7c0.1,0.1,0.4,0.4,0.9,0.7
					c0.4,0.3,0.8,0.7,1.3,1c0.4,0.3,0.9,0.7,1.1,0.9c0.3,0.2,0.5,0.4,0.5,0.4s0.1,0.1,0.5,0.4c0.3,0.2,0.7,0.5,1.2,0.9
					c0.9,0.7,2,1.3,2.3,1.6c0.7,0.4,1.2,0.4,1.7,0.9c-0.4-0.4-0.6-0.9-1.1-1.6c-0.1-0.1-0.4-0.5-0.7-0.9s-0.7-0.8-1.1-1.3
					c-0.4-0.4-0.8-0.7-1.1-1s-0.5-0.4-0.5-0.4s-0.2-0.1-0.5-0.4c-0.3-0.2-0.7-0.6-1.3-0.9c-0.5-0.3-1-0.6-1.6-0.7
					c-0.5-0.1-0.9-0.3-1.1-0.4C637.3,314.8,636.8,314.9,636.2,314.6z"/>
			</g>
			<g>
				<path class="st2" d="M698.3,319.9c0.3-0.1,0.6-0.3,0.9-0.4c0.3-0.1,0.7-0.2,1-0.4c0.2-0.1,0.7-0.2,1.1-0.4
					c0.5-0.2,1.1-0.4,1.7-0.7c0.5-0.2,1.1-0.4,1.5-0.5s0.7-0.2,0.7-0.2l0.1-0.1c0.1-0.1,0.3-0.1,0.5-0.1c0.1-0.1,0.4-0.1,0.7-0.2
					c0.1-0.1,0.3-0.1,0.4-0.1c0.1-0.1,0.3-0.1,0.4-0.1c0.3-0.1,0.6-0.1,0.9-0.3c0.1-0.1,0.3-0.1,0.4-0.1c0.1-0.1,0.3-0.1,0.4-0.1
					c0.5-0.1,1-0.3,1.2-0.3c0.4-0.1,0.7-0.2,1-0.3s0.6-0.1,1-0.2c-0.7,0-1.2-0.3-2.1-0.3c-0.2,0-0.7,0-1.3,0c-0.1,0-0.3,0-0.4,0
					c-0.1,0-0.3,0.1-0.4,0.1c-0.3,0.1-0.7,0.1-1,0.1c-0.1,0.1-0.3,0.1-0.4,0.1c-0.1,0.1-0.3,0.1-0.4,0.1c-0.3,0.1-0.5,0.1-0.7,0.2
					s-0.4,0.1-0.5,0.1c-0.1,0.1-0.1,0.1-0.1,0.1s-0.3,0.1-0.7,0.3c-0.4,0.1-1,0.4-1.6,0.7c-0.5,0.3-1.2,0.7-1.6,1s-0.8,0.7-1,0.8
					C699.1,319,698.8,319.5,698.3,319.9z"/>
			</g>
			<g>
				<path class="st2" d="M612,322.2c0.2-0.4,0.5-0.7,0.8-0.9c0.1-0.1,0.3-0.3,0.5-0.4c0.1-0.1,0.3-0.3,0.5-0.4
					c0.1-0.1,0.3-0.1,0.5-0.4c0.1-0.1,0.4-0.3,0.7-0.4c0.1-0.1,0.3-0.1,0.4-0.3c0.1-0.1,0.3-0.1,0.5-0.2c0.1-0.1,0.3-0.1,0.5-0.2
					c0.1-0.1,0.4-0.1,0.5-0.1c0.1-0.1,0.4-0.1,0.5-0.1c0.1-0.1,0.4-0.1,0.5-0.1c0.3-0.1,0.7-0.1,0.9-0.3c0.5-0.1,0.9-0.1,0.9-0.1
					s0.3-0.1,0.9-0.1c0.3-0.1,0.6-0.1,0.9-0.1c0.1,0,0.4-0.1,0.5-0.1s0.4-0.1,0.5-0.1c0.4-0.1,0.7-0.1,1.1-0.1s0.7-0.1,1.1,0
					c0.7,0,1.3,0.1,1.6,0.1s0.5,0,0.7,0.1c0.2,0,0.4,0,0.7,0.1c0.4,0.1,0.7,0.1,1.2,0.2c-0.4-0.1-0.7-0.4-1.1-0.6
					c-0.4-0.1-0.7-0.4-1.3-0.6c-0.3-0.1-0.9-0.3-1.6-0.4c-0.4-0.1-0.7-0.1-1.2-0.1c-0.2,0-0.4-0.1-0.7-0.1s-0.4,0-0.7,0
					s-0.4,0-0.7,0c-0.1,0-0.4,0.1-0.6,0.1c-0.4,0.1-0.7,0.1-1,0.1c-0.6,0.1-1,0.1-1,0.1s-0.4,0.1-1,0.2c-0.3,0.1-0.7,0.1-1,0.3
					c-0.1,0.1-0.4,0.1-0.5,0.2s-0.4,0.1-0.5,0.3c-0.1,0.1-0.4,0.1-0.6,0.3c-0.1,0.1-0.4,0.2-0.5,0.4s-0.4,0.2-0.5,0.4
					c-0.1,0.1-0.3,0.3-0.4,0.4c-0.6,0.4-1,1-1.2,1.2c-0.4,0.4-0.5,0.9-0.7,1.3C612.3,321.4,612.2,321.8,612,322.2z"/>
			</g>
			<g>
				<path class="st2" d="M720.3,316.8c0.7,0.1,1.3,0.4,2.2,0.7c0.4,0.1,1.9,0.7,3,1.4c0.6,0.3,1.1,0.7,1.5,0.9
					c0.4,0.3,0.7,0.4,0.7,0.4s0.2,0.1,0.6,0.4c0.4,0.3,0.8,0.7,1.3,1.2c0.4,0.5,0.7,1,1,1.6c0.3,0.5,0.4,1,0.4,1.2
					c0.1,0.4,0.2,0.7,0.3,1.1c0.1,0.1,0.1,0.4,0.1,0.5s0,0.4-0.1,0.5c0.1-0.7,0.5-1.3,0.5-2.3c0-0.3,0-0.8-0.1-1.5s-0.5-1.4-1-2.1
					c-0.4-0.7-1-1.2-1.3-1.5c-0.4-0.4-0.7-0.5-0.7-0.5s-0.3-0.2-0.7-0.5s-1.1-0.7-1.8-0.9c-0.7-0.2-1.4-0.5-2.1-0.7
					c-0.7-0.1-1.2-0.1-1.4-0.1C721.7,316.7,721.1,316.9,720.3,316.8z"/>
			</g>
		</g>
		<path class="st2" d="M705.3,290.1c-4-7.2-32.6-7.9-32.6-7.9c-3.3-0.1-29.2,2-32.6,7.9c0,0-4.2,7.9,1.9,15.1c0,0,24.9-4.3,30.7-4.4
			l0,0l0,0c5.8,0.1,30.7,4.4,30.7,4.4C709.6,298,705.3,290.1,705.3,290.1z"/>
		<path class="st6" d="M702.5,292.3c-4.5-4.8-29.9-5-29.9-5l0,0l0,0l0,0l0,0c0,0-25.5,0.2-29.9,5c0,0-1.3,5.1,1.1,8.2
			c0,0,24-4,28.8-4.2l0,0c4.7,0.2,28.8,4.2,28.8,4.2C703.9,297.5,702.5,292.3,702.5,292.3z"/>
		<path class="st2" d="M616.6,394.4c0,0,5.5,14.4,3.9,21.8l6.4,4.8C626.9,421,626.8,401.4,616.6,394.4z"/>
		<path class="st2" d="M671.4,419.3c0,0-15.4-3.9-30.8-17.7c0,0,7.6,14.7,30.8,20.6c23.2-5.8,30.8-20.6,30.8-20.6
			C686.8,415.5,671.4,419.3,671.4,419.3z"/>
		<path class="st2" d="M645.8,292c0,0-1.5,3.2,0,5.6C645.8,297.5,646.6,295,645.8,292z"/>
		<path class="st2" d="M648,291.5c0,0-1.5,3.2,0,5.6C648,297,648.9,294.6,648,291.5z"/>
		<path class="st2" d="M651.2,291.1c0,0-1.5,3.2,0,5.6C651.2,296.6,652,294.1,651.2,291.1z"/>
		<path class="st2" d="M697.3,292c0,0,0.9,3.4-1,5.5C696.3,297.5,695.9,294.9,697.3,292z"/>
		<path class="st2" d="M694.9,291.5c0,0,0.9,3.4-1,5.5C694,297,693.5,294.3,694.9,291.5z"/>
		<path class="st2" d="M699.9,292.7c0,0,0.9,3.4-1,5.5C699,298.2,698.5,295.5,699.9,292.7z"/>
	</g>
	<g class="st1">
		<path class="st2" d="M515.8,380c0,0-26.8,11.9-46.1,9.8c-19.3,2.2-46.1-9.8-46.1-9.8c-24.3-6-37,15.7-37,15.7s31.8,38.2,83,46.5
			c51.2-8.2,83-46.5,83-46.5S540.1,373.9,515.8,380z"/>
		<path class="st3" d="M546.4,395c-19.7-24.9-76.7,4.1-76.7,4.1s-57-29.1-76.7-4.1c0,0,29.2,32.5,76.7,41.3l0,0l0,0l0,0l0,0
			C517.1,427.4,546.4,395,546.4,395z"/>
		<path class="st2" d="M525.8,394.4c0,0-5.5,14.4-3.9,21.8l-6.4,4.8C515.4,421,515.7,401.4,525.8,394.4z"/>
		<g>
			<g>
				<path class="st2" d="M535.5,308.9c-2.8-2.9-6.5-4.4-11.1-4.4c-7.4,0-14.6,3.9-16.1,4.8c-3.6-0.5-6.2-3-7.5-7.2
					c-1-3.4-0.9-6.7-0.9-6.7v-0.3l-0.1-0.2c-6.2-10.8-12.9-16.3-19.6-16.3c-5.2,0-9,3.4-10.5,5c-1.5-1.6-5.3-5-10.5-5
					c-6.8,0-13.4,5.5-19.6,16.3l-0.1,0.2v0.3c0,0.1,0.1,3.3-0.9,6.7c-1.3,4.2-3.9,6.6-7.5,7.2c-1.5-0.9-8.7-4.8-16.1-4.8
					c-4.5,0-8.3,1.5-11.1,4.4c-4.5,4.6-6.6,12.8-6.2,24.3v0.1c0.1,0.1,2.9,13.5,12.2,29.5c8.5,14.7,24.3,34.7,51.4,46.5l7.7,2.2v0.5
					l0.9-0.2l0.9,0.2v-0.5l7.6-2.1l0.1-0.1c27-11.8,42.8-31.8,51.4-46.5c9.2-16,12.2-29.3,12.2-29.5v-0.1
					C542.2,321.7,540.1,313.6,535.5,308.9z"/>
				<path class="st4" d="M526.1,311.3c-10.9-1.1-30.8,14.6-30.8,14.6c3-4.7,9.4-9.9,9.4-9.9c-12.8-5.6-10.8-19.8-10.8-19.8
					c-10.3-15.9-19.4-8.6-19.4-8.6l-4.7,3.5l-4.7-3.5c0,0-9.1-7.3-19.4,8.5c0,0,1.9,14.2-10.8,19.8c0,0,6.3,5.2,9.4,9.9
					c0,0-19.8-15.7-30.8-14.6c0,0-12.3,3.6-10.6,22.1c0,0,3.2,10.3,10.3,23.3c1.1,1.9,10,16.7,25.2,18.6c0,0-6.5,2.4-14.6-2.3
					c10.7,14.1,25.8,27.8,46.1,33l0,0l0,0l0,0l0,0c20.3-5.2,35.5-18.9,46.1-33c-8.2,4.7-14.6,2.3-14.6,2.3
					c15.1-1.9,24.1-16.7,25.2-18.6c7.2-12.9,10.3-23.3,10.3-23.3C538.4,314.8,526.1,311.3,526.1,311.3z M522.6,324.6
					c-1,38.3-24.3,44.2-33.8,45c-1.5,3.6-4.8,10.9-8.5,12.9c0,0-3.6-4.8-3.6-13.1c-2.1-0.4-4.4-1.2-6.8-2.4l0,0l0,0l0,0l0,0l0,0l0,0
					c-2.5,1.3-4.8,2-6.8,2.4c-0.1,8.4-3.6,13.1-3.6,13.1c-3.8-2-7.1-9.4-8.5-12.9c-9.5-0.7-32.7-6.6-33.8-45
					c-0.7-0.5-1.3-0.7-3.2-0.9c0,0,6.4-3,10.4,2.4c0,0-3.2-1.3-5.3-1.1c0,0,5.4,19.3,25.5,29.1c-1.5-5.6-1.4-10.1-1.4-10.1
					c2.1-16.5,23.7-14.8,23.7-14.8l3,0.1l0,0c0.1,0,0.1,0,0.2,0s0.1,0,0.2,0l0,0l3-0.1c0,0,21.7-1.6,23.7,14.8c0,0,0.1,4.4-1.4,10.1
					c20-9.8,25.5-29.1,25.5-29.1c-2.2-0.1-5.3,1.1-5.3,1.1c4-5.4,10.4-2.4,10.4-2.4C523.9,324,523.2,324.1,522.6,324.6z"/>
				<path class="st4" d="M491.7,343.5c-1.7-9.5-17.4-10.8-17.4-10.8l-4.4-0.2l0,0h-0.1h-0.1l0,0l-4.4,0.2c0,0-15.7,1.3-17.4,10.8
					c-1,5.8,0.1,13.3,6.3,21.7c0,0,4.4,4,15.7-3.8c11.3,7.8,15.7,3.8,15.7,3.8C491.6,356.8,492.7,349.2,491.7,343.5z"/>
				<path class="st2" d="M463.9,296.8c0,0-4.5-5.3-11.5-0.5c0,0,6.3-1.3,8.3,1.9c0,0-12.8-5.4-11.9,16l1,5.3c0,0,11,4,15.4,2.5
					C465.3,322,468.1,305.7,463.9,296.8z"/>
				<path class="st5" d="M462.2,301.7c0,0-9.1-5.6-10.9,8.3c0,0,0.1,5.6,0.9,6.8l10.6,2.4C462.7,319.3,464.9,304.8,462.2,301.7z"/>
				<path class="st2" d="M465.7,314c-0.2,4.4-2.4,7.8-5,7.7c-2.5-0.1-4.4-3.8-4.2-8.2s2.4-7.8,5-7.7
					C464,306.1,465.9,309.7,465.7,314z"/>
				<path class="st5" d="M445.7,358.8c-10.2-2.7-18-11.9-22.3-18c2.7,5.1,6.6,11.7,10.3,14.9c0,0-6.9-4.7-12.2-14.8
					c8.2,24.3,27.5,25.7,27.5,25.7L445.7,358.8z"/>
				
					<ellipse transform="matrix(0.9802 -0.1978 0.1978 0.9802 -60.248 97.6524)" class="st2" cx="458.7" cy="350.4" rx="4" ry="7.1"/>
				<path class="st5" d="M459.6,369.3c0,0-1,0.2-2.2,0.4l-0.2,5c-0.5-1.3-1.1-3.6-1.3-4.9c-0.7,0.1-1.3,0.1-1.9-0.1
					c0,0,2.1,6.2,4.5,9.1C458.4,378.9,460.1,372.4,459.6,369.3z"/>
				<path class="st2" d="M457.1,359.7c0,0,5.4,3.3,7.5-3.9C464.6,355.8,463.6,365,457.1,359.7z"/>
				<path class="st2" d="M475.5,296.8c0,0,4.5-5.3,11.5-0.5c0,0-6.3-1.3-8.3,1.9c0,0,12.8-5.4,11.9,16l-1,5.3c0,0-11,4-15.4,2.5
					C474.1,322,471.4,305.7,475.5,296.8z"/>
				<path class="st5" d="M477.3,301.7c0,0,9.1-5.6,10.9,8.3c0,0-0.1,5.6-0.9,6.8l-10.6,2.4C476.7,319.3,474.6,304.8,477.3,301.7z"/>
				<path class="st2" d="M473.7,314c0.2,4.4,2.4,7.8,5,7.7c2.5-0.1,4.4-3.8,4.2-8.2s-2.4-7.8-5-7.7
					C475.4,306.1,473.5,309.7,473.7,314z"/>
				<path class="st5" d="M493.8,358.8c10.2-2.7,18-11.9,22.3-18c-2.7,5.1-6.6,11.7-10.3,14.9c0,0,6.9-4.7,12.2-14.8
					c-8.2,24.3-27.5,25.7-27.5,25.7L493.8,358.8z"/>
				
					<ellipse transform="matrix(0.1978 -0.9802 0.9802 0.1978 42.0715 752.2346)" class="st2" cx="480.6" cy="350.4" rx="7.1" ry="4"/>
				<path class="st5" d="M479.9,369.3c0,0,1,0.2,2.2,0.4l0.2,5c0.5-1.3,1.1-3.6,1.3-4.9c0.7,0.1,1.3,0.1,1.9-0.1
					c0,0-2.1,6.2-4.5,9.1C481.1,378.9,479.4,372.4,479.9,369.3z"/>
				<path class="st2" d="M482.3,359.7c0,0-5.4,3.3-7.5-3.9C474.8,355.8,475.8,365,482.3,359.7z"/>
			</g>
			<g>
				<path class="st2" d="M449.5,384.2c3,1.4,4.8,2.9,8.7,4.2c0.1,0.1,0.4,0.1,0.6,0.1c0.2,0.1,0.5,0.1,0.8,0.2s0.7,0.1,1.1,0.3
					c0.4,0.1,0.9,0.2,1.5,0.3c0.4,0.1,0.9,0.1,1.5,0.3c0.6,0.1,1.3,0.1,1.8,0.2c0.6,0.1,1.1,0.1,1.5,0.1c0.4,0.1,0.7,0.1,0.7,0.1
					s0.1,0,0.5,0.1c0.3,0.1,0.7,0,1.3,0.1c0.5,0,1.1,0,1.6,0c0.5-0.1,1.1-0.1,1.6-0.1c0.7-0.1,1.5-0.1,2.1-0.2
					c0.7-0.1,1.2-0.1,1.7-0.3c0.5-0.1,0.9-0.1,1.3-0.3c0.4-0.1,0.7-0.1,0.9-0.2c2-0.5,3.4-1.3,4.7-1.9c0.7-0.3,1.3-0.7,2-1
					c0.7-0.4,1.3-0.7,2.1-1c-0.7,0.3-1.5,0.5-2.2,0.7c-0.7,0.1-1.4,0.3-2.2,0.4c-1.5,0.3-3,0.5-4.9,0.7c-0.2,0.1-0.5,0.1-0.9,0.1
					c-0.4,0.1-0.7,0.1-1.3,0.1c-0.4,0.1-1,0.1-1.6,0.1c-0.6,0.1-1.3,0.1-2,0.1c-0.4,0-0.9,0.1-1.5,0.1c-0.5,0-1,0-1.6,0
					s-0.9,0-1.3,0s-0.5-0.1-0.5-0.1s-0.2,0-0.6-0.1s-0.9-0.1-1.4-0.1c-0.5-0.1-1.1-0.1-1.7-0.1c-0.5-0.1-1-0.1-1.5-0.1
					c-0.5-0.1-1-0.1-1.5-0.2s-0.7-0.1-1.1-0.1c-0.3-0.1-0.5-0.1-0.7-0.1s-0.4-0.1-0.5-0.1c-1.9-0.4-3.4-0.7-4.8-1
					c-0.7-0.1-1.4-0.3-2.2-0.5C451,384.8,450.3,384.6,449.5,384.2z"/>
			</g>
			<g>
				<path class="st2" d="M460.1,394.4c0.4,0.2,0.7,0.5,1,0.8s0.7,0.6,1.1,0.9c0.1,0.1,0.3,0.1,0.6,0.3c0.1,0.1,0.3,0.1,0.4,0.2
					s0.3,0.1,0.5,0.1c0.4,0.1,0.7,0.3,1.1,0.4c0.2,0.1,0.4,0.1,0.7,0.1c0.2,0.1,0.4,0.1,0.7,0.1c0.2,0.1,0.4,0.1,0.7,0.1
					c0.1,0,0.4,0.1,0.6,0.1c0.4,0,0.7,0.1,1,0.1s0.5,0,0.7-0.1c0.1,0,0.3,0,0.3,0s0.4-0.1,1-0.1c0.6-0.1,1.3-0.2,2.2-0.4
					c0.8-0.1,1.6-0.4,2.3-0.7c0.7-0.3,1.3-0.5,1.5-0.7c1-0.5,1.5-1,2.3-1.3c-0.9,0.2-1.6-0.1-2.7,0.1c-0.3,0-0.9,0.1-1.6,0.1
					c-0.7,0.1-1.5,0.1-2.3,0.2c-0.7,0.1-1.5,0.1-2,0.2s-0.9,0.1-0.9,0.1s-0.1,0-0.2,0s-0.4,0-0.7,0.1c-0.3,0.1-0.6,0.1-0.9,0.1
					c-0.1,0-0.4,0-0.5,0s-0.4,0-0.5,0s-0.4,0-0.5,0s-0.4,0-0.5-0.1c-0.4,0-0.7-0.1-1-0.1c-0.1,0-0.3-0.1-0.4-0.1s-0.3-0.1-0.4-0.1
					c-0.3-0.1-0.4-0.1-0.6-0.1c-0.5-0.1-1-0.1-1.3-0.1C460.9,394.7,460.5,394.6,460.1,394.4z"/>
			</g>
			<g>
				<path class="st2" d="M433.2,314.6c0.3,0.1,0.5,0.3,0.7,0.5c0.2,0.1,0.4,0.4,0.7,0.7c0.1,0.1,0.4,0.4,0.9,0.7
					c0.4,0.3,0.8,0.7,1.3,1c0.4,0.3,0.9,0.7,1.1,0.9c0.3,0.2,0.5,0.4,0.5,0.4s0.1,0.1,0.5,0.4c0.3,0.2,0.7,0.5,1.2,0.9
					c0.9,0.7,2,1.3,2.3,1.6c0.7,0.4,1.2,0.4,1.7,0.9c-0.4-0.4-0.6-0.9-1.1-1.6c-0.1-0.1-0.4-0.5-0.7-0.9c-0.3-0.4-0.7-0.8-1.1-1.3
					c-0.4-0.4-0.8-0.7-1.1-1c-0.3-0.3-0.5-0.4-0.5-0.4s-0.2-0.1-0.5-0.4c-0.3-0.2-0.7-0.6-1.3-0.9c-0.5-0.3-1-0.6-1.6-0.7
					c-0.5-0.1-0.9-0.3-1.1-0.4C434.3,314.8,433.8,314.9,433.2,314.6z"/>
			</g>
			<g>
				<path class="st2" d="M495.4,319.9c0.3-0.1,0.6-0.3,0.9-0.4s0.7-0.2,1-0.4c0.2-0.1,0.7-0.2,1.1-0.4c0.5-0.2,1.1-0.4,1.7-0.7
					c0.5-0.2,1.1-0.4,1.5-0.5s0.7-0.2,0.7-0.2l0.1-0.1c0.1-0.1,0.3-0.1,0.5-0.1c0.1-0.1,0.4-0.1,0.7-0.2c0.1-0.1,0.3-0.1,0.4-0.1
					s0.3-0.1,0.4-0.1c0.3-0.1,0.6-0.1,0.9-0.3c0.1-0.1,0.3-0.1,0.4-0.1c0.1-0.1,0.3-0.1,0.4-0.1c0.5-0.1,1-0.3,1.2-0.3
					c0.4-0.1,0.7-0.2,1-0.3s0.6-0.1,1-0.2c-0.7,0-1.2-0.3-2.1-0.3c-0.2,0-0.7,0-1.3,0c-0.1,0-0.3,0-0.4,0s-0.3,0.1-0.4,0.1
					c-0.3,0.1-0.7,0.1-1,0.1c-0.1,0.1-0.3,0.1-0.4,0.1c-0.1,0.1-0.3,0.1-0.4,0.1c-0.3,0.1-0.5,0.1-0.7,0.2s-0.4,0.1-0.5,0.1
					c-0.1,0.1-0.1,0.1-0.1,0.1s-0.3,0.1-0.7,0.3c-0.4,0.1-1,0.4-1.6,0.7c-0.5,0.3-1.2,0.7-1.6,1s-0.8,0.7-1,0.8
					C496.1,319,495.9,319.5,495.4,319.9z"/>
			</g>
			<g>
				<path class="st2" d="M409,322.2c0.2-0.4,0.5-0.7,0.8-0.9c0.1-0.1,0.3-0.3,0.5-0.4c0.1-0.1,0.3-0.3,0.5-0.4
					c0.1-0.1,0.3-0.1,0.5-0.4c0.1-0.1,0.4-0.3,0.7-0.4c0.1-0.1,0.3-0.1,0.4-0.3c0.1-0.1,0.3-0.1,0.5-0.2c0.1-0.1,0.3-0.1,0.5-0.2
					c0.1-0.1,0.4-0.1,0.5-0.1c0.1-0.1,0.4-0.1,0.5-0.1c0.1-0.1,0.4-0.1,0.5-0.1c0.3-0.1,0.7-0.1,0.9-0.3c0.5-0.1,0.9-0.1,0.9-0.1
					s0.3-0.1,0.9-0.1c0.3-0.1,0.6-0.1,0.9-0.1c0.1,0,0.4-0.1,0.5-0.1s0.4-0.1,0.5-0.1c0.4-0.1,0.7-0.1,1.1-0.1s0.7-0.1,1.1,0
					c0.7,0,1.3,0.1,1.6,0.1s0.5,0,0.7,0.1c0.2,0,0.4,0,0.7,0.1c0.4,0.1,0.7,0.1,1.2,0.2c-0.4-0.1-0.7-0.4-1.1-0.6
					c-0.4-0.1-0.7-0.4-1.3-0.6c-0.3-0.1-0.9-0.3-1.6-0.4c-0.4-0.1-0.7-0.1-1.2-0.1c-0.2,0-0.4-0.1-0.7-0.1s-0.4,0-0.7,0
					s-0.4,0-0.7,0c-0.1,0-0.4,0.1-0.6,0.1c-0.4,0.1-0.7,0.1-1,0.1c-0.6,0.1-1,0.1-1,0.1s-0.4,0.1-1,0.2c-0.3,0.1-0.7,0.1-1,0.3
					c-0.1,0.1-0.4,0.1-0.5,0.2s-0.4,0.1-0.5,0.3c-0.1,0.1-0.4,0.1-0.6,0.3c-0.1,0.1-0.4,0.2-0.5,0.4s-0.4,0.2-0.5,0.4
					c-0.1,0.1-0.3,0.3-0.4,0.4c-0.6,0.4-1,1-1.2,1.2c-0.4,0.4-0.5,0.9-0.7,1.3C409.4,321.4,409.2,321.8,409,322.2z"/>
			</g>
			<g>
				<path class="st2" d="M517.4,316.8c0.7,0.1,1.3,0.4,2.2,0.7c0.4,0.1,1.9,0.7,3,1.4c0.6,0.3,1.1,0.7,1.5,0.9
					c0.4,0.3,0.7,0.4,0.7,0.4s0.2,0.1,0.6,0.4c0.4,0.3,0.8,0.7,1.3,1.2c0.4,0.5,0.7,1,1,1.6c0.3,0.5,0.4,1,0.4,1.2
					c0.1,0.4,0.2,0.7,0.3,1.1c0.1,0.1,0.1,0.4,0.1,0.5s0,0.4-0.1,0.5c0.1-0.7,0.5-1.3,0.5-2.3c0-0.3,0-0.8-0.1-1.5s-0.5-1.4-1-2.1
					c-0.4-0.7-1-1.2-1.3-1.5c-0.4-0.4-0.7-0.5-0.7-0.5s-0.3-0.2-0.7-0.5s-1.1-0.7-1.8-0.9c-0.7-0.3-1.4-0.5-2.1-0.7
					s-1.2-0.1-1.4-0.1C518.8,316.7,518.2,316.9,517.4,316.8z"/>
			</g>
		</g>
		<path class="st2" d="M502.3,290.1c-4-7.2-32.6-7.9-32.6-7.9c-3.3-0.1-29.2,2-32.6,7.9c0,0-4.2,7.9,1.9,15.1c0,0,24.9-4.3,30.7-4.4
			l0,0l0,0c5.8,0.1,30.7,4.4,30.7,4.4C506.6,298,502.3,290.1,502.3,290.1z"/>
		<path class="st6" d="M499.6,292.3c-4.5-4.8-29.9-5-29.9-5l0,0l0,0l0,0l0,0c0,0-25.5,0.2-29.9,5c0,0-1.3,5.1,1.1,8.2
			c0,0,24-4,28.8-4.2l0,0c4.7,0.2,28.8,4.2,28.8,4.2C500.9,297.5,499.6,292.3,499.6,292.3z"/>
		<path class="st2" d="M413.7,394.4c0,0,5.5,14.4,3.9,21.8l6.4,4.8C424,421,423.8,401.4,413.7,394.4z"/>
		<path class="st2" d="M468.5,419.3c0,0-15.4-3.9-30.8-17.7c0,0,7.6,14.7,30.8,20.6c23.2-5.8,30.8-20.6,30.8-20.6
			C483.9,415.5,468.5,419.3,468.5,419.3z"/>
		<path class="st2" d="M442.9,292c0,0-1.5,3.2,0,5.6C442.9,297.5,443.7,295,442.9,292z"/>
		<path class="st2" d="M445.1,291.5c0,0-1.5,3.2,0,5.6C445.1,297,445.9,294.6,445.1,291.5z"/>
		<path class="st2" d="M448.2,291.1c0,0-1.5,3.2,0,5.6C448.2,296.6,449,294.1,448.2,291.1z"/>
		<path class="st2" d="M494.4,292c0,0,0.9,3.4-1,5.5C493.4,297.5,493,294.9,494.4,292z"/>
		<path class="st2" d="M492,291.5c0,0,0.9,3.4-1,5.5C491,297,490.6,294.3,492,291.5z"/>
		<path class="st2" d="M497,292.7c0,0,0.9,3.4-1,5.5C496,298.2,495.6,295.5,497,292.7z"/>
	</g>
</g>
<g id="Page-1" class="st0">
	<g id="_x30_25---Dragon" transform="translate(0 -1)" class="st1">
		<g id="Color" transform="translate(1 1)">
			<g>
				<path id="Shape" class="st7" d="M755.1,421.7c4.9,6.5,7.6,14.3,7.7,22.4c-0.8,14.2-8.2,27.2-20.2,34.9
					c-4.5,3.4-9.4,6.3-14.5,8.8v-16c0-22.9-18.6-41.6-41.6-41.6h-27.7c-22.9,0-41.6,18.6-41.6,41.6v16c-5-2.4-9.9-5.3-14.3-8.6
					c-11.9-7.8-19.5-20.8-20.3-35c0.1-8.1,2.8-16,7.7-22.4c3.1-4.1,3.7-9.5,1.6-14.1c-0.8-1.6-1.6-3.3-2.3-5
					c-3.8-9.1-6-18.7-6.8-28.5c-0.4-5.9-0.3-11.7,0.5-17.6c0.8-6.8,2.5-13.6,5-20c2.1-5.6,4.7-11.1,8-16.2
					c9.4-14.9,22.9-26.7,38.9-34.1c8-3.8,16.6-6.3,25.5-7.5l-5.9,17.8c-0.7,2.1-0.3,4.5,1,6.2c1.3,1.8,3.4,2.9,5.6,2.9h22.4
					c2.2,0,4.3-1,5.6-2.9c1.3-1.8,1.6-4.1,1-6.2l-5.7-17.8c8.8,1.2,17.4,3.6,25.5,7.3c21.7,9.9,38.6,28,46.8,50.3
					c3.8,10.1,5.7,20.8,5.7,31.5c0,2.1-0.1,4.1-0.2,6.1c-0.7,9.8-2.9,19.4-6.8,28.5c-0.7,1.6-1.5,3.3-2.3,5
					C751.4,412.2,752,417.7,755.1,421.7L755.1,421.7z"/>
				<path id="Shape_1_" class="st8" d="M660.7,278.7c-7.9,1-15.6,3.2-22.9,6.4l-3.6,11.5c-0.7,2.1-0.3,4.5,1,6.2
					c1.3,1.8,3.4,2.9,5.6,2.9h20.8c-2.2,0-4.3-1-5.6-2.9c-1.3-1.8-1.6-4.1-1-6.2L660.7,278.7z"/>
				<path id="Shape_2_" class="st8" d="M753.6,407.6c0.8-1.6,1.6-3.3,2.3-5c3.8-9.1,6.1-18.7,6.8-28.5c0.1-2,0.2-4,0.2-6.1
					c0-10.8-1.9-21.4-5.7-31.5c-8.2-22.3-25.1-40.5-46.8-50.3c-8.1-3.7-16.7-6.2-25.5-7.3l2,6.2c0.9,0.4,1.9,0.7,2.7,1.1
					c21.7,9.9,38.6,28,46.8,50.3c3.8,10.1,5.7,20.8,5.7,31.5c0,2.1-0.1,4.1-0.2,6.1c-0.7,9.8-2.9,19.4-6.8,28.5
					c-0.7,1.6-1.5,3.3-2.3,5c-2.2,4.6-1.6,10.1,1.6,14.1c4.9,6.5,7.6,14.3,7.7,22.4c-0.4,11.3-5.4,21.9-13.9,29.5v14.2
					c5.1-2.4,9.9-5.3,14.5-8.8c11.9-7.8,19.4-20.7,20.2-34.9c-0.1-8.1-2.8-16-7.7-22.4C752,417.7,751.4,412.2,753.6,407.6
					L753.6,407.6z"/>
				<path id="Shape_3_" class="st8" d="M596.6,471.9v1.8c2,2,4.2,3.9,6.5,5.6c4.5,3.3,9.3,6.2,14.3,8.6v-16
					c0-22.9,18.6-41.6,41.6-41.6h-20.8C615.2,430.3,596.6,448.9,596.6,471.9z"/>
				<path id="Shape_4_" class="st9" d="M635.3,286.2c-16,7.3-29.5,19.2-38.9,34.1c-12.5-16.1-19.7-35.6-20.6-55.9
					c-0.1-2.2,0.9-4.2,2.5-5.6s3.9-1.9,6-1.4C603.8,261.7,621.5,271.7,635.3,286.2L635.3,286.2z"/>
				<path id="Shape_5_" class="st10" d="M635.3,286.1c-13.7-14.4-31.5-24.4-50.9-28.7c-3.3-0.8-6.6,0.9-7.9,3.9
					c14.5,5,27.6,13.5,38,24.8l0.1,0.1c-10.2,4.7-19.4,11.3-27.3,19.4c2.7,5.1,5.8,10,9.2,14.7C605.8,305.4,619.3,293.5,635.3,286.1
					L635.3,286.1z"/>
				<path id="Shape_6_" class="st9" d="M769.7,264.4c-1,20.3-8.2,39.8-20.6,55.8c-9.4-14.9-22.9-26.7-38.9-34.1
					c13.7-14.4,31.5-24.4,50.9-28.7c2.1-0.5,4.3,0,6,1.4S769.8,262.2,769.7,264.4L769.7,264.4z"/>
				<path id="Shape_7_" class="st10" d="M761.2,257.4c-4.4,1.1-8.7,2.4-12.9,3.9c0.4,1,0.7,2,0.6,3c-0.7,14.4-4.5,28.4-11.4,41.1
					c4.4,4.5,8.2,9.4,11.6,14.7c12.4-16.1,19.6-35.5,20.6-55.8c0.1-2.2-0.9-4.2-2.5-5.6C765.6,257.4,763.3,256.9,761.2,257.4z"/>
				<circle id="Oval" class="st9" cx="624.3" cy="388.7" r="13.9"/>
				<circle id="Oval_1_" class="st9" cx="721.3" cy="388.7" r="13.9"/>
				<path id="Shape_8_" class="st11" d="M589.7,402.6c-69.2-13.9-62.3-62.3-62.3-62.3c20.7,7.3,39.6,18.8,55.6,33.8
					C583.6,383.8,585.9,393.5,589.7,402.6L589.7,402.6z"/>
				<path id="Shape_9_" class="st12" d="M583.5,356.5c-0.7,5.9-0.9,11.7-0.5,17.6c-16-15-35-26.5-55.6-33.8
					c18.6-10.8,41.3-12.2,61.1-3.8C586,342.9,584.3,349.6,583.5,356.5z"/>
				<path id="Shape_10_" class="st12" d="M762.6,374c0.1-2,0.2-4,0.2-6.1c0-10.8-1.9-21.4-5.7-31.5c19.8-8.4,42.5-7,61.1,3.8
					C797.6,347.6,778.6,359.1,762.6,374L762.6,374z"/>
				<path id="Shape_11_" class="st11" d="M755.9,402.6c3.8-9.1,6.1-18.7,6.8-28.5c16-15,35-26.5,55.6-33.8
					C818.2,340.3,825.2,388.7,755.9,402.6z"/>
				<path id="Shape_12_" class="st11" d="M684,305.6h-22.4c-2.2,0-4.3-1-5.6-2.9c-1.3-1.8-1.6-4.1-1-6.2l5.7-17.9l5.5-16.8
					c1-2.8,3.6-4.7,6.6-4.7s5.6,1.9,6.6,4.7l5.5,16.9l5.7,17.8c0.7,2.1,0.3,4.5-1,6.2C688.3,304.6,686.2,305.6,684,305.6L684,305.6z
					"/>
			</g>
			<path id="Shape_13_" class="st13" d="M610.5,548.1c0.7,9.5,3,18.9,6.9,27.5"/>
			<path id="Shape_14_" class="st11" d="M728.2,471.9v16c-17.4,7.9-36.3,12-55.4,11.8c-19.1,0.2-38.1-3.8-55.4-11.8v-16
				c0-22.9,18.6-41.6,41.6-41.6h27.7C709.5,430.3,728.2,448.9,728.2,471.9z"/>
			<path id="Shape_15_" class="st14" d="M686.6,430.3h-20.8c22.9,0,41.6,18.6,41.6,41.6v16c-14.2,6.5-29.5,10.4-45,11.4
				c3.4,0.2,6.9,0.4,10.4,0.4c19.1,0.2,38.1-3.8,55.4-11.8v-16C728.2,448.9,709.5,430.3,686.6,430.3z"/>
			<path id="Shape_16_" class="st7" d="M790.9,582.7c0.9,18.5-2.7,36.9-10.6,53.6c-9.3,17.6-22.6,22.6-30.9,22.6
				c-13.1,0.4-25.8-4.7-34.9-14c-8.3-9.6-10.4-23.6,0.3-41.3c5.3-8.8,9.9-18,13.8-27.5l-0.3-0.1c0,0-6.9-48.5-55.4-48.5
				c-47,0-54.9,45.4-55.4,48.3c3.9,9.6,8.5,19,13.9,27.8c10.7,17.8,8.5,31.9,0.2,41.5c-9.2,9.3-21.8,14.3-34.8,14
				c-8.4,0-21.9-5.1-31.2-23c-7.6-16.6-11.2-34.9-10.4-53.2c0-1.3,0-2.6,0.1-3.8c0.4-13.3,3-26.4,7.6-38.9v-0.1
				c8.6-23,22.4-43.8,40.3-60.7c4.5,3.3,9.3,6.2,14.3,8.6c17.4,7.9,36.3,12,55.4,11.8C692,500,711,496,728.3,488
				c5.1-2.4,9.9-5.3,14.5-8.8c6.9,6.2,13.1,13.2,18.6,20.7c9.1,12,16.4,25.3,21.7,39.4v0.1c4.7,12.5,7.3,25.6,7.8,38.9v0.1
				C790.9,579.8,790.9,581.2,790.9,582.7L790.9,582.7z"/>
			<path id="Shape_17_" class="st8" d="M617.4,575.6c0.4-2.7,7.3-41.3,45-47.4c-3.4-0.6-6.9-0.9-10.4-0.9c-47,0-54.9,45.4-55.4,48.3
				c3.9,9.6,8.5,19,13.9,27.8c10.7,17.8,8.5,31.9,0.2,41.5c-5.9,6.3-13.7,10.7-22.3,12.4c2.7,1,5.4,1.4,8.2,1.5
				c13.1,0.4,25.7-4.7,34.8-14c8.3-9.6,10.5-23.7-0.2-41.5C625.8,594.5,621.2,585.3,617.4,575.6z"/>
			<path id="Shape_18_" class="st8" d="M790.7,578.3L790.7,578.3c-0.5-13.4-3.1-26.5-7.8-39v-0.1c-5.3-14.1-12.6-27.4-21.7-39.4
				c-5.5-7.5-11.7-14.5-18.6-20.7c-4,3-8.3,5.6-12.8,7.9c3.8,4.1,7.3,8.4,10.6,12.8c9.1,12,16.4,25.3,21.7,39.4v0.1
				c4.7,12.5,7.3,25.6,7.8,38.9v0.1c0.1,1.5,0.1,2.9,0.1,4.4c0.9,18.5-2.7,36.9-10.6,53.6c-4.5,9.7-12.7,17.3-22.7,21.1
				c4.1,1,8.3,1.5,12.5,1.5c8.3,0,21.7-5,30.9-22.6c7.8-16.8,11.4-35.2,10.6-53.6C790.9,581.2,790.9,579.8,790.7,578.3z"/>
			<path id="Shape_19_" class="st11" d="M714.7,603.4c-10.7,17.7-8.6,31.8-0.3,41.3c-13.3,5-27.5,7.3-41.6,7.1
				c-14.1,0.2-28.1-2.2-41.3-7c8.3-9.6,10.5-23.7-0.2-41.5c-5.4-8.9-10-18.2-13.9-27.8c0.5-2.9,8.5-48.3,55.4-48.3
				c48.5,0,55.4,48.5,55.4,48.5l0.3,0.1C724.6,585.4,720,594.7,714.7,603.4z"/>
			<path id="Shape_20_" class="st14" d="M728.5,575.9l-0.3-0.1c0,0-6.9-48.5-55.4-48.5c-3.5,0-7,0.3-10.4,0.9
				c39,6.4,45,47.6,45,47.6l0.3,0.1c-3.9,9.6-8.5,18.8-13.8,27.5c-10.7,17.7-8.6,31.8-0.3,41.3c-10,3.8-20.6,6.1-31.3,6.7
				c3.4,0.2,6.9,0.4,10.5,0.4c14.2,0.2,28.3-2.2,41.6-7.1c-8.3-9.6-10.4-23.6,0.3-41.3C720,594.7,724.6,585.4,728.5,575.9z"/>
			<path id="Shape_21_" class="st12" d="M584.6,499.8c-9.2,12.2-16.6,25.7-21.9,40c-3.4-41.8-49.3-26.4-49.3-26.4
				c-6.9-27.7-41.6-34.7-41.6-34.7c9.6-19.1,26.9-33.1,47.6-38.4c3.6-1,7.4-0.6,10.7,1.3s5.6,4.9,6.5,8.5
				C541.3,467.8,553.5,497.3,584.6,499.8z"/>
			<path id="Shape_22_" class="st7" d="M565.4,635.9c-2.2,9.2-8.5,16.9-17.1,21c-19.2,8-44.4-8.5-56.4-37c-6.9-15.1-8.1-32.1-3.2-48
				c2.5-7.9,8.3-14.5,15.9-18c0.1-0.1,0.2-0.1,0.3-0.1c7.2-2.8,15.3-2.7,22.3,0.4c11.7,5,21.4,13.7,27.8,24.7
				c-0.1,1.3-0.1,2.6-0.1,3.8C554.2,601,557.8,619.2,565.4,635.9z"/>
			<path id="Shape_23_" class="st8" d="M555,582.7c0-1.3,0-2.6,0.1-3.8c-6.4-11-16.1-19.7-27.8-24.7c-7.1-3-15.1-3.2-22.3-0.4
				c0.5,0.1,1,0.2,1.5,0.4c11.7,5,21.4,13.7,27.8,24.7c-0.1,1.3-0.1,2.6-0.1,3.8c-0.8,18.3,2.7,36.5,10.4,53.2
				c-2.2,9.2-8.5,16.9-17.1,21c-0.1,0-0.1,0.1-0.2,0.1c6.8,2.6,14.2,2.6,21-0.1c8.6-4,14.8-11.7,17.1-21
				C557.8,619.2,554.2,601,555,582.7z"/>
			<path id="Shape_24_" class="st12" d="M873.6,478.8c0,0-34.7,6.9-41.6,34.7c0,0-45.3-15.1-49.2,25.8
				c-5.3-14.1-12.6-27.4-21.7-39.4c30.9-2.6,43-32.1,47.6-49.6c1-3.6,3.3-6.7,6.5-8.5s7.1-2.3,10.7-1.3
				C846.7,445.7,864.1,459.7,873.6,478.8L873.6,478.8z"/>
			<path id="Shape_25_" class="st7" d="M853.5,619.8c-11.9,28.5-37.2,45-56.4,37c-8.5-3.9-14.6-11.5-16.9-20.6
				c7.8-16.8,11.4-35.2,10.6-53.6c0-1.5,0-2.9-0.1-4.4v-0.1c6.5-10.7,16.1-19.1,27.5-24c7.1-3,15.1-3.2,22.3-0.4
				c0.1,0.1,0.2,0.1,0.3,0.1c7.6,3.6,13.3,10.1,15.9,18C861.6,587.7,860.5,604.8,853.5,619.8L853.5,619.8z"/>
			<path id="Shape_26_" class="st8" d="M856.7,571.9c-2.5-7.9-8.3-14.5-15.9-18c-0.1-0.1-0.2-0.1-0.3-0.1c-6.8-2.6-14.2-2.6-20.9,0
				h0.1c0.1,0.1,0.2,0.1,0.3,0.1c7.6,3.6,13.3,10.1,15.9,18c4.9,15.9,3.7,33-3.2,48c-6.2,16.7-19,30.1-35.4,37
				c19.1,7.8,44.2-8.7,56.2-37C860.5,604.8,861.6,587.7,856.7,571.9L856.7,571.9z"/>
			
				<ellipse id="Oval_2_" transform="matrix(0.9239 -0.3827 0.3827 0.9239 -188.6575 244.5542)" class="st11" cx="520.4" cy="596.5" rx="13.9" ry="13.9"/>
			<circle id="Oval_3_" class="st11" cx="825.2" cy="596.5" r="13.9"/>
		</g>
		<g id="Outline">
			<circle id="Oval_4_" cx="542.2" cy="632.1" r="6.9"/>
			<circle id="Oval_5_" cx="805.4" cy="632.1" r="6.9"/>
			<path id="Shape_27_" d="M653,459h-6.9c-3.9,0-6.9,3.1-6.9,6.9c0,3.9,3.1,6.9,6.9,6.9h6.9c3.9,0,6.9-3.1,6.9-6.9
				S656.8,459,653,459z"/>
			<path id="Shape_28_" d="M701.5,459h-6.9c-3.9,0-6.9,3.1-6.9,6.9c0,3.9,3.1,6.9,6.9,6.9h6.9c3.9,0,6.9-3.1,6.9-6.9
				S705.3,459,701.5,459z"/>
			<path id="Shape_29_" d="M625.3,410.5c11.5,0,20.8-9.3,20.8-20.8s-9.3-20.8-20.8-20.8s-20.8,9.3-20.8,20.8
				S613.8,410.5,625.3,410.5z M625.3,382.8c3.9,0,6.9,3.1,6.9,6.9s-3.1,6.9-6.9,6.9c-3.9,0-6.9-3.1-6.9-6.9
				C618.4,386,621.5,382.8,625.3,382.8z"/>
			<path id="Shape_30_" d="M722.3,410.5c11.5,0,20.8-9.3,20.8-20.8s-9.3-20.8-20.8-20.8s-20.8,9.3-20.8,20.8
				S710.8,410.5,722.3,410.5z M722.3,382.8c3.9,0,6.9,3.1,6.9,6.9s-3.1,6.9-6.9,6.9c-3.8,0-6.9-3.1-6.9-6.9
				C715.4,386,718.4,382.8,722.3,382.8z"/>
			<path id="Shape_31_" d="M829.1,434.8c-5.4-1.6-11.2-1-16.1,1.8c-4.9,2.7-8.5,7.3-9.9,12.8c-3.9,14.9-13.9,39.6-37.8,43.9
				c-3.5-4.5-7.3-8.8-11.2-12.8c10.2-8.9,16.3-21.7,16.7-35.4c-0.1-9.6-3.3-18.9-9-26.6c-1.6-1.9-1.9-4.6-0.9-6.9
				c0.3-0.7,0.5-1.4,0.9-2c71.1-16,64.5-68.8,64.4-69.3c-0.3-2.1-1.5-3.9-3.3-5c-18.4-10.9-40.6-13.3-60.9-6.5
				c-1.1-2.4-2.4-4.9-3.7-7.2c11.7-16.5,18.4-36,19.4-56.2c0.1-4.4-1.9-8.5-5.3-11.3c-3.3-2.7-7.6-3.6-11.8-2.6
				c-19.3,4.5-37,14-51.2,27.5c-5.9-2.4-12.2-4.2-18.5-5.3l-4.2-13c-1.9-5.6-7.2-9.5-13.1-9.5s-11.3,3.8-13.1,9.5v0.1l-4.2,12.8
				c-6.4,1.1-12.6,2.9-18.6,5.3c-14.2-13.6-31.7-23-50.8-27.4c-4.2-1-8.5-0.1-11.8,2.5c-3.5,2.7-5.4,7-5.3,11.4
				c1,20.2,7.8,39.6,19.5,56.1c-1.3,2.4-2.6,4.7-3.7,7.2c-20.3-6.8-42.5-4.4-60.9,6.5c-1.8,1-3,2.9-3.3,5
				c-0.1,0.5-6.7,53.4,64.3,69.3c0.3,0.7,0.6,1.4,0.9,2c1,2.3,0.7,5-1,7.1c-5.7,7.6-8.9,16.9-9,26.4c0.4,13.7,6.5,26.6,16.8,35.5
				c-3,3.1-6.8,7.4-11,12.8c-24.3-4.2-34.4-29-38.2-44c-1.4-5.4-5-10.1-9.9-12.8c-4.9-2.7-10.7-3.4-16.1-1.9
				c-22.7,5.9-41.7,21.4-52,42.5c-0.7,1.9-0.7,4.1,0.3,5.9s2.7,3.1,4.7,3.5c0.3,0.1,30.5,6.5,36.2,29.5c0.4,1.9,1.7,3.5,3.4,4.4
				c1.7,1,3.7,1.1,5.5,0.5c0.2-0.1,19.4-6.2,31,1.5c5.6,4.2,8.9,10.8,9,17.8c-2.5,7.1-4.5,14.5-5.7,22c-4.6-4.7-9.9-8.6-15.7-11.6
				v-8.5c0-3.9-3.1-6.9-6.9-6.9s-6.9,3.1-6.9,6.9v4.2c-3.9-0.6-7.8-0.6-11.7,0.1l-2.7-6.8c-1.4-3.6-5.4-5.3-9-3.9
				c-3.6,1.4-5.3,5.4-3.9,9l2.9,7.2c-3.6,2.6-6.6,5.8-9,9.5l-3.3-3.3c-2.7-2.6-7.1-2.6-9.7,0.1c-2.7,2.7-2.7,7-0.1,9.7l7.1,7.1
				c-3.9,16.3-2.2,33.4,4.6,48.7c11.1,26.5,32.4,43.3,52.3,43.3c4.5,0,9-0.9,13.1-2.6c6.4-2.7,11.8-7.4,15.5-13.3
				c7.2,9.5,18.2,15.3,30.1,15.9c13.4,0.3,26.4-4.3,36.7-13c25.8,8.1,53.4,8,79.3-0.1c10.2,8.7,23.3,13.3,36.7,13.1
				c11.7-0.6,22.6-6.3,29.8-15.7c3.7,5.8,9.1,10.3,15.4,13.1c4.2,1.7,8.6,2.6,13.1,2.6c20,0,41.2-16.8,52.3-43.3
				c6.8-15.3,8.5-32.4,4.6-48.7l7.1-7.1c2.6-2.7,2.6-7.1-0.1-9.7c-2.7-2.7-7-2.7-9.7-0.1l-3.3,3.3c-2.4-3.7-5.4-6.9-9-9.5l2.9-7.2
				c0.9-2.3,0.5-4.9-1-6.8c-1.6-1.9-4-2.9-6.5-2.5c-2.4,0.4-4.5,2-5.4,4.3l-2.7,6.8c-3.9-0.7-7.8-0.7-11.7-0.1v-4.2
				c0-3.9-3.1-6.9-6.9-6.9s-6.9,3.1-6.9,6.9v8.5c-5.7,3-10.9,6.8-15.4,11.3c-1.3-7.6-3.3-15.1-5.9-22.4c0.2-6.8,3.5-13,8.8-17.1
				c11.6-7.7,30.8-1.5,31-1.5c1.9,0.6,3.9,0.4,5.5-0.5c1.7-1,2.9-2.5,3.4-4.4c5.8-23,35.9-29.5,36.2-29.5c2-0.4,3.8-1.7,4.7-3.5
				s1.1-3.9,0.4-5.9C870.8,456.2,851.7,440.6,829.1,434.8L829.1,434.8z M767.4,393.7c1.3-5,2.3-10.2,2.8-15.5
				c12.2-11.2,26.4-20.3,41.7-26.7C810,363.5,801.4,383.5,767.4,393.7L767.4,393.7z M801.3,341.1c-11,5.1-21.4,11.4-31,18.7
				c-0.6-6.1-1.8-12.2-3.5-18C778,338.4,790,338.2,801.3,341.1L801.3,341.1z M763.8,265.1c-0.7,15.7-5.6,30.8-14,44
				c-7.5-9.5-16.7-17.5-27.1-23.7C734.7,275.5,748.7,268.5,763.8,265.1z M685,299.7h-22.5l11.3-34.7L685,299.7z M583.7,265.1
				c15.1,3.5,29.2,10.5,41.1,20.4c-10.4,6.2-19.6,14.2-27.1,23.8C589.4,296,584.5,280.8,583.7,265.1z M580.7,341.8
				c-1.5,4.8-2.5,9.8-3.1,14.8c-0.1,1.1-0.2,2.2-0.3,3.3c-9.6-7.3-20-13.7-31-18.8C557.5,338.2,569.5,338.4,580.7,341.8z
				 M535.6,351.6c15.3,6.4,29.4,15.4,41.6,26.6c0.5,5.3,1.5,10.5,2.8,15.6C546.1,383.4,537.6,363.4,535.6,351.6L535.6,351.6z
				 M590.7,445.2c0.1-6.6,2.4-13.1,6.3-18.3c4.7-6.2,5.5-14.4,2.2-21.3c-7.2-14.6-9.9-31-7.9-47.2c4.5-33,28.1-60.2,60.2-69.4
				l-2.1,6.5c-1.3,4.2-0.7,8.8,1.9,12.4c2.6,3.6,6.8,5.7,11.2,5.7H685c4.5,0,8.6-2.2,11.2-5.7c2.6-3.6,3.3-8.2,1.9-12.4l-2.1-6.4
				c35.8,10.1,60.7,42.7,60.8,79.9c0.1,12.7-2.9,25.2-8.5,36.6c-3.3,6.9-2.5,15.1,2.1,21.2c4,5.3,6.3,11.7,6.5,18.4
				c0,11.9-7.9,23.1-20.8,31.6v-3.9c0-26.8-21.7-48.5-48.5-48.5h-27.7c-26.8,0-48.5,21.7-48.5,48.5v3.9
				C598.6,468.2,590.7,457.1,590.7,445.2z M722.3,484.1c-31.1,12.6-65.9,12.6-97,0v-11.3c0-19.1,15.5-34.6,34.7-34.7h27.7
				c19.1,0,34.6,15.5,34.7,34.7v11.3H722.3z M555.3,510.9c-11.1-6.1-24-7.8-36.3-4.7c-7.3-14.6-20.2-25.7-35.8-30.6
				c9.5-13.4,23.4-23.2,39.3-27.5c1.8-0.5,3.7-0.3,5.3,0.6s2.8,2.4,3.3,4.2c4.5,17.1,15.7,44.8,42.9,52.8c-3.3,5-6.3,10.2-9.1,15.6
				C562.5,517.1,559.2,513.5,555.3,510.9z M546.7,651.5c-15.4,6.4-37-8.8-47.3-33.3c-6.2-13.4-7.3-28.7-3-42.9
				c1.9-6.2,6.3-11.2,12.1-14.1c0.1-0.1,0.3-0.1,0.4-0.2c5.6-2,11.7-1.8,17,0.6c9.6,4.3,17.8,11.4,23.4,20.3c0,0.6-0.1,1.1-0.1,1.7
				c-0.7,18.3,2.7,36.7,9.9,53.6C557.1,643.5,552.6,648.6,546.7,651.5L546.7,651.5z M643.1,642.1c4.2-8.9,6.2-22.8-4.9-41.3
				c-4.8-7.9-9.1-16.3-12.6-24.9c1.6-8.1,10.6-40.7,48.2-40.7c38.4,0,47,34.4,48.3,41.3c-3.5,8.5-7.6,16.5-12.4,24.4
				c-11.1,18.5-9.1,32.2-5,41.2C684.6,647.3,663.3,647.3,643.1,642.1L643.1,642.1z M750.3,652.9c-12.7,0.7-24.9-5-32.3-15.3
				c-5.7-10.1-1.2-21.7,3.6-29.6c21.5-35.8,21.7-58,21.7-59c0-3.8-3-6.9-6.9-6.9c-1.9-0.1-3.6,0.7-5,1.9c-1.3,1.3-2.1,3-2,4.9
				c-0.1,1.8-0.4,3.6-0.7,5.4c-10.3-20.8-31.8-33.7-55.1-33c-23.1-0.7-44.4,12-54.8,32.6c-0.3-1.6-0.5-3.3-0.6-4.9
				c0-3.9-3.1-6.9-7-6.9s-6.9,3.1-6.9,7c0,1,0.2,23.1,21.7,59c4.7,7.9,9.3,19.6,3.6,29.6c-7.4,10.2-19.6,16-32.3,15.3
				c-7.3,0-17.4-4.7-24.9-18.8c-0.1-0.3-0.2-0.6-0.4-0.8c-6.9-15.6-10.1-32.6-9.3-49.6c0-47.6,30.1-82.7,41.7-94.4
				c20.9,12.5,44.8,18.9,69.2,18.3c24.3,0.6,48.4-5.8,69.3-18.3c4.5,4.6,8.8,9.6,12.7,14.7c0.4,0.9,1,1.6,1.7,2.3
				c8.2,11.1,14.8,23.2,19.7,36c0.1,0.9,0.4,1.7,1,2.4c4.5,12.5,6.8,25.8,6.8,39.1c0.8,17.2-2.4,34.4-9.5,50
				c-0.1,0.3-0.3,0.6-0.4,0.9C767.5,648.3,757.5,652.9,750.3,652.9L750.3,652.9z M821.7,561.6c5.4-2.3,11.4-2.5,17-0.6l0.4,0.2
				c5.8,2.8,10.1,7.9,12.1,14c4.2,14.2,3.1,29.5-3,43c-10.3,24.5-32,39.7-47.3,33.3c-5.8-2.7-10.2-7.8-12.2-14
				c7.3-17,10.7-35.4,10-53.9c0-0.7-0.1-1.5-0.1-2.3C804.3,572.7,812.3,565.8,821.7,561.6L821.7,561.6z M828.5,506.1
				c-12.2-3-25.2-1.3-36.3,4.7c-3.8,2.6-7,6-9.4,10c-2.7-5.3-5.6-10.4-8.9-15.3c26.9-8.2,38.1-35.6,42.5-52.6
				c0.4-1.8,1.6-3.3,3.3-4.2c1.6-0.9,3.6-1.1,5.3-0.6c15.9,4.3,29.8,14,39.3,27.5C848.7,480.4,835.8,491.5,828.5,506.1z"/>
			<path id="Shape_32_" d="M521.4,576.8c-11.5,0-20.8,9.3-20.8,20.8s9.3,20.8,20.8,20.8s20.8-9.3,20.8-20.8S532.9,576.8,521.4,576.8
				z M521.4,604.4c-3.9,0-6.9-3.1-6.9-6.9c0-3.9,3.1-6.9,6.9-6.9c3.9,0,6.9,3.1,6.9,6.9C528.3,601.3,525.2,604.4,521.4,604.4z"/>
			<path id="Shape_33_" d="M826.2,618.3c11.5,0,20.8-9.3,20.8-20.8s-9.3-20.8-20.8-20.8s-20.8,9.3-20.8,20.8
				S814.7,618.3,826.2,618.3z M826.2,590.6c3.9,0,6.9,3.1,6.9,6.9c0,3.9-3.1,6.9-6.9,6.9c-3.9,0-6.9-3.1-6.9-6.9
				C819.2,593.7,822.3,590.6,826.2,590.6z"/>
			<path id="Shape_34_" d="M659.9,569.8h27.7c3.9,0,6.9-3.1,6.9-6.9c0-3.9-3.1-6.9-6.9-6.9h-27.7c-3.9,0-6.9,3.1-6.9,6.9
				S656.1,569.8,659.9,569.8z"/>
			<path id="Shape_35_" d="M680.7,611.3h-13.9c-3.9,0-6.9,3.1-6.9,6.9c0,3.8,3.1,6.9,6.9,6.9h13.9c3.9,0,6.9-3.1,6.9-6.9
				C687.6,614.5,684.5,611.3,680.7,611.3z"/>
			<path id="Shape_36_" d="M694.5,583.7H653c-3.9,0-6.9,3.1-6.9,6.9c0,3.9,3.1,6.9,6.9,6.9h41.6c3.9,0,6.9-3.1,6.9-6.9
				S698.4,583.7,694.5,583.7z"/>
		</g>
	</g>
</g>
<g class="st0">
	<path class="st15" d="M862.8,425.8c0-45.6-15.3-86.7-51.1-122.5c-30.9-28.8-72.3-46.5-117.9-46.5c-95.4,0-172.8,77.4-172.8,172.8
		c0,50.2,21.4,95.3,55.5,126.9l216.3,5.4C832.7,530.3,862.8,480.7,862.8,425.8z"/>
	<path class="st16" d="M811.7,303.4c28.8,30.9,46.5,72.3,46.5,117.9c0,54.5-25.2,103.1-64.6,134.7c-0.5,0.4-1.1,0.6-1.7,0.6H576.6
		c30.8,28.5,72,45.9,117.2,45.9c95.4,0,172.8-77.4,172.8-172.8C866.6,379.8,845.5,334.9,811.7,303.4z"/>
	<path class="st17" d="M798.3,322.2c-27-26.2-63.8-42.4-104.4-42.4c-82.8,0-149.8,67.1-149.8,149.8c0,53.5,205.9,126.9,205.9,126.9
		c50.5-24.1,85.4-75.6,85.4-135.3C835.3,383.2,819.6,348.2,798.3,322.2z"/>
	<path class="st18" d="M544,429.7c0,53.5,28,100.4,70.2,126.9l135.7,5.4c56.6-27,90-78.3,90-136.9c0-38.1-18.1-80-41.6-102.9
		c6.9,12.2,15.5,34.7,16.6,60.9c-9.7,0-17.6,7.9-17.6,17.6c0,8.6,6.2,15.8,14.4,17.3c-1.9,7.9-4.7,15.8-8.6,23.7
		c-3.7-2.2-8.1-3.4-12.7-3.4c-14,0-25.4,11.4-25.4,25.4c-9.8-13.4-24.8-22-41.5-22c-17.1,0-32,8.7-39.5,21.5l-3.5-13.4
		c-2.6-4.6-6.5-8.3-11.2-10.7l-12.4-3c7.5-7.8,12.2-18.8,12.2-31.1c0-28.3-25.5-51.2-56.9-51.2C574.5,353.9,544,387.8,544,429.7z"/>
	<g class="st1">
		<path class="st19" d="M633,445.8c-13.8,0-28.5-9.7-28.5-26.9c0-10.1,7.1-18.3,15.9-18.3c3.2,0,5.7-2.6,5.7-5.7s-2.6-5.7-5.7-5.7
			c-15.1,0-27.3,13.3-27.3,29.7c0,11,4.3,20.8,12.1,27.7c7.2,6.4,17.6,10.6,27.9,10.6c10.2,0,23.4-4,32.2-13.1
			c0.8-0.9,2.5-2.8,4.1-4.9c-3.7-1.9-7.9-3-12.4-3l0,0C651.8,441.5,642.8,445.8,633,445.8L633,445.8z"/>
		<path class="st19" d="M674.1,457.5c-4.1,7-6.3,15.3-6.3,22.9c0,24.6,18.1,40.7,41.2,40.7c17,0,30.8-12.7,30.8-28.3
			c0-13.5-10.2-24.5-22.7-24.5c-3.2,0-5.7,2.6-5.7,5.7c0,3.2,2.6,5.7,5.7,5.7c6.2,0,11.2,5.9,11.2,13.1c0,9.3-8.7,16.8-19.3,16.8
			c-16.8,0-29.7-11.6-29.7-29.2c0-6.5,2.1-12.7,4.7-17.1l0,0c0-4.9-1.3-9.4-3.5-13.4C677.7,452.5,675,456,674.1,457.5L674.1,457.5z"
			/>
		<path class="st19" d="M798.3,322.2c21.4,26,37,61,37,99c0,59.5-34.7,110.8-84.9,135.1c-0.4,0.2-0.8,0.3-1.2,0.3H614.1
			c22.5,14.2,49.1,22.5,77.7,22.9c82.9,1.1,151.4-66,151.9-148.9C844,388.1,826.5,349.6,798.3,322.2z"/>
	</g>
	<path class="st20" d="M821.4,579c-0.3-1.2-4-7.5-6.6-8.9c-2.9-1.3-6.1-2-9.4-2H582.3c-10.4,0-19.5,7-22.2,17l-1.6,5.9l267.5,5.4
		L821.4,579z"/>
	<path class="st21" d="M827.5,585.1c-1.8-6.8-6.6-12.2-12.7-15c0.5,1.1,0.9,2.3,1.3,3.5l3.7,14c0.5,1.7-0.8,3.4-2.6,3.4H558.6
		l-3.1,11.5l138.3,7.6l138.3-7.6L827.5,585.1z"/>
	<path class="st20" d="M848.2,613.4c-0.3-1.2-4-7.5-6.6-8.9c-2.9-1.3-6.1-2-9.4-2H555.5c-10.4,0-19.5,7-22.2,17l-1.6,5.9l321.1,5.4
		L848.2,613.4z"/>
	<path class="st21" d="M854.3,619.5c-1.8-6.8-6.6-12.2-12.7-15c0.5,1.1,0.9,2.3,1.3,3.5l3.7,14c0.5,1.7-0.8,3.4-2.6,3.4H531.8
		l-1.1,4.3c-1,3.6,1.8,7.2,5.5,7.2h315.4c3.8,0,6.5-3.6,5.5-7.2L854.3,619.5z"/>
	<circle class="st16" cx="718.2" cy="316.1" r="11.5"/>
	<path class="st22" d="M752.9,320.3c-3.7,0-6.3,28.2-9.1,31s-22.6,5.5-22.6,9.2s19.8,6.4,22.6,9.2c2.8,2.8,5.4,31,9.1,31
		c3.7,0,6.3-28.2,9.1-31s22.6-5.5,22.6-9.2s-19.8-6.4-22.6-9.2C759.2,348.4,756.6,320.3,752.9,320.3z"/>
	<circle class="st22" cx="679.3" cy="307.9" r="6.1"/>
	<circle class="st23" cx="626.9" cy="327.6" r="6.1"/>
	<circle class="st22" cx="779.1" cy="388.3" r="6.1"/>
	<circle class="st23" cx="718.2" cy="413" r="6.1"/>
</g>
<polygon class="st24" points="652.5,253.6 687.4,193.2 617.6,193.2 "/>
<polygon class="st25" points="652.5,253.6 640,193.2 617.6,193.2 "/>
<g class="st0">
	<path class="st26" d="M753,197.4c-3.2,0-5.8-2.6-5.8-5.8v-15.1c0-3.2,2.6-5.8,5.8-5.8s5.8,2.6,5.8,5.8v15.1
		C758.8,194.8,756.2,197.4,753,197.4z"/>
	<path class="st26" d="M753,238c-3.2,0-5.8-2.6-5.8-5.8v-15.1c0-3.2,2.6-5.8,5.8-5.8s5.8,2.6,5.8,5.8v15.1
		C758.8,235.4,756.2,238,753,238z"/>
	<path class="st26" d="M780.9,210.1h-15.1c-3.2,0-5.8-2.6-5.8-5.8s2.6-5.8,5.8-5.8h15.1c3.2,0,5.8,2.6,5.8,5.8
		S784.1,210.1,780.9,210.1z"/>
	<path class="st26" d="M740.2,210.1h-15.1c-3.2,0-5.8-2.6-5.8-5.8s2.6-5.8,5.8-5.8h15.1c3.2,0,5.8,2.6,5.8,5.8
		S743.4,210.1,740.2,210.1z"/>
</g>
<path class="st24" d="M749.8,452.6H574.2c31-10.1,47.8-29.7,56.6-44.8c1.9-3.2,3.4-6.2,4.6-8.9l52.1-2.9c1,2.5,2.3,5.4,4,8.6
	C699.6,419.9,716.6,441.7,749.8,452.6z"/>
<path class="st25" d="M662,397.3l-8.7,1.5c-2.2,15.2-7.7,41.5-20,53.7h-59c37.6-12.2,54.3-38.5,61.1-53.7L662,397.3z"/>
<path class="st27" d="M670.5,396.8l-8.5,0.5l8.3-1.4C670.4,396.2,670.4,396.5,670.5,396.8z"/>
<path class="st24" d="M606.6,290c7.6-26,25.3-44.2,45.9-44.2c21,0,38.9,18.8,46.3,45.5l-47.3,30.4L606.6,290z"/>
<path class="st25" d="M652.7,290.7l-46.1-0.7c7.6-26,25.3-44.2,45.9-44.2h0.1c-7.1,0.1-13.3,22.1-15.9,48L652.7,290.7z"/>
<path class="st24" d="M866.4,255.6c0,0-19.4,2.4-43.1,26.1c-23.7,23.7-42.7,117.5-176.8,117.5c-67.9,0-88.3-37.4-92-74.4
	c-1.8-18.7,13-34.8,31.7-34.8h17.5c78.3,0,143.6,13.1,191-34.4L866.4,255.6L866.4,255.6z"/>
<g class="st0">
	<path class="st28" d="M691.4,404.5c-13.3,2.6-28.2,4-44.9,4c-5.6,0-10.9-0.3-15.8-0.7c1.9-3.2,3.4-6.2,4.6-8.9l22.7-14.4l29.3,11.4
		C688.4,398.4,689.7,401.3,691.4,404.5z"/>
	<path class="st28" d="M683.8,369c-67.9,0-88.3-37.4-92-74.4c-0.2-1.5-0.2-3.1-0.1-4.6h-5.3c-18.8,0-33.6,16.1-31.7,34.8
		c3.6,36.9,24.1,74.4,92,74.4c69,0,107.5-24.8,131.9-52.2C755.5,360,725.1,369,683.8,369z"/>
	<path class="st28" d="M536.1,395.5c-3.2,0-5.8-2.6-5.8-5.8c0-3.2,2.6-5.8,5.8-5.8c4.5,0,7.3-1.7,8.5-5.3c2.7-8-2.6-26-22.7-41.2
		c-30.8-23.3-39.3-55.1-34-76.2c3.6-14.2,13-23.5,25.9-25.5c12.2-1.9,22.5,0.6,30.6,7.6c14.7,12.5,21.8,39.2,21.8,81.6
		c0,3.2-2.6,5.8-5.8,5.8s-5.8-2.6-5.8-5.8c0-38.2-6-62.7-17.7-72.8c-5.5-4.7-12.4-6.3-21.2-4.9c-11.1,1.7-15.1,11.3-16.5,16.9
		c-6,24,11.2,50.1,29.7,64.1c10.4,7.9,18.5,17.4,23.3,27.5c4.7,9.8,5.9,19.2,3.4,26.7C552.8,390.7,545.7,395.5,536.1,395.5z"/>
</g>
<g class="st0">
	<path class="st29" d="M605.9,130.3c-1.8,0-3.6-0.9-4.8-2.5c-1.9-2.6-1.2-6.2,1.4-8.1c1.1-0.8,2.3-1.6,3.4-2.4
		c18.7-13.2,36.3-25.8,64.5-25.8c23.2,0,37.6,8.5,47.6,15.8c2.6,1.9,3.1,5.5,1.2,8.1c-1.9,2.6-5.5,3.1-8.1,1.2
		c-9.1-6.7-21-13.5-40.6-13.5c-24.5,0-39.9,10.9-57.8,23.6c-1.1,0.8-2.3,1.6-3.4,2.4C608.3,129.9,607.1,130.3,605.9,130.3z"/>
	<path class="st29" d="M811.1,234.6c-0.8,0-1.7-0.2-2.5-0.6c-2.9-1.4-4.1-4.9-2.7-7.8c7.9-16.5,8.2-36.2,0.7-50.2
		c-6.2-11.7-17.6-19-32.9-21.2c-22.2-3.2-36.3-15.6-47.7-25.7c-2.4-2.1-2.6-5.8-0.5-8.2c2.1-2.4,5.8-2.6,8.2-0.5
		c11.2,9.9,22.9,20.2,41.6,22.9c24.2,3.5,35.9,16.7,41.5,27.2c9.2,17.2,9,41-0.5,60.7C815.3,233.3,813.2,234.6,811.1,234.6z"/>
	<path class="st29" d="M852.9,197.4c-3.2,0-5.8-2.6-5.8-5.8c0-50.8-38.5-69.7-62.8-69.7c-3.2,0-5.8-2.6-5.8-5.8s2.6-5.8,5.8-5.8
		c16.7,0,34.7,7,48.1,18.7c12,10.5,26.3,29.8,26.3,62.6C858.7,194.8,856.1,197.4,852.9,197.4z"/>
</g>
<path class="st30" d="M577.7,150.8l12.2-2.5c5.8-1.2,5.8-9.4,0-10.6l-12.2-2.5c-12.1-2.4-21.5-11.9-23.9-23.9l-2.5-12.2
	c-1.2-5.8-9.4-5.8-10.6,0l-2.5,12.2c-2.4,12.1-11.9,21.5-23.9,23.9l-12.2,2.5c-5.8,1.2-5.8,9.4,0,10.6l12.2,2.5
	c12.1,2.4,21.5,11.9,23.9,23.9l2.5,12.2c1.2,5.8,9.4,5.8,10.6,0l2.5-12.2C556.3,162.7,565.7,153.3,577.7,150.8z"/>
<path class="st31" d="M739.4,310.5c0,6.7-17.2,20-38.4,20s-38.4-13.2-38.4-20c0-6.7,17.2-4.5,38.4-4.5
	C722.2,306.1,739.4,303.8,739.4,310.5z"/>
<g>
	<g>
		<g>
			<path class="st32" d="M913,502.2c6,0,10.9,4.9,10.9,10.9v12.8c0,6-4.9,10.9-10.9,10.9H407.5c-6,0-10.9-4.9-10.9-10.9v-12.8
				c0-6,4.9-10.9,10.9-10.9L913,502.2L913,502.2z"/>
		</g>
		<g>
			<path class="st32" d="M913,95.2c6,0,10.9-4.9,10.9-10.9V71.5c0-6-4.9-10.9-10.9-10.9H407.5c-6,0-10.9,4.9-10.9,10.9v12.8
				c0,6,4.9,10.9,10.9,10.9C407.5,95.2,913,95.2,913,95.2z"/>
		</g>
		<g>
			<path class="st33" d="M853.6,476.9V245.7c0-1.4-0.6-2.7-1.7-3.7l-10.6-9.2c-2.1-1.8-2.2-5.1-0.2-7.1l9-9c0.9-0.9,1.4-2.1,1.4-3.4
				v-92.9l-0.6-64.1H469v64.1v72.3c0,1.1,0.4,2.2,1.2,3l8.5,8.5c1.7,1.7,1.7,4.4,0,6l-11.1,11.1c-0.8,0.8-1.2,1.9-1.2,3v83.8v90.5
				c0,1.1,0.4,2.2,1.2,3l11.6,11.6c1.4,1.4,1.7,3.6,0.6,5.3l-12.7,20.3c-0.4,0.7-0.7,1.5-0.7,2.3v35.8v62.9h387.1L853.6,476.9
				L853.6,476.9z"/>
		</g>
		<g>
			<path class="st34" d="M851.5,455.7H580.1c-25,0-45.3-20.3-45.3-45.3V187.8c0-25.5,20.6-46.1,46.1-46.1h270.6v-21.2l-0.6-64.1
				H534.8H469v64.1v72.3c0,1.1,0.4,2.2,1.2,3l8.5,8.5c1.7,1.7,1.7,4.4,0,6l-11.1,11.1c-0.8,0.8-1.2,1.9-1.2,3v83.8v90.5
				c0,1.1,0.4,2.2,1.2,3l11.6,11.6c1.4,1.4,1.7,3.6,0.6,5.3l-12.7,20.3c-0.4,0.7-0.7,1.5-0.7,2.3V477v62.9h387.1v-19.5V477v-21.2
				C852.9,455.7,852.2,455.7,851.5,455.7L851.5,455.7z"/>
			<circle class="st35" cx="659.1" cy="299.7" r="150.3"/>
			<path class="st36" d="M534.8,384.2V215.3c-16.4,24.1-25.9,53.1-25.9,84.4S518.4,360.1,534.8,384.2z"/>
			<circle class="st36" cx="659.1" cy="299.7" r="116.4"/>
			<path class="st33" d="M851.5,35.3H469c-12.2,0-22.1,9.9-22.1,22.1v41c0,1.1,0.1,2.3,0.3,3.4l43.7-5.3l53.2,22.2l1.1,1.9h306.4
				c12.2,0,22.1-9.9,22.1-22.1v-41C873.6,45.2,863.7,35.3,851.5,35.3z"/>
			<path class="st34" d="M536.1,98.3v-41c0-12.2,9.9-22.1,22.1-22.1H469c-12.2,0-22.1,9.9-22.1,22.1v41c0,12.2,9.9,22.1,22.1,22.1
				h89.2C546,120.5,536.1,110.6,536.1,98.3L536.1,98.3z"/>
			<path class="st33" d="M851.5,476.9H546.3l-0.4,1.5l-79.5,11l-16.6-1.3c-1.8,3.2-2.9,6.9-2.9,10.9v41c0,12.2,9.9,22.1,22.1,22.1
				h382.5c12.2,0,22.1-9.9,22.1-22.1v-41C873.6,486.8,863.7,476.9,851.5,476.9L851.5,476.9z"/>
			<path class="st34" d="M536.1,540v-41c0-12.2,9.9-22.1,22.1-22.1H469c-12.2,0-22.1,9.9-22.1,22.1v41c0,12.2,9.9,22.1,22.1,22.1
				h89.2C546,562.1,536.1,552.2,536.1,540L536.1,540z"/>
			<g>
				<path class="st37" d="M662.4,455.7h-4.3c0.7,0,1.4,0,2.2,0S661.7,455.7,662.4,455.7L662.4,455.7z"/>
			</g>
		</g>
	</g>
	<g>
		<path d="M859.4,213.4v-86.1c11.2-3.1,19.9-12.5,21.7-24.2H913c10.4,0,18.9-8.5,18.9-18.9V71.5c0-10.4-8.5-18.9-18.9-18.9h-31.9
			c-2.3-14.3-14.7-25.3-29.7-25.3H469c-15,0-27.4,11-29.7,25.3h-31.8c-10.4,0-18.9,8.5-18.9,18.9v12.8c0,10.4,8.5,18.9,18.9,18.9
			h31.9c1.9,11.7,10.5,21.1,21.7,24.2v65.4c0,3.3,1.3,6.3,3.6,8.6l5.9,5.9l-8.5,8.5c-2.3,2.3-3.6,5.4-3.6,8.6v174.4
			c0,3.3,1.3,6.3,3.6,8.6l9.5,9.5l-11.2,17.8c-1.2,1.9-1.9,4.2-1.9,6.5v29.7c-10,3.7-17.4,12.6-19.1,23.4h-31.8
			c-10.4,0-18.9,8.5-18.9,18.9V526c0,10.4,8.5,18.9,18.9,18.9h31.9c2.3,14.3,14.7,25.3,29.7,25.3h382.5c15,0,27.4-11,29.7-25.3H913
			c10.4,0,18.9-8.5,18.9-18.9v-12.8c0-10.4-8.5-18.9-18.9-18.9h-31.9c-1.8-10.9-9.4-19.9-19.6-23.6v-225c0-3.7-1.6-7.2-4.4-9.7l-8-7
			l6.6-6.6C858.1,220,859.4,216.8,859.4,213.4L859.4,213.4z M916,71.5v12.8c0,1.6-1.3,3-3,3h-31.5V68.5H913
			C914.6,68.5,916,69.9,916,71.5z M404.5,84.3V71.5c0-1.6,1.3-3,3-3H439v18.7h-31.5C405.8,87.2,404.5,85.9,404.5,84.3z M454.8,98.3
			v-41c0-7.8,6.4-14.2,14.2-14.2h382.5c7.8,0,14.2,6.4,14.2,14.2v41c0,7.8-6.4,14.2-14.2,14.2H469
			C461.2,112.5,454.8,106.2,454.8,98.3z M404.5,525.9v-12.8c0-1.6,1.3-3,3-3H439v18.7h-31.5C405.8,528.9,404.5,527.5,404.5,525.9z
			 M916,513.1v12.8c0,1.6-1.3,3-3,3h-31.5v-18.7H913C914.6,510.2,916,511.5,916,513.1z M865.6,540c0,7.8-6.4,14.2-14.2,14.2H469
			c-7.8,0-14.2-6.4-14.2-14.2v-41c0-7.8,6.4-14.2,14.2-14.2h63.6c4.4,0,8-3.6,8-8s-3.6-8-8-8h-58.2V442l12.2-19.4
			c3.1-4.9,2.4-11.1-1.7-15.1L474.4,397V225.9l10-10c2.3-2.3,3.6-5.4,3.6-8.6s-1.3-6.3-3.6-8.6l-7.4-7.4v-62.8h366.6v83.7l-8.1,8.1
			c-2.5,2.5-3.9,6-3.7,9.5c0.1,3.5,1.7,6.9,4.4,9.2l9.5,8.2V469H566.5c-4.4,0-8,3.6-8,8s3.6,8,8,8h285c7.8,0,14.2,6.4,14.2,14.2
			L865.6,540L865.6,540z"/>
		<path d="M751.6,426.2c3.6-2.6,4.4-7.5,1.8-11.1c-2.6-3.6-7.5-4.4-11.1-1.8c-24,17.3-52.3,26.5-82,26.5
			c-77.2,0-140.1-62.8-140.1-140.1s62.8-140,140-140s140.1,62.8,140.1,140.1c0,33.7-12.2,66.3-34.2,91.8c-2.9,3.3-2.5,8.3,0.8,11.2
			c3.3,2.9,8.3,2.5,11.2-0.8c24.6-28.3,38.1-64.6,38.1-102.2c0-86-70-156-156-156s-156,70-156,156s70,156,156,156
			C693.3,455.7,724.9,445.5,751.6,426.2z"/>
		<path d="M578.3,217c-3.3-2.9-8.3-2.6-11.2,0.7c-20,22.7-31,51.8-31,82c0,68.5,55.7,124.2,124.2,124.2s124.2-55.7,124.2-124.2
			s-55.7-124.2-124.2-124.2c-23.2,0-45.8,6.5-65.4,18.7c-3.7,2.3-4.9,7.2-2.6,11c2.3,3.7,7.2,4.9,11,2.6
			c17.1-10.6,36.8-16.3,57-16.3c59.7,0,108.3,48.6,108.3,108.3S719.9,408,660.2,408S552,359.5,552,299.8c0-26.3,9.6-51.7,27.1-71.5
			C581.9,225,581.6,219.9,578.3,217L578.3,217z"/>
		<path d="M741.5,255.4c-2.3-4.2-6.7-6.8-11.5-6.8h-39.4l-19.1-30.9c-2.4-3.9-6.6-6.2-11.2-6.2s-8.8,2.3-11.2,6.2L630,248.6h-39.4
			c-4.8,0-9.2,2.6-11.5,6.8c-2.3,4.2-2.2,9.3,0.3,13.4l19,30.7l-19,30.7c-2.5,4.1-2.6,9.2-0.3,13.4c2.3,4.2,6.7,6.8,11.5,6.8H630
			l19.1,30.9c2.4,3.9,6.6,6.2,11.2,6.2c4.6,0,8.8-2.3,11.2-6.2l19.1-30.9H730c4.8,0,9.2-2.6,11.5-6.8c2.3-4.2,2.2-9.3-0.3-13.4
			l-19-30.7l19-30.7C743.7,264.7,743.8,259.6,741.5,255.4L741.5,255.4z M660.2,229.9l11.6,18.8h-23.3L660.2,229.9z M681.7,264.5
			l21.7,34.9l-21.7,34.9h-43L617,299.4l21.7-34.9H681.7z M595.4,264.5H620l-12.3,19.8L595.4,264.5z M595.4,334.4l12.3-19.8
			l12.3,19.8H595.4z M660.2,369.1l-11.6-18.8h23.3L660.2,369.1z M725,334.4h-24.6l12.3-19.8L725,334.4z M712.7,284.4l-12.3-19.8H725
			L712.7,284.4z"/>
	</g>
</g>
<g>
	<g class="st38">
		<path class="st39" d="M471.1,505.1h10.1l5.4,14.6c0.7,2,1.2,4.2,1.9,6.2h0.2c0.7-2.1,1.2-4.3,1.9-6.2l5.1-14.6h10.1v35.6h-8.5
			v-10.5c0-3.6,0.8-9.1,1.2-12.7h-0.2l-3,8.5l-4.4,11.8h-5l-4.4-11.8l-2.8-8.5h-0.2c0.4,3.6,1.2,9.1,1.2,12.7v10.5h-8.4V505.1z"/>
		<path class="st39" d="M519.9,505.1h11.4l10.8,35.6h-10l-4.1-17.3c-0.9-3.4-1.8-7.7-2.6-11.3h-0.2c-0.8,3.6-1.6,7.9-2.5,11.3
			l-4.1,17.3h-9.6L519.9,505.1z M516.9,525.9h17.4v7.3h-17.4V525.9z"/>
		<path class="st39" d="M544,523.2c0-11.9,8.2-18.7,17.7-18.7c5.3,0,9.1,2.2,11.6,4.7l-4.9,6c-1.8-1.5-3.5-2.6-6.4-2.6
			c-4.8,0-8.4,3.8-8.4,10.3c0,6.7,3,10.4,9.3,10.4c1,0,2.1-0.2,2.7-0.7v-4.9h-5.3V520H574v17c-2.5,2.4-7,4.4-12,4.4
			C552,541.4,544,535.4,544,523.2z"/>
		<path class="st39" d="M580.9,505.1h9.4v35.6h-9.4V505.1z"/>
		<path class="st39" d="M596.7,523.2c0-11.9,8.2-18.7,17.2-18.7c4.7,0,8.5,2.2,11.1,4.7l-4.9,6c-1.8-1.5-3.5-2.6-5.9-2.6
			c-4.2,0-7.8,3.8-7.8,10.3c0,6.7,3.1,10.4,7.7,10.4c2.7,0,4.9-1.4,6.5-3.1l4.9,5.9c-3,3.5-7.1,5.3-11.7,5.3
			C604.6,541.4,596.7,535.4,596.7,523.2z"/>
		<path class="st39" d="M641.3,505.1h23.2v7.9h-13.8v6.8h11.8v7.9h-11.8v13h-9.4V505.1z"/>
		<path class="st39" d="M670.6,505.1h9.4v35.6h-9.4V505.1z"/>
		<path class="st39" d="M687.9,505.1h9.6l7.9,15.9l3.4,8h0.2c-0.4-3.8-1.2-9.2-1.2-13.6v-10.3h9v35.6h-9.6l-7.9-15.9l-3.4-7.9h-0.2
			c0.4,4.1,1.2,9.2,1.2,13.6v10.3h-9V505.1z"/>
		<path class="st39" d="M731.1,505.1h11.4l10.8,35.6h-10l-4.1-17.3c-0.9-3.4-1.8-7.7-2.6-11.3h-0.2c-0.8,3.6-1.6,7.9-2.5,11.3
			l-4.1,17.3h-9.6L731.1,505.1z M728,525.9h17.4v7.3H728V525.9z"/>
		<path class="st39" d="M756.7,505.1h9.6l7.9,15.9l3.4,8h0.2c-0.4-3.8-1.2-9.2-1.2-13.6v-10.3h9v35.6H776l-7.9-15.9l-3.4-7.9h-0.2
			c0.4,4.1,1.2,9.2,1.2,13.6v10.3h-9V505.1z"/>
		<path class="st39" d="M792,523.2c0-11.9,8.2-18.7,17.2-18.7c4.7,0,8.5,2.2,11.1,4.7l-4.9,6c-1.8-1.5-3.5-2.6-5.9-2.6
			c-4.2,0-7.8,3.8-7.8,10.3c0,6.7,3.1,10.4,7.7,10.4c2.7,0,4.9-1.4,6.5-3.1l4.9,5.9c-3,3.5-7.1,5.3-11.7,5.3
			C799.9,541.4,792,535.4,792,523.2z"/>
		<path class="st39" d="M825.6,505.1h23v7.9H835v5.6h11.6v7.9H835v6.4h14.1v7.9h-23.5V505.1z"/>
	</g>
</g>
<g>
	<g class="st38">
		<path class="st39" d="M471.1,59.6h10.1l5.4,14.6c0.7,2,1.2,4.2,1.9,6.2h0.2c0.7-2.1,1.2-4.3,1.9-6.2l5.1-14.6h10.1v35.6h-8.5V84.7
			c0-3.6,0.8-9.1,1.2-12.7h-0.2l-3,8.5l-4.4,11.8h-5l-4.4-11.8l-2.8-8.5h-0.2c0.4,3.6,1.2,9.1,1.2,12.7v10.5h-8.4V59.6z"/>
		<path class="st39" d="M519.9,59.6h11.4l10.8,35.6h-10l-4.1-17.3c-0.9-3.4-1.8-7.7-2.6-11.3h-0.2c-0.8,3.6-1.6,7.9-2.5,11.3
			l-4.1,17.3h-9.6L519.9,59.6z M516.9,80.4h17.4v7.3h-17.4V80.4z"/>
		<path class="st39" d="M544,77.7c0-11.9,8.2-18.7,17.7-18.7c5.3,0,9.1,2.2,11.6,4.7l-4.9,6c-1.8-1.5-3.5-2.6-6.4-2.6
			c-4.8,0-8.4,3.8-8.4,10.3c0,6.7,3,10.4,9.3,10.4c1,0,2.1-0.2,2.7-0.7v-4.9h-5.3v-7.7H574v17c-2.5,2.4-7,4.4-12,4.4
			C552,95.9,544,89.8,544,77.7z"/>
		<path class="st39" d="M580.9,59.6h9.4v35.6h-9.4V59.6z"/>
		<path class="st39" d="M596.7,77.7c0-11.9,8.2-18.7,17.2-18.7c4.7,0,8.5,2.2,11.1,4.7l-4.9,6c-1.8-1.5-3.5-2.6-5.9-2.6
			c-4.2,0-7.8,3.8-7.8,10.3c0,6.7,3.1,10.4,7.7,10.4c2.7,0,4.9-1.4,6.5-3.1l4.9,5.9c-3,3.5-7.1,5.3-11.7,5.3
			C604.6,95.9,596.7,89.8,596.7,77.7z"/>
		<path class="st39" d="M641.3,59.6h23.2v7.9h-13.8v6.8h11.8v7.9h-11.8v13h-9.4V59.6z"/>
		<path class="st39" d="M670.6,59.6h9.4v35.6h-9.4V59.6z"/>
		<path class="st39" d="M687.9,59.6h9.6l7.9,15.9l3.4,8h0.2c-0.4-3.8-1.2-9.2-1.2-13.6V59.6h9v35.6h-9.6l-7.9-15.9l-3.4-7.9h-0.2
			c0.4,4.1,1.2,9.2,1.2,13.6v10.3h-9V59.6z"/>
		<path class="st39" d="M731.1,59.6h11.4l10.8,35.6h-10l-4.1-17.3c-0.9-3.4-1.8-7.7-2.6-11.3h-0.2c-0.8,3.6-1.6,7.9-2.5,11.3
			l-4.1,17.3h-9.6L731.1,59.6z M728,80.4h17.4v7.3H728V80.4z"/>
		<path class="st39" d="M756.7,59.6h9.6l7.9,15.9l3.4,8h0.2c-0.4-3.8-1.2-9.2-1.2-13.6V59.6h9v35.6H776l-7.9-15.9l-3.4-7.9h-0.2
			c0.4,4.1,1.2,9.2,1.2,13.6v10.3h-9V59.6z"/>
		<path class="st39" d="M792,77.7c0-11.9,8.2-18.7,17.2-18.7c4.7,0,8.5,2.2,11.1,4.7l-4.9,6c-1.8-1.5-3.5-2.6-5.9-2.6
			c-4.2,0-7.8,3.8-7.8,10.3c0,6.7,3.1,10.4,7.7,10.4c2.7,0,4.9-1.4,6.5-3.1l4.9,5.9c-3,3.5-7.1,5.3-11.7,5.3
			C799.9,95.9,792,89.8,792,77.7z"/>
		<path class="st39" d="M825.6,59.6h23v7.9H835v5.6h11.6V81H835v6.4h14.1v7.9h-23.5V59.6z"/>
	</g>
</g>
</svg>
