<?xml version="1.0" encoding="utf-8"?>
<!-- Generator: Adobe Illustrator 24.2.3, SVG Export Plug-In . SVG Version: 6.00 Build 0)  -->
<svg version="1.1" id="Слой_1" xmlns="http://www.w3.org/2000/svg" xmlns:xlink="http://www.w3.org/1999/xlink" x="0px" y="0px"
	 viewBox="0 0 300 300" style="enable-background:new 0 0 300 300;" xml:space="preserve">
<style type="text/css">
	.st0{fill:#3D068C;}
	.st1{fill:#744FC1;}
	.st2{fill:#2B0065;}
	.st3{fill:#8E6FCC;}
	.st4{fill:#5733B1;}
	.st5{fill:#5628B4;}
	.st6{fill:#3A0499;}
	.st7{fill:#E7455F;}
	.st8{fill:#F7B236;}
	.st9{fill:#EE7B8E;}
	.st10{fill:#B6A4E0;}
	.st11{fill:#FBD99C;}
</style>
<g>
	<path class="st0" d="M57.5,247.2c0,15.9,41.3,28.8,92.3,28.8s92.3-12.9,92.3-28.8L219,114.5c0-12.7-31-23.1-69.2-23.1
		s-69.2,10.3-69.2,23.1L57.5,247.2z"/>
	<ellipse class="st1" cx="149.8" cy="131.8" rx="126.9" ry="51.9"/>
	<path class="st2" d="M233,195.2l-4-23.2c-21,7.1-47.9,11.7-79.2,11.7h-0.2c0,0-0.1,0-0.1,0h-0.4c0,0-0.1,0-0.1,0h-0.2
		c0,0-0.1,0-0.1,0h-0.1c0,0,0,0,0,0h-0.1c0,0,0,0,0,0h-0.1c0,0,0,0,0,0h-0.1c0,0-0.1,0-0.1,0c0,0,0,0,0,0c0,0-0.1,0-0.1,0h0
		c0,0-0.1,0-0.1,0c0,0,0,0-0.1,0h-0.1c0,0,0,0-0.1,0c0,0-0.1,0-0.1,0h-0.1c0,0-0.1,0-0.1,0h-0.1c0,0-0.1,0-0.1,0c0,0,0,0-0.1,0
		c0,0,0,0-0.1,0c0,0,0,0-0.1,0c0,0-0.1,0-0.1,0c0,0,0,0-0.1,0c0,0,0,0-0.1,0c0,0,0,0-0.1,0c0,0,0,0-0.1,0c0,0,0,0-0.1,0
		c0,0-0.1,0-0.1,0c0,0,0,0-0.1,0c0,0,0,0-0.1,0c0,0,0,0-0.1,0c0,0,0,0-0.1,0c0,0-0.1,0-0.1,0c0,0,0,0,0,0c0,0-0.1,0-0.1,0
		c0,0,0,0,0,0c0,0-0.1,0-0.1,0c0,0,0,0,0,0l-0.2,0c0,0,0,0,0,0c0,0-0.1,0-0.1,0c0,0,0,0,0,0l-0.3,0c0,0,0,0,0,0c0,0-0.1,0-0.1,0h0
		c-0.1,0-0.2,0-0.3,0h0l-0.1,0h0c-0.1,0-0.2,0-0.3,0h0c-4.5-0.1-8.9-0.2-13.2-0.5c-0.2,0-0.5,0-0.7,0c-6.4,0-11.5,5.2-11.5,11.5
		c0,6.1,4.8,11.1,10.8,11.5c6.6,0.4,13.4,0.6,20.2,0.6C181.3,206.8,209.7,202.6,233,195.2L233,195.2z"/>
	<path class="st3" d="M149.8,79.9c-76.1,0-126.9,26.8-126.9,51.9c0,12.5,12.6,25.4,34.5,35.2c0-0.2,0.1-0.4,0.1-0.6
		c0-22.3,18.1-40.4,40.4-40.4h103.8c22.3,0,40.4,18.1,40.4,40.4c0,0.2,0.1,0.4,0.1,0.6c22-9.8,34.5-22.7,34.5-35.2
		C276.7,106.8,225.9,79.9,149.8,79.9L149.8,79.9z"/>
	<path class="st4" d="M270.9,137.2c0.1,0,0.1,0,0.2,0c3.2-0.1,5.7-2.8,5.6-5.9l0,0c-0.2-3.5-1.1-6.9-2.9-9.9l0,0
		c-0.1-0.2-0.2-0.4-0.3-0.5l0,0c0,0,0-0.1,0-0.1l0,0c-0.1-0.2-0.2-0.4-0.3-0.5l0,0c0,0,0,0,0,0l0,0l0,0l0,0
		c-0.1-0.2-0.2-0.3-0.3-0.5l0,0c0,0,0,0,0,0l0,0c0,0,0,0,0,0l0,0c0,0,0,0,0,0l0,0c0,0,0,0,0,0l0,0l0,0l0,0c-0.1-0.1-0.2-0.3-0.3-0.4
		l0,0l0,0l0,0c0,0,0,0,0,0l0,0c0,0,0,0,0,0l0,0c0,0,0,0,0,0l0,0l0,0l0,0l0,0h0c-0.1-0.1-0.2-0.2-0.2-0.3l0,0l0,0l0,0l0,0l0,0
		c0,0,0,0,0,0l0,0c0,0,0,0,0,0l0,0l0,0l0,0l0,0l0,0l0,0c-0.1-0.1-0.2-0.2-0.2-0.3l0,0c0,0,0,0,0,0l0,0c0,0,0,0,0,0l0,0l0,0l0,0l0,0
		l0,0l0,0l0,0l0,0c-0.1-0.1-0.2-0.2-0.2-0.3l0,0l0,0l0,0c0,0,0,0,0,0l0,0c0,0,0,0,0,0l0,0l0,0l0,0l0,0l0,0l0,0l0,0l0,0l0,0l0,0l0,0
		c-0.1-0.1-0.1-0.2-0.2-0.2l0,0c0,0,0,0,0,0l0,0l0,0l0,0l0,0l0,0l0,0l0,0l0,0l0,0c0,0,0,0,0,0l0,0c0,0,0,0,0,0l0,0c0,0,0,0,0,0l0,0
		l0,0l0,0c0,0,0,0,0,0l0,0c0-0.1-0.1-0.1-0.1-0.2l0,0c0,0,0,0-0.1-0.1l0,0c0,0,0,0,0,0l0,0l0,0l0,0l0,0l0,0c0,0,0,0,0,0l0,0l0,0l0,0
		c0,0,0,0,0,0l0,0l0,0l0,0l0,0l0,0c0,0,0,0,0,0v0c-0.1-0.1-0.1-0.1-0.2-0.2l0,0c0,0,0,0-0.1-0.1l0,0l0,0l0,0l0,0l0,0l0,0l0,0l0,0
		l0,0l0,0l0,0l0,0l0,0c0,0,0,0,0,0l0,0l0,0l0,0c-0.1-0.1-0.1-0.2-0.2-0.2l0,0l0,0l0,0l0,0l0,0l0,0l0,0l0,0l0,0l0,0l0,0c0,0,0,0,0,0
		l0,0l0,0l0,0l0,0l0,0l0,0l0,0c0,0,0,0,0,0c-0.1-0.1-0.1-0.1-0.2-0.2l0,0c0,0,0,0,0,0l0,0l0,0l0,0c0,0,0,0,0,0l0,0c0,0,0,0,0,0l0,0
		l0,0l0,0l0,0l0,0l0,0l0,0c0,0,0,0,0,0l0,0l0,0l0,0c-0.1-0.1-0.1-0.2-0.2-0.2l0,0l0,0l0,0l0,0l0,0l0,0l0,0l0,0l0,0c0,0,0,0,0,0l0,0
		l0,0l0,0l0,0l0,0l0,0l0,0l0,0l0,0l0,0l0,0c-0.1-0.1-0.1-0.1-0.2-0.2l0,0c0,0,0,0,0,0l0,0c0,0,0,0,0,0l0,0c0,0,0,0,0,0l0,0
		c0,0,0,0,0,0l0,0c0,0,0,0,0,0l0,0c0,0,0,0,0,0l0,0l0,0l0,0l0,0l0,0c-0.1-0.1-0.2-0.2-0.3-0.3l0,0l0,0l0,0l0,0l0,0l0,0l0,0l0,0l0,0
		l0,0l0,0c0,0,0,0,0,0l0,0l0,0l0,0l0,0l0,0c0,0,0,0,0,0l0,0c-0.1-0.1-0.1-0.1-0.2-0.2l0,0c0,0,0,0,0,0l0,0l0,0l0,0c0,0,0,0,0,0l0,0
		l0,0l0,0l0,0l0,0l0,0l0,0l0,0l0,0l0,0l0,0l0,0l0,0l0,0l0,0c-0.1,0-0.1-0.1-0.2-0.1l0,0l0,0l0,0l0,0l0,0l0,0l0,0l0,0l0,0
		c0,0,0,0,0,0l0,0l0,0l0,0l0,0l0,0l0,0l0,0l0,0l0,0c0,0,0,0,0,0l0,0l0,0l0,0c-0.1-0.1-0.1-0.1-0.2-0.2l0,0c0,0,0,0,0,0l0,0l0,0l0,0
		l0,0l0,0l0,0l0,0l0,0l0,0c0,0,0,0,0,0l0,0l0,0l0,0l0,0l0,0l0,0l0,0l0,0l0,0c-0.1-0.1-0.1-0.1-0.2-0.2l0,0l0,0l0,0c0,0,0,0,0,0l0,0
		c0,0,0,0,0,0l0,0l0,0l0,0l0,0l0,0l0,0l0,0l0,0l0,0l0,0l0,0l0,0l0,0l0,0l0,0l0,0l0,0c-0.1,0-0.1-0.1-0.2-0.1l0,0c0,0,0,0,0,0l0,0
		c0,0,0,0,0,0l0,0l0,0l0,0l0,0l0,0c0,0,0,0,0,0l0,0l0,0l0,0l0,0l0,0l0,0l0,0c0,0,0,0,0,0l0,0c0,0,0,0,0,0l0,0c0,0,0,0,0,0l0,0
		c0,0,0,0,0,0l0,0l-0.2-0.1l0,0l0,0l0,0c0,0,0,0,0,0l0,0l0,0l0,0l0,0l0,0c0,0,0,0,0,0l0,0c0,0,0,0,0,0l0,0c0,0,0,0,0,0l0,0l0,0l0,0
		l0,0l0,0l0,0l0,0c0,0,0,0,0,0l0,0l0,0l0,0c0,0-0.1-0.1-0.1-0.1l0,0l0,0l0,0l0,0l0,0l0,0l0,0l0,0l0,0l0,0l0,0l0,0l0,0l0,0l0,0l0,0
		l0,0c0,0,0,0,0,0l0,0l0,0l0,0l0,0l0,0c0,0,0,0,0,0l0,0l0,0l0,0c0,0,0,0,0,0l0,0c0,0,0,0,0,0l0,0c0,0,0,0,0,0l0,0l0,0l0,0l0,0l0,0
		l0,0l0,0c0,0,0,0,0,0l0,0l0,0l0,0l0,0l0,0l0,0l0,0l0,0l0,0l0,0l0,0l0,0l0,0l0,0l0,0l0,0l0,0l0,0l0,0c0,0,0,0,0,0l0,0l0,0l0,0l0,0
		l0,0l0,0l0,0c0,0,0,0,0,0l0,0l0,0l0,0l0,0l0,0l0,0l0,0l0,0l0,0l0,0l0,0l0,0l0,0l0,0l0,0l0,0l0,0l0,0c0,0,0,0-0.1,0l0,0l0,0l0,0l0,0
		l0,0l0,0l0,0l0,0l0,0l0,0l0,0l0,0l0,0l0,0l0,0l0,0l0,0l0,0l0,0l0,0l0,0l0,0l0,0l0,0l0,0l0,0l0,0c-0.1-0.1-0.1-0.1-0.2-0.2l0,0l0,0
		l0,0c0,0,0,0,0,0l0,0l0,0l0,0l0,0l0,0c0,0,0,0,0,0l0,0l0,0l0,0l0,0l0,0l0,0l0,0l0,0l0,0l0,0l0,0l0,0l0,0c-0.1-0.1-0.2-0.1-0.2-0.2
		l0,0c0,0,0,0,0,0l0,0l0,0l0,0l0,0l0,0l0,0l0,0l0,0l0,0l0,0l0,0l0,0l0,0l0,0l0,0l0,0l0,0l0,0l0,0c0,0,0,0,0,0l0,0
		c-0.1-0.1-0.2-0.1-0.3-0.2l0,0l0,0l0,0l0,0l0,0c0,0,0,0,0,0l0,0l0,0l0,0l0,0l0,0c0,0,0,0,0,0l0,0l0,0l0,0c0,0,0,0,0,0l0,0l0,0l0,0
		c0,0,0,0,0,0l0,0c-0.1-0.1-0.2-0.1-0.3-0.2l0,0l0,0l0,0l0,0l0,0c0,0,0,0,0,0l0,0c0,0,0,0,0,0l0,0c0,0,0,0,0,0l0,0c0,0,0,0,0,0l0,0
		c0,0,0,0,0,0l0,0c0,0,0,0,0,0l0,0c-0.1-0.1-0.3-0.2-0.4-0.3l0,0l0,0l0,0l0,0l0,0c0,0,0,0,0,0l0,0l0,0l0,0l0,0l0,0l0,0l0,0
		c0,0,0,0,0,0l0,0c0,0,0,0,0,0l0,0c-0.2-0.1-0.4-0.3-0.6-0.4l0,0l-0.1,0l0,0l-0.1,0h0c-6.1-3.8-12.6-7-19.3-9.5
		c-3-1.2-6.3,0.3-7.5,3.3c-1.2,3,0.3,6.3,3.3,7.5c22.6,8.9,32.9,19.8,33.2,26.7C265.2,134.7,267.8,137.2,270.9,137.2L270.9,137.2z
		 M149.8,183.7h0.2c0,0,0,0,0.1,0h0.1c0,0,0,0,0.1,0h0.1c0,0,0,0,0.1,0c0,0,0,0,0.1,0h0.1c0,0,0,0,0.1,0h0.1c0,0,0,0,0,0
		c0,0,0,0,0.1,0h0.1c0,0,0,0,0.1,0c0,0,0,0,0.1,0h0.1h0l0.1,0h0l0.1,0h0c0,0,0,0,0.1,0h0l0.1,0h0l0.1,0h0.1c0,0,0,0,0.1,0
		c0,0,0,0,0.1,0c0,0,0,0,0.1,0l0.1,0c0,0,0,0,0.1,0c0,0,0,0,0.1,0l0.1,0h0l0.1,0c0,0,0,0,0,0c0,0,0.1,0,0.1,0h0l0.1,0h0l0.1,0l0,0
		c0,0,0,0,0.1,0l0,0l0.1,0l0,0c0,0,0,0,0.1,0l0,0c0,0,0,0,0.1,0l0,0l0.1,0l0,0l0.1,0l0,0c0,0,0.1,0,0.1,0l0,0c0,0,0.1,0,0.1,0l0,0
		l0.1,0c0,0,0.1,0,0.1,0c0,0,0,0,0.1,0l0,0l0.1,0l0.1,0c0,0,0,0,0.1,0c0,0,0,0,0.1,0l0.1,0l0.1,0l0.1,0l0,0l0.1,0l0.1,0l0.1,0
		c0,0,0,0,0.1,0l0.1,0l0.1,0l0.1,0l0.1,0l0.1,0l0,0c0,0,0.1,0,0.1,0l0,0c0,0,0.1,0,0.1,0l0,0l0.1,0c0,0,0,0,0.1,0l0.1,0l0.1,0l0.1,0
		l0.1,0c0,0,0,0,0.1,0l0.1,0l0.1,0c0,0,0,0,0.1,0l0.1,0l0.1,0l0.1,0l0.1,0l0.1,0l0.1,0c0,0,0,0,0.1,0c0,0,0,0,0.1,0l0.1,0l0.1,0
		c0,0,0,0,0.1,0l0.1,0l0.1,0l0.1,0l0.1,0c0,0,0,0,0.1,0l0.1,0l0.1,0l0.1,0l0,0l0.1,0l0.1,0c0,0,0,0,0.1,0c0,0,0,0,0.1,0
		c0,0,0,0,0.1,0l0.1,0l0.1,0c0,0,0,0,0.1,0l0,0l0.1,0l0,0l0.1,0c0,0,0,0,0.1,0c0,0,0,0,0.1,0l0.1,0c0,0,0,0,0.1,0l0.1,0l0.1,0l0.1,0
		l0.1,0l0.1,0c0,0,0,0,0.1,0l0.1,0c0,0,0,0,0.1,0l0,0l0.1,0l0.1,0l0.1,0c0,0,0,0,0.1,0l0,0c0,0,0.1,0,0.1,0c0,0,0,0,0.1,0l0,0
		c0,0,0,0,0.1,0l0.1,0l0.1,0c0,0,0,0,0.1,0l0.1,0l0,0l0.1,0l0,0l0.1,0l0.1,0l0.1,0l0,0l0.1,0l0.1,0l0.1,0l0,0l0.1,0l0.1,0l0.1,0
		c0,0,0.1,0,0.1,0l0,0l0.1,0l0.1,0l0.1,0l0.1,0l0.1,0l0.1,0l0.1,0c0,0,0,0,0.1,0l0.1,0l0.1,0l0,0c0,0,0,0,0.1,0l0,0c0,0,0,0,0.1,0
		l0,0l0.1,0l0,0l0.1,0l0,0l0.2,0l0,0c0,0,0,0,0.1,0l0,0c0,0,0,0,0.1,0l0,0l0.1,0l0,0c0,0,0,0,0.1,0l0,0l0.1,0l0.1,0l0.1,0l0.1,0
		l0.1,0l0,0l0.1,0l0,0c0,0,0.1,0,0.1,0l0,0c0.1,0,0.2,0,0.3,0l0,0c0,0,0,0,0.1,0l0,0l0.1,0c0,0,0,0,0.1,0l0.1,0l0,0l0.1,0l0,0
		c0,0,0,0,0.1,0c0,0,0,0,0,0l0.1,0l0.1,0c0,0,0,0,0.1,0c0,0,0,0,0.1,0l0.1,0l0.1,0c0,0,0,0,0.1,0c0,0,0,0,0.1,0l0.1,0c0,0,0,0,0.1,0
		l0.1,0l0,0l0.1,0l0,0l0.1,0l0,0l0.1,0l0,0c0,0,0,0,0.1,0l0,0l0.1,0l0,0l0.1,0l0,0c0,0,0,0,0.1,0l0,0l0.1,0l0,0c0.1,0,0.3,0,0.4,0
		l0,0c0,0,0.1,0,0.1,0l0,0l0.1,0l0,0l0.1,0l0,0c0,0,0.1,0,0.1,0l0,0c0,0,0.1,0,0.1,0l0,0l0.1,0l0,0c0.2,0,0.4,0,0.6,0l0,0
		c0,0,0.1,0,0.1,0l0,0l0.1,0l0,0l0.1,0l0,0l0.1,0l0,0c0,0,0.1,0,0.1,0l0,0l0.1,0l0,0l0.1,0l0,0c0.1,0,0.3,0,0.4,0h0c0,0,0.1,0,0.1,0
		l0,0l0.1,0l0,0l0.1,0l0,0l0.1,0l0,0c0,0,0.1,0,0.1,0l0,0c0,0,0.1,0,0.1,0l0,0c0,0,0.1,0,0.1,0l0,0c0.2,0,0.4,0,0.6,0l0,0l0.1,0l0,0
		c0,0,0.1,0,0.1,0l0,0c0,0,0.1,0,0.1,0l0,0l0.1,0l0,0l0.1,0l0,0l0.1,0l0,0c0.2,0,0.3,0,0.5,0h0c0,0,0.1,0,0.1,0l0,0c0,0,0.1,0,0.1,0
		l0,0c0,0,0.1,0,0.1,0l0,0l0.1,0l0,0l0.1,0l0,0c0,0,0.1,0,0.1,0l0,0c0.2,0,0.4,0,0.6,0h0c0,0,0.1,0,0.1,0l0,0l0.1,0l0,0l0.1,0l0,0
		c0,0,0.1,0,0.1,0l0,0c0,0,0.1,0,0.1,0l0,0c0.2,0,0.5,0,0.7-0.1h0l0.1,0l0,0c0,0,0.1,0,0.1,0l0,0l0.1,0l0,0l0.1,0l0,0
		c0,0,0.1,0,0.1,0h0c0.2,0,0.4,0,0.6,0l0,0l0.1,0h0c0,0,0.1,0,0.1,0l0,0c0,0,0.1,0,0.1,0h0c0,0,0.1,0,0.1,0l0,0c0.3,0,0.7-0.1,1-0.1
		l0,0c0,0,0.1,0,0.1,0l0,0l0.1,0l0,0c18.2-1.5,34.4-4.7,48.3-8.9l0,0l0.1,0l0,0l0.1,0l0,0l0.1,0l0,0c0.2-0.1,0.4-0.1,0.6-0.2l0,0
		l0.1,0l0,0l0.1,0l0,0c0,0,0,0,0.1,0l0,0l0.1,0l0,0c0,0,0,0,0.1,0l0,0c0.2,0,0.3-0.1,0.5-0.1l0,0l0.1,0l0,0c0,0,0,0,0.1,0l0,0
		c0,0,0,0,0.1,0l0,0l0.1,0l0,0c0,0,0,0,0.1,0l0,0l0.1,0l0,0c0,0,0,0,0.1,0l0,0c0.1,0,0.2-0.1,0.3-0.1l0,0c0,0,0,0,0.1,0l0,0
		c0,0,0,0,0.1,0l0,0l0.1,0l0,0l0.1,0l0,0l0.1,0l0,0c0,0,0,0,0.1,0l0,0l0,0l0,0l0.1,0l0,0c0,0,0.1,0,0.1,0c0,0,0,0,0,0l0,0l0,0l0,0
		l0,0l0,0l0,0l0,0c0,0,0,0,0,0l0,0l0,0l0,0l0,0l0,0l0,0l0,0l0.1,0l0,0l0.1,0l0,0c0.1,0,0.1,0,0.2-0.1l0,0l0.1,0l0,0l0.1,0l0,0
		c0,0,0,0,0.1,0l0,0c0,0,0,0,0.1,0l0,0l0.1,0l0,0l0.1,0l0,0c0,0,0,0,0.1,0l0,0l0.1,0l0,0c0,0,0.1,0,0.1,0l0,0c0.1,0,0.1,0,0.2-0.1
		l0,0l0.1,0l0,0c0,0,0,0,0.1,0l0,0c0,0,0,0,0.1,0l0,0l0.1,0l0,0l0.1,0l0,0c0,0,0.1,0,0.1,0l0,0c0.2-0.1,0.3-0.1,0.5-0.2l0,0
		c0,0,0.1,0,0.1,0l0,0c0,0,0.1,0,0.1,0c0,0,0,0,0,0c0.1,0,0.1,0,0.2-0.1l0,0c6-2.1,11.9-4.5,17.6-7.4c2.8-1.4,4-4.9,2.5-7.8
		c-1.4-2.8-4.9-4-7.8-2.5c0,0,0,0,0,0c-22.6,11.5-56.4,18.1-92.7,18.1c-68.1,0-108.6-22.1-114.6-37c-1.2-3-4.5-4.4-7.5-3.2
		c-2.9,1.2-4.4,4.5-3.2,7.5c2.5,6.3,8,12.5,16.2,18.2l0,0c0.1,0.1,0.3,0.2,0.4,0.3l0,0c0.1,0.1,0.3,0.2,0.4,0.3l0,0l0,0l0,0l0,0l0,0
		c0.1,0.1,0.2,0.1,0.3,0.2l0,0c0,0,0,0,0,0l0,0c0,0,0,0,0,0l0,0c0.1,0.1,0.2,0.2,0.3,0.2l0,0l0,0l0,0c0,0,0,0,0,0l0,0l0,0l0,0
		c0,0,0,0,0,0l0,0c0.1,0.1,0.2,0.1,0.2,0.2l0,0l0,0l0,0l0,0l0,0l0,0l0,0l0,0l0,0c0.1,0,0.1,0.1,0.2,0.1l0,0l0,0l0,0l0,0l0,0l0,0l0,0
		c0,0,0,0,0,0l0,0l0,0l0,0c0.1,0,0.1,0.1,0.2,0.1l0,0l0,0l0,0c0,0,0,0,0,0l0,0l0,0l0,0c0.1,0.1,0.2,0.1,0.3,0.2l0,0l0,0l0,0l0,0l0,0
		l0,0l0,0l0,0l0,0c0.1,0,0.1,0.1,0.2,0.1l0,0l0,0l0,0l0,0l0,0l0,0l0,0l0,0l0,0l0,0l0,0c0,0,0,0,0,0l0,0c0.1,0,0.1,0.1,0.2,0.1l0,0
		c0,0,0,0,0,0l0,0l0,0l0,0l0,0l0,0c0,0,0,0,0,0l0,0c0,0,0,0,0,0l0,0c0.1,0,0.1,0.1,0.2,0.1l0,0l0,0l0,0c0,0,0,0,0,0l0,0l0,0l0,0l0,0
		l0,0l0.1,0.1l0,0c0.1,0,0.1,0.1,0.2,0.1l0,0c0,0,0,0,0,0l0,0l0,0l0,0c0,0,0,0,0,0l0,0c0,0,0,0,0,0l0,0l0,0l0,0
		c0.1,0,0.1,0.1,0.2,0.1l0,0l0,0l0,0l0,0l0,0l0,0l0,0l0,0l0,0l0,0l0,0l0,0l0,0c0.1,0,0.1,0.1,0.2,0.1l0,0l0,0l0,0l0,0l0,0l0,0l0,0
		l0,0l0,0c0,0,0,0,0,0l0,0l0,0l0,0l0.1,0l0,0c0,0,0,0,0.1,0l0,0c0,0,0,0,0,0l0,0l0,0l0,0l0,0l0,0l0,0l0,0l0,0l0,0l0,0l0,0
		c0,0,0.1,0,0.1,0.1l0,0c0,0,0.1,0,0.1,0.1l0,0l0,0l0,0c0,0,0,0,0,0l0,0c0,0,0,0,0,0l0,0l0,0l0,0l0,0l0,0c0,0,0,0,0,0l0,0
		c0,0,0.1,0,0.1,0.1l0,0c0,0,0,0,0,0l0,0l0,0l0,0l0,0l0,0l0,0l0,0l0,0l0,0l0,0l0,0l0.2,0.1l0,0l0.1,0l0,0c0,0,0,0,0,0l0,0l0,0l0,0
		l0,0l0,0l0,0l0,0l0,0l0,0c0,0,0,0,0,0l0,0l0.1,0.1l0,0c0,0,0,0,0,0l0,0l0,0l0,0c0,0,0,0,0,0l0,0l0,0l0,0l0,0l0,0l0,0l0,0
		c0,0,0.1,0,0.1,0.1l0,0l0,0l0,0l0,0l0,0l0,0l0,0l0,0l0,0l0,0l0,0l0,0l0,0l0,0l0,0c0.1,0,0.1,0.1,0.2,0.1l0,0c0,0,0,0,0,0l0,0l0,0
		l0,0l0,0l0,0l0,0l0,0c0,0,0,0,0,0l0,0l0,0l0,0c0,0,0.1,0,0.1,0.1l0,0l0,0l0,0l0,0l0,0l0,0l0,0l0,0l0,0l0,0l0,0l0,0l0,0l0,0l0,0
		l0.1,0.1l0,0l0,0l0,0c0,0,0,0,0,0l0,0l0,0l0,0c0,0,0,0,0,0l0,0l0,0l0,0l0,0l0,0c0,0,0,0,0.1,0l0,0c0,0,0.1,0,0.1,0.1l0,0l0,0l0,0
		l0,0l0,0l0,0l0,0l0,0l0,0l0,0l0,0l0,0l0,0c0,0,0,0,0.1,0l0,0c0,0,0,0,0.1,0l0,0c0,0,0,0,0,0l0,0l0,0l0,0l0,0l0,0l0,0l0,0l0,0l0,0
		l0,0l0,0l0,0l0,0l0,0l0,0c0,0,0.1,0,0.1,0.1l0,0l0,0l0,0l0,0l0,0l0,0l0,0c0,0,0,0,0,0l0,0l0,0l0,0l0,0l0,0l0.1,0l0,0l0.1,0l0,0l0,0
		l0,0l0,0l0,0l0,0l0,0l0,0l0,0l0,0l0,0l0,0l0,0l0,0l0,0l0,0l0,0c0,0,0,0,0,0l0,0l0,0l0,0l0,0l0,0l0,0l0,0l0,0l0,0l0,0l0,0l0,0l0,0
		l0,0l0,0l0,0l0,0l0,0l0,0l0,0l0,0l0,0l0,0l0,0l0,0l0,0l0,0l0,0l0,0l0,0l0,0l0,0l0,0l0,0c0,0,0,0,0,0c0,0,0,0,0,0l0,0l0,0l0,0l0,0
		l0,0l0,0l0,0l0,0l0,0l0,0l0,0l0,0l0,0l0,0l0,0l0,0c0,0,0,0,0.1,0l0,0l0,0l0,0c0,0,0,0,0,0l0,0l0,0l0,0l0,0l0,0l0,0l0,0c0,0,0,0,0,0
		l0,0l0,0l0,0l0,0l0,0c0,0,0,0,0,0c0,0,0,0,0,0l0,0l0,0l0,0l0,0l0,0l0,0l0,0l0,0l0,0l0,0l0,0l0,0l0,0l0,0l0.1,0.1l0,0l0,0l0,0l0,0
		l0,0l0,0l0,0l0,0l0,0l0,0l0,0l0,0l0,0l0,0l0,0l0,0l0.1,0l0,0l0,0l0,0l0,0l0,0l0,0l0,0l0,0l0,0l0,0l0,0l0,0l0,0l0,0
		c0.1,0,0.1,0.1,0.2,0.1l0,0l0,0l0,0l0,0l0,0c0,0,0,0,0,0l0,0c0,0,0,0,0,0l0,0l0,0l0,0l0,0l0,0c0,0,0.1,0,0.1,0.1l0,0l0,0l0,0
		c0,0,0,0,0,0l0,0l0,0l0,0l0,0l0,0l0,0l0,0l0,0l0,0l0,0l0,0l0,0c0,0,0,0,0.1,0l0,0l0,0l0,0l0,0l0,0l0,0l0,0l0,0l0,0l0,0l0,0l0,0l0,0
		l0,0l0,0l0,0l0,0c0,0,0,0,0.1,0l0,0l0,0l0,0l0,0l0,0l0,0l0,0l0,0l0,0l0,0l0,0l0,0l0,0l0,0l0,0l0,0c0,0,0.1,0,0.1,0l0,0c0,0,0,0,0,0
		l0,0l0,0l0,0l0,0l0,0l0,0l0,0l0,0l0,0l0,0l0,0l0,0l0,0l0,0l0,0c0,0,0,0,0.1,0l0,0l0,0l0,0l0,0l0,0l0,0l0,0l0,0l0,0l0,0l0,0l0,0
		c0,0,0,0,0,0l0,0l0,0l0,0l0,0l0,0l0,0l0,0l0,0l0,0l0,0l0,0l0,0l0,0l0,0l0,0l0,0l0,0l0,0l0,0l0,0l0,0c0,0,0,0,0,0l0.1,0l0,0l0,0l0,0
		l0,0l0,0l0,0l0,0l0,0l0,0l0,0l0,0l0,0l0,0l0,0l0,0c0,0,0.1,0,0.1,0.1l0,0c0,0,0,0,0,0l0,0l0,0l0,0l0,0l0,0l0,0l0,0l0,0l0,0l0,0l0,0
		l0,0l0.1,0l0,0l0,0l0.1,0l0,0l0,0l0,0l0,0l0,0l0,0l0,0l0,0l0,0l0,0c0,0,0,0,0,0l0,0l0,0l0,0l0,0l0,0c0,0,0,0,0.1,0l0,0
		c0,0,0,0,0.1,0l0,0l0,0l0,0l0,0l0,0l0,0l0,0l0,0l0,0l0,0l0,0l0,0l0,0c0,0,0.1,0,0.1,0.1l0,0l0,0l0,0l0,0l0,0l0,0l0,0l0,0l0,0l0,0
		l0,0c0,0,0,0,0,0l0,0l0.1,0l0,0c0,0,0.1,0,0.1,0.1l0,0l0.1,0l0,0l0,0l0,0l0,0l0,0l0,0l0,0l0,0l0,0l0,0l0,0l0,0l0,0
		c0,0,0.1,0,0.1,0.1l0,0l0,0l0,0l0,0l0,0l0,0l0,0l0,0l0,0l0,0l0,0l0,0l0,0l0,0l0,0l0.1,0l0,0l0,0l0,0l0,0l0,0l0,0l0,0l0,0
		c0,0,0,0,0,0l0,0l0,0l0,0l0,0l0,0l0,0l0,0l0,0l0.1,0l0,0l0.1,0l0,0c0,0,0,0,0,0l0,0l0,0l0,0l0,0l0,0l0,0l0,0l0,0l0,0l0,0l0,0l0,0
		c0,0,0.1,0,0.1,0l0,0c0,0,0,0,0,0l0,0l0,0l0,0l0,0l0,0l0,0l0,0l0,0l0,0l0,0l0,0l0,0l0,0l0,0c0,0,0,0,0.1,0l0,0c0,0,0,0,0.1,0l0,0
		l0,0l0,0l0,0l0,0l0,0l0,0l0,0l0,0l0,0l0,0c0,0,0,0,0,0l0,0l0,0l0,0l0.1,0l0.1,0l0,0l0,0l0,0l0,0c0,0,0,0,0,0l0,0l0,0l0,0
		c0,0,0,0,0,0l0,0l0,0l0,0l0,0l0,0l0,0l0,0l0,0l0.1,0l0,0l0,0l0,0l0,0l0,0l0,0l0,0l0,0l0,0l0,0l0,0l0,0l0,0l0,0l0,0l0,0l0,0l0.1,0
		l0,0l0,0l0,0l0,0l0,0c0,0,0,0,0,0l0,0c0,0,0,0,0,0l0,0l0,0l0,0l0,0l0,0l0,0l0,0c0,0,0.1,0,0.1,0l0,0l0,0l0,0l0,0c0,0,0,0,0,0l0,0
		l0,0c0,0,0,0,0,0l0,0l0,0l0,0l0,0l0,0l0,0l0,0l0.1,0l0,0c0,0,0.1,0,0.1,0l0,0l0,0l0,0l0,0l0,0l0,0l0,0l0,0l0,0l0,0l0,0c0,0,0,0,0,0
		l0,0l0,0l0,0l0,0l0,0c0,0,0.1,0,0.1,0l0,0l0,0l0,0l0,0l0,0c0,0,0,0,0,0l0,0l0,0l0,0l0,0l0,0l0,0l0,0c0,0,0,0,0,0l0,0l0,0
		c0,0,0,0,0.1,0l0,0c0,0,0,0,0.1,0l0,0l0,0l0,0l0,0l0,0c0,0,0,0,0,0l0,0l0,0l0,0l0,0l0,0l0.1,0l0,0c0,0,0,0,0.1,0l0,0
		c0,0,0.1,0,0.1,0l0,0l0,0l0,0l0,0l0,0l0,0l0,0l0,0l0,0l0,0l0,0l0,0l0,0l0,0l0,0l0.1,0l0,0l0,0l0,0l0,0l0,0l0,0l0,0c0,0,0,0,0,0l0,0
		l0,0l0,0l0,0l0,0l0,0l0,0l0,0c0,0,0.1,0,0.1,0l0,0l0,0l0,0l0,0l0,0l0,0l0,0l0,0l0,0l0,0l0,0l0,0l0,0l0,0c0,0,0,0,0.1,0l0,0l0.1,0
		l0,0l0.1,0l0,0l0,0l0,0l0,0l0,0l0,0l0,0l0,0l0,0l0,0l0,0l0,0l0,0l0,0l0.1,0l0,0c0,0,0.1,0,0.1,0l0,0l0,0l0,0l0,0l0,0l0,0l0,0l0,0
		l0,0l0,0c0,0,0,0,0,0l0,0c0,0,0,0,0,0l0,0l0,0l0,0l0,0l0.1,0l0,0l0,0l0,0l0,0l0,0l0,0l0,0l0,0l0,0l0,0l0,0l0,0l0,0c0,0,0,0,0,0l0,0
		l0,0l0.1,0l0,0l0,0l0,0l0,0l0,0l0,0l0,0l0.1,0l0,0l0,0l0,0l0,0l0,0l0,0l0,0l0,0l0,0c0,0,0,0,0.1,0l0,0c0,0,0,0,0,0l0,0l0,0l0,0l0,0
		l0,0l0,0l0,0l0,0l0,0l0,0c0,0,0,0,0,0l0,0c0,0,0,0,0,0c0,0,0,0,0.1,0h0l0.1,0l0,0l0,0l0,0l0,0l0,0l0,0l0,0l0,0l0,0l0,0l0,0l0,0l0,0
		l0,0l0,0l0,0l0,0l0.1,0l0,0c0,0,0,0,0,0c0,0,0,0,0,0l0,0l0,0l0,0l0,0l0,0l0,0c0,0,0,0,0.1,0l0,0l0,0l0,0c0,0,0,0,0.1,0l0,0l0.2,0
		l0,0c0,0,0,0,0,0l0,0l0,0l0,0l0,0l0,0l0,0l0,0l0,0l0,0l0,0c0,0,0,0,0,0l0,0l0,0l0,0l0.1,0l0,0l0,0l0,0l0,0l0,0l0,0l0,0l0,0l0,0l0,0
		l0,0l0,0l0,0l0,0c0,0,0,0,0.1,0l0,0c0.1,0,0.1,0,0.2,0l0,0l0,0l0,0l0.1,0l0,0c0,0,0,0,0.1,0l0,0l0.1,0l0,0c0,0,0,0,0.1,0l0,0
		c0,0,0,0,0.1,0l0,0l0.1,0h0c0,0,0.1,0,0.1,0l0,0l0.1,0l0,0l0.1,0l0,0c0,0,0,0,0.1,0l0,0c0,0,0,0,0.1,0l0,0l0.1,0l0,0l0.1,0l0,0
		l0.1,0l0,0l0.1,0l0,0l0.1,0l0,0c0,0,0,0,0.1,0l0,0l0,0l0,0l0,0l0,0c0,0,0,0,0.1,0l0,0l0,0l0,0l0,0l0,0l0,0l0,0c0,0,0,0,0.1,0l0,0
		l0.1,0l0,0c0,0,0,0,0.1,0l0,0l0.1,0l0,0l0,0l0,0l0,0l0,0l0,0l0,0l0,0c0,0,0,0,0,0l0,0l0,0l0.1,0l0,0c0,0,0.1,0,0.1,0l0,0l0.1,0l0,0
		l0.1,0l0,0l0,0l0,0l0,0l0,0c0,0,0,0,0,0l0,0l0,0l0,0c0,0,0,0,0.1,0l0,0l0.1,0l0,0c0,0,0,0,0.1,0l0,0l0,0l0,0l0,0c0,0,0,0,0,0l0,0
		l0,0l0,0l0,0l0.1,0l0,0l0.1,0l0,0l0.1,0l0,0l0.1,0l0,0c0,0,0,0,0.1,0l0,0l0,0l0,0l0,0l0,0l0,0l0,0l0,0l0,0l0,0l0,0l0,0l0,0l0.1,0
		l0,0c0,0,0.1,0,0.1,0l0,0l0.1,0l0,0l0.1,0l0,0l0.1,0l0,0l0,0l0,0l0.1,0l0,0c0,0,0,0,0.1,0l0,0l0.1,0l0,0c0,0,0.1,0,0.1,0l0,0l0.1,0
		l0,0c0,0,0,0,0.1,0l0,0c0,0,0,0,0.1,0l0,0c0,0,0,0,0,0l0,0l0,0l0,0l0.1,0l0,0c0,0,0,0,0.1,0l0,0c0,0,0,0,0.1,0l0,0
		c0.1,0,0.1,0,0.2,0l0,0l0.1,0l0,0l0,0l0,0l0.1,0l0,0l0,0l0,0l0,0l0,0l0,0l0,0l0.1,0l0,0l0.1,0l0,0l0.1,0l0,0l0,0l0,0l0,0l0,0
		c0,0,0,0,0,0l0,0l0.1,0l0,0l0.1,0l0,0l0.1,0l0,0l0.1,0l0,0l0.1,0l0,0l0.1,0l0,0l0.1,0l0,0l0.1,0l0,0l0.1,0l0,0l0.1,0l0,0l0.1,0l0,0
		l0.1,0l0,0l0.1,0l0,0c0,0,0.1,0,0.1,0c0,0,0,0,0,0c0,0,0.1,0,0.1,0l0,0l0.1,0l0,0c0,0,0,0,0.1,0l0,0l0.1,0l0,0l0.1,0l0,0l0.1,0l0,0
		l0,0l0,0c0,0,0,0,0.1,0l0,0l0.1,0l0,0l0.1,0l0,0c0,0,0,0,0,0l0,0l0,0l0,0l0,0l0,0l0,0l0,0l0,0l0,0l0,0l0,0l0.1,0l0,0
		c0,0,0.1,0,0.1,0l0,0l0,0l0,0l0.1,0l0,0l0,0l0,0l0,0l0,0l0,0l0,0l0.1,0l0,0l0.1,0l0,0l0.2,0l0,0l0,0l0,0l0,0l0,0l0,0l0,0
		c0,0,0,0,0,0l0,0l0,0l0,0l0,0l0,0l0.1,0l0,0c0,0,0,0,0.1,0l0.1,0l0,0l0,0l0,0l0,0l0,0l0,0l0,0l0,0l0,0l0,0c0,0,0,0,0,0l0,0l0.1,0
		l0,0l0.1,0l0,0l0.1,0l0,0l0.1,0l0,0l0.1,0l0,0l0,0l0,0l0,0l0,0c0,0,0,0,0,0l0,0l0.1,0l0,0c0,0,0,0,0.1,0l0,0c0,0,0,0,0.1,0l0,0
		c0,0,0.1,0,0.1,0l0,0l0.1,0l0,0l0,0l0,0c0,0,0,0,0,0l0,0l0,0l0,0l0.1,0l0,0l0.1,0l0,0l0.1,0l0,0c0,0,0,0,0.1,0l0,0c0,0,0.1,0,0.1,0
		l0,0c0,0,0,0,0.1,0l0,0l0,0l0,0c0,0,0,0,0,0l0,0l0,0l0,0l0.1,0l0,0l0,0l0,0l0.1,0l0,0c0.1,0,0.1,0,0.2,0l0,0l0.1,0l0,0l0.1,0l0,0
		l0.1,0l0,0c0,0,0,0,0.1,0l0,0l0,0l0,0l0,0l0,0l0,0l0,0l0,0c0,0,0.1,0,0.1,0l0,0l0,0l0,0l0,0l0,0l0,0l0,0l0,0l0,0l0,0l0,0l0,0l0,0
		l0,0l0.1,0l0,0c0.1,0,0.1,0,0.2,0l0,0l0.1,0l0,0l0.1,0l0,0l0.1,0l0,0l0.1,0l0,0l0.1,0l0,0l0.1,0l0,0c0,0,0,0,0.1,0l0,0l0.1,0l0,0
		l0.1,0l0,0l0.1,0l0,0c0,0,0,0,0.1,0l0,0l0.1,0l0,0l0.1,0l0,0l0.1,0l0,0l0.1,0l0,0c0,0,0,0,0.1,0l0,0l0.1,0l0,0l0.1,0l0,0l0.1,0l0,0
		l0.1,0l0,0l0.1,0l0,0c0,0,0,0,0,0l0,0l0,0l0,0l0.1,0l0,0c0,0,0,0,0.1,0l0,0c0,0,0.1,0,0.1,0l0,0c0,0,0,0,0.1,0l0,0c0,0,0,0,0.1,0
		l0,0c0,0,0,0,0.1,0l0,0l0.1,0l0,0l0.1,0l0,0l0.1,0l0,0c0,0,0,0,0.1,0l0,0c0.1,0,0.1,0,0.2,0l0,0c0,0,0.1,0,0.1,0l0,0l0.1,0l0,0
		c0,0,0,0,0.1,0l0,0l0.1,0l0,0l0.1,0l0,0l0.1,0l0,0c0.1,0,0.2,0,0.3,0l0,0l0.1,0l0,0l0.1,0l0,0l0.1,0l0,0l0.1,0l0,0c0,0,0,0,0.1,0
		l0,0l0.1,0l0,0l0.1,0l0,0c0,0,0.1,0,0.1,0l0,0l0.1,0l0,0l0.1,0l0,0l0.1,0l0,0l0.1,0l0,0c0,0,0,0,0.1,0l0,0c0,0,0,0,0.1,0l0,0
		c0,0,0,0,0.1,0l0,0c0,0,0.1,0,0.1,0l0,0c0,0,0.1,0,0.1,0l0,0c0,0,0,0,0.1,0l0,0l0.1,0l0,0c0,0,0,0,0.1,0l0,0l0.1,0l0,0l0.1,0l0,0
		c0,0,0,0,0.1,0l0,0c0,0,0,0,0.1,0l0,0c0.1,0,0.1,0,0.2,0l0,0c0,0,0.1,0,0.1,0l0,0l0.1,0l0,0l0.1,0l0,0c0,0,0,0,0.1,0l0,0
		c0,0,0,0,0.1,0l0,0l0.1,0l0,0l0.1,0l0,0l0.2,0l0,0c0,0,0.1,0,0.1,0l0,0l0.1,0l0,0l0.1,0l0,0l0.1,0l0,0c0,0,0,0,0.1,0l0,0l0.1,0l0,0
		l0.1,0l0,0c0.1,0,0.1,0,0.2,0l0,0l0.1,0l0,0l0.1,0l0,0c0,0,0,0,0.1,0l0,0l0.1,0l0,0c0,0,0,0,0.1,0l0,0l0.1,0l0,0l0.1,0l0,0
		c0.1,0,0.1,0,0.2,0l0,0c0,0,0.1,0,0.1,0l0,0c0,0,0,0,0.1,0l0,0c0,0,0,0,0.1,0l0,0c0,0,0,0,0.1,0l0,0c0,0,0,0,0.1,0l0,0l0.1,0l0,0
		c0,0,0,0,0.1,0l0,0c0.1,0,0.1,0,0.2,0l0,0l0.1,0l0,0c0,0,0,0,0.1,0l0,0l0.1,0l0,0l0,0l0,0l0,0l0,0l0.1,0l0,0c0,0,0,0,0.1,0l0,0
		l0.1,0l0,0l0.1,0l0,0l0,0l0,0l0,0l0,0l0,0l0,0l0,0l0,0l0,0l0,0c0,0,0,0,0.1,0l0,0l0.1,0l0,0l0.1,0l0,0c0,0,0,0,0.1,0l0,0l0.1,0l0,0
		c0,0,0,0,0.1,0l0,0c0,0,0,0,0.1,0l0,0c0,0,0,0,0.1,0l0,0c0,0,0,0,0.1,0l0,0c0,0,0,0,0.1,0l0,0l0.1,0l0,0c0,0,0.1,0,0.1,0l0,0l0.1,0
		l0,0l0.1,0l0,0l0.1,0l0,0c0,0,0,0,0.1,0l0,0l0.1,0l0,0l0.1,0l0,0c0,0,0,0,0.1,0l0,0c0.1,0,0.1,0,0.2,0l0,0c0,0,0,0,0.1,0l0,0
		c0,0,0,0,0.1,0l0,0l0.1,0l0,0l0.1,0l0,0c0,0,0,0,0.1,0l0,0c0,0,0,0,0.1,0l0,0l0.1,0l0,0c0,0,0.1,0,0.1,0l0,0l0.1,0l0,0
		c0,0,0,0,0.1,0l0,0l0.1,0l0,0l0.1,0l0,0l0.1,0l0,0c0,0,0,0,0.1,0l0,0l0.1,0l0,0c0.1,0,0.1,0,0.2,0l0,0c0,0,0.1,0,0.1,0l0,0l0.1,0
		l0,0l0.1,0l0,0l0.1,0l0,0l0.1,0l0,0l0.1,0l0,0l0.1,0l0,0c0,0,0,0,0.1,0l0,0c0,0,0.1,0,0.1,0l0,0c0,0,0.1,0,0.1,0l0,0
		c0,0,0.1,0,0.1,0l0,0l0.1,0l0,0l0.1,0l0,0c0,0,0,0,0.1,0l0,0c0,0,0,0,0.1,0l0,0l0.1,0l0,0c0.1,0,0.1,0,0.2,0l0,0c0,0,0,0,0.1,0l0,0
		l0.1,0l0,0l0.1,0l0,0l0.1,0l0,0c0,0,0,0,0,0l0,0l0,0l0,0l0,0l0,0l0.1,0l0,0l0.1,0l0,0c0,0,0,0,0.1,0l0,0c0,0,0,0,0.1,0l0,0l0.1,0
		l0,0l0.1,0l0,0l0.1,0l0,0l0.1,0l0,0l0.1,0l0,0l0.2,0l0,0c0,0,0,0,0.1,0l0,0l0.1,0l0,0l0.1,0l0,0l0.1,0c0,0,0,0,0,0l0.1,0l0,0l0.1,0
		l0,0l0.1,0l0,0c0.1,0,0.1,0,0.2,0l0,0l0.1,0l0,0c0,0,0,0,0.1,0l0,0c0,0,0,0,0.1,0l0,0l0.1,0l0,0l0.1,0l0,0l0.1,0l0,0l0.1,0l0,0
		l0.2,0l0,0l0.1,0l0,0c0,0,0,0,0.1,0l0,0l0.1,0l0,0l0.1,0l0,0l0.1,0l0,0l0.1,0l0,0c0,0,0.1,0,0.1,0l0,0l0.1,0l0,0c0,0,0,0,0.1,0l0,0
		l0.1,0l0,0c0,0,0,0,0.1,0l0,0l0.1,0l0,0c0,0,0,0,0.1,0l0,0l0.1,0l0,0l0.1,0l0,0l0.1,0l0,0c0,0,0.1,0,0.1,0l0,0l0.1,0l0,0
		c0,0,0,0,0.1,0l0,0l0.1,0l0,0l0.1,0l0,0c0,0,0,0,0.1,0l0,0l0.1,0l0,0c0,0,0,0,0.1,0l0,0c0.1,0,0.1,0,0.2,0l0,0l0.1,0l0,0
		c0,0,0,0,0.1,0l0,0l0.1,0l0,0l0.1,0l0,0l0.1,0l0,0l0.1,0l0,0l0,0l0,0l0,0c0,0,0.1,0,0.1,0l0,0l0,0l0,0l0,0l0.1,0l0,0l0.1,0l0,0
		l0.1,0l0,0l0,0l0,0l0.1,0l0,0l0.1,0l0,0l0.2,0l0,0c0,0,0.1,0,0.1,0l0,0c0,0,0,0,0.1,0l0,0c0,0,0,0,0.1,0l0,0c0,0,0,0,0.1,0l0,0
		l0.1,0l0,0l0.1,0l0,0l0.1,0l0,0c0,0,0.1,0,0.1,0l0,0l0.1,0l0,0l0.1,0l0,0l0.1,0l0,0l0.1,0l0,0l0.1,0l0,0l0.1,0l0,0l0.1,0l0,0
		c0.1,0,0.2,0,0.3,0l0,0l0.1,0l0,0l0.1,0l0,0l0.1,0l0,0l0.1,0l0,0c0,0,0,0,0.1,0l0,0l0.1,0l0,0c0,0,0.1,0,0.1,0l0,0c0,0,0.1,0,0.1,0
		l0,0l0.1,0l0,0l0.1,0l0,0l0.1,0l0,0l0.1,0l0,0l0.1,0l0,0c0,0,0,0,0.1,0l0,0l0.1,0l0,0c0,0,0.1,0,0.1,0h0l0.1,0l0,0l0.1,0l0,0l0.1,0
		l0,0c0,0,0,0,0.1,0l0,0c0,0,0,0,0.1,0l0,0l0.1,0l0,0l0.1,0l0,0l0.1,0l0,0l0.2,0l0,0l0.1,0l0,0c0,0,0,0,0.1,0l0,0l0.1,0l0,0
		c0,0,0,0,0.1,0l0,0l0.1,0l0,0l0.1,0l0,0l0.1,0l0,0c0.1,0,0.1,0,0.2,0l0,0c0,0,0,0,0.1,0l0,0l0.1,0l0,0c0,0,0,0,0.1,0l0,0l0.1,0l0,0
		l0.1,0l0,0l0.1,0l0,0c0,0,0.1,0,0.1,0l0,0c0.1,0,0.1,0,0.2,0l0,0l0.1,0l0,0l0.1,0l0,0c0,0,0,0,0.1,0l0,0l0.1,0l0,0l0.1,0l0,0l0.1,0
		l0,0l0.1,0l0,0c0,0,0.1,0,0.1,0l0,0l0.1,0l0,0l0.1,0l0,0c0,0,0,0,0.1,0l0,0l0.1,0l0,0l0.1,0l0,0l0.1,0l0,0l0.1,0l0,0
		c0,0,0.1,0,0.1,0l0,0c0.1,0,0.1,0,0.2,0l0,0c0,0,0.1,0,0.1,0l0,0c0,0,0,0,0.1,0l0,0l0.1,0l0,0l0.1,0l0,0c0,0,0,0,0.1,0l0,0
		c0,0,0,0,0.1,0l0,0l0.2,0l0,0l0.1,0l0,0l0.1,0l0,0l0.1,0l0,0l0.1,0l0,0l0.1,0l0,0l0.1,0l0,0c0.1,0,0.2,0,0.3,0l0,0l0.1,0l0,0
		c0,0,0,0,0.1,0l0,0l0.1,0l0,0c0,0,0,0,0.1,0l0,0l0.1,0l0,0c0,0,0.1,0,0.1,0l0,0l0.1,0l0,0c0.1,0,0.1,0,0.2,0l0,0l0.1,0l0,0
		c0,0,0,0,0.1,0l0,0l0.1,0l0,0l0.1,0l0,0l0.1,0l0,0c0,0,0,0,0.1,0l0,0l0.1,0l0,0l0.1,0l0,0c0,0,0,0,0.1,0l0,0l0.1,0l0,0
		c0,0,0,0,0.1,0l0,0l0.1,0l0,0l0.1,0l0,0l0.1,0l0,0c0,0,0,0,0.1,0l0,0l0.1,0l0,0c0,0,0.1,0,0.1,0l0,0l0.1,0l0,0l0.1,0l0,0
		c0,0,0,0,0.1,0l0,0l0.1,0l0,0l0.1,0l0,0l0.1,0l0,0l0.1,0l0,0c0.1,0,0.2,0,0.3,0l0,0l0.1,0l0,0l0.1,0l0,0l0.1,0l0,0l0.1,0l0,0l0.1,0
		l0,0l0.1,0l0,0c0.1,0,0.1,0,0.2,0l0,0l0.1,0l0,0l0.1,0l0,0l0.1,0l0,0l0.1,0l0,0l0.1,0l0,0c0,0,0.1,0,0.1,0l0,0c0,0,0.1,0,0.1,0l0,0
		l0.2,0l0,0c0,0,0,0,0.1,0l0,0c0,0,0,0,0.1,0l0,0l0.1,0l0,0l0.1,0l0,0l0.1,0l0,0l0.1,0l0,0c0,0,0.1,0,0.1,0h0c0,0,0.1,0,0.1,0h0
		c0,0,0.1,0,0.1,0l0,0c0,0,0.1,0,0.1,0l0,0c0,0,0.1,0,0.1,0l0,0l0.1,0l0,0l0.1,0l0,0l0.1,0l0,0c0,0,0.1,0,0.1,0l0,0l0.1,0l0,0l0.1,0
		h0c0,0,0.1,0,0.1,0l0,0l0.1,0l0,0c0,0,0,0,0.1,0l0,0c0,0,0,0,0.1,0l0,0l0.1,0l0,0c0,0,0,0,0.1,0l0,0c0,0,0,0,0.1,0l0,0l0.1,0l0,0
		l0.1,0l0,0c0,0,0,0,0.1,0l0,0c0,0,0,0,0.1,0c0,0,0,0,0,0l0.1,0c0,0,0,0,0.1,0l0.1,0l0.1,0l0,0l0.1,0l0.1,0l0,0c0,0,0,0,0.1,0l0,0
		l0.1,0l0,0l0.1,0l0,0l0.1,0l0,0l0.1,0l0,0c0,0,0,0,0.1,0l0,0l0.1,0l0,0l0.1,0l0,0c0,0,0.1,0,0.1,0l0,0l0.1,0h0c0.1,0,0.1,0,0.2,0h0
		c0,0,0.1,0,0.1,0l0,0l0.1,0l0,0c0,0,0,0,0.1,0c0,0,0,0,0,0c0,0,0,0,0.1,0l0,0l0.1,0l0,0l0.1,0l0,0c0,0,0.1,0,0.1,0h0l0.1,0h0l0.1,0
		l0,0l0.1,0l0,0l0.1,0l0,0l0.1,0l0,0l0.1,0l0,0c0,0,0,0,0.1,0l0,0c0,0,0,0,0.1,0l0,0l0.1,0l0,0c0,0,0.1,0,0.1,0h0l0.1,0l0,0l0.1,0
		l0.1,0l0.1,0l0.1,0l0.1,0l0,0l0.1,0c0,0,0,0,0,0l0.1,0l0,0c0,0,0,0,0.1,0l0,0l0.1,0l0,0c0,0,0.1,0,0.1,0l0,0l0.1,0l0,0l0.1,0l0.1,0
		l0.1,0l0,0c0,0,0,0,0.1,0l0,0l0.1,0l0,0l0.1,0l0.1,0l0.1,0h0l0.1,0h0l0.1,0h0l0.1,0h0c0,0,0,0,0.1,0h0c0,0,0,0,0.1,0h0
		c0,0,0,0,0.1,0h0l0.1,0h0h0.1h0c0,0,0,0,0.1,0h0c0,0,0.1,0,0.1,0h0l0.1,0h0c0,0,0,0,0.1,0h0h0.1h0c0,0,0,0,0.1,0h0c0,0,0,0,0.1,0h0
		c0,0,0,0,0.1,0h0.1h0L149.8,183.7L149.8,183.7z"/>
	<ellipse class="st5" cx="149.8" cy="114.5" rx="69.2" ry="23.1"/>
	<path class="st6" d="M206.1,103.2c-2.5,0-4.9,0.8-6.9,2.2l-0.1,0.1c-5.1,3.8-6.3,11-2.6,16.2c3.6,5,10.6,6.3,15.7,2.8
		c0.1-0.1,0.2-0.2,0.3-0.2l0,0c0,0,0,0,0.1,0l0,0l0,0c0.1-0.1,0.2-0.2,0.3-0.2l0,0c0.2-0.1,0.3-0.3,0.5-0.4c4.8-3.8,5.7-10.8,2-15.7
		C213.3,104.9,209.8,103.2,206.1,103.2L206.1,103.2z M149.8,91.5h-0.1h0h-0.1c0,0,0,0-0.1,0h-0.1h0h0h0h0h0h0h-0.1h0h0h0h0h0l-0.1,0
		h0l-0.1,0h0l0,0h0l0,0h0l-0.1,0h0c0,0,0,0-0.1,0h0c0,0,0,0-0.1,0h0l0,0h0c0,0,0,0-0.1,0h0l-0.1,0h0l0,0h0l-0.1,0h0c0,0-0.1,0-0.1,0
		h0l-0.1,0h0l0,0h0l0,0h0l0,0l0,0l0,0l0,0l0,0l0,0l0,0l0,0l0,0l0,0c0,0,0,0-0.1,0h0l0,0l0,0l0,0l0,0l0,0l0,0l-0.1,0h0l0,0l0,0l0,0
		l0,0l0,0h0c0,0,0,0-0.1,0h0l0,0l0,0l0,0l0,0l0,0l0,0l0,0l0,0l-0.1,0h0l0,0h0c0,0,0,0-0.1,0h0c0,0,0,0-0.1,0l0,0l-0.1,0l0,0l0,0l0,0
		l0,0l0,0l0,0l0,0l0,0h0l-0.1,0l0,0l0,0l0,0l0,0l0,0l0,0l-0.1,0l0,0l0,0l0,0l0,0l0,0l0,0l0,0l0,0c0,0,0,0-0.1,0l0,0l0,0l0,0l0,0l0,0
		l0,0l0,0l0,0l0,0l-0.1,0l0,0l0,0l0,0l0,0l0,0l0,0l0,0l-0.1,0h0c0,0,0,0-0.1,0l0,0l0,0l0,0l0,0l0,0l-0.1,0h0l-0.1,0l0,0l0,0l0,0l0,0
		l0,0l0,0l0,0l-0.1,0l0,0l0,0l0,0l0,0l0,0c0,0,0,0-0.1,0l0,0l-0.1,0h0l-0.1,0l0,0l-0.1,0l0,0l0,0l0,0l0,0l0,0l0,0l0,0l0,0l0,0l0,0
		l0,0l0,0l0,0l0,0l0,0l-0.1,0l0,0c0,0,0,0-0.1,0l0,0l-0.1,0l0,0l-0.1,0h0c0,0-0.1,0-0.1,0l0,0c0,0,0,0-0.1,0l0,0l-0.1,0l0,0l-0.1,0
		c0,0-0.1,0-0.1,0l0,0l0,0l0,0l-0.1,0h0l-0.1,0h0c0,0,0,0-0.1,0l0,0l0,0l0,0l-0.1,0l0,0l-0.1,0l0,0l0,0l0,0l0,0l0,0l0,0l0,0l0,0l0,0
		l-0.1,0l0,0l0,0l0,0l0,0l0,0l0,0l0,0l0,0l-0.1,0l0,0l0,0l0,0l0,0l0,0l0,0l0,0l0,0l0,0l0,0l0,0l0,0l0,0l0,0l0,0l0,0l0,0l0,0
		c0,0,0,0,0,0l0,0l0,0l0,0l0,0l0,0l0,0l0,0l-0.1,0l0,0l0,0l0,0l0,0l0,0l0,0l0,0l0,0l0,0c0,0,0,0-0.1,0l0,0l0,0l0,0l0,0l0,0l0,0l0,0
		l-0.1,0l0,0l-0.1,0l0,0l0,0l0,0l0,0l0,0c0,0,0,0-0.1,0h0l-0.1,0l0,0l0,0l0,0l-0.1,0l0,0c0,0,0,0,0,0l0,0l0,0l0,0l0,0l0,0l0,0l0,0
		l0,0l0,0c0,0,0,0-0.1,0h0c0,0,0,0-0.1,0l0,0l0,0l0,0l0,0l0,0l0,0l0,0l-0.1,0l0,0l-0.1,0l0,0l0,0l0,0l0,0l0,0l-0.1,0l0,0l0,0l0,0
		l0,0l0,0l0,0l0,0l-0.1,0l0,0l-0.1,0l0,0l0,0l0,0l0,0l0,0c0,0,0,0-0.1,0l0,0c0,0-0.1,0-0.1,0l0,0c0,0,0,0-0.1,0l0,0l-0.1,0l0,0
		l-0.1,0l0,0l0,0l0,0l0,0l0,0l0,0l0,0c0,0,0,0-0.1,0l0,0l0,0l0,0l0,0l0,0l0,0l0,0l-0.1,0l0,0l-0.1,0l0,0l-0.1,0l0,0l0,0l0,0l-0.1,0
		l0,0l-0.1,0l0,0l-0.1,0l0,0c0,0-0.1,0-0.1,0l0,0l-0.1,0l0,0l0,0l0,0c-0.1,0-0.2,0-0.2,0l0,0c-0.1,0-0.2,0-0.3,0l0,0l-0.1,0l0,0
		l-0.1,0l0,0c0,0-0.1,0-0.1,0h0c0,0,0,0-0.1,0l0,0l-0.1,0l0,0c0,0-0.1,0-0.1,0h0c0,0,0,0-0.1,0l0,0l0,0l0,0l0,0l0,0l-0.1,0l0,0
		c0,0-0.1,0-0.1,0l0,0l0,0l0,0l0,0l0,0c0,0-0.1,0-0.1,0l0,0l0,0l0,0l-0.1,0l0,0l-0.1,0h0l-0.1,0l0,0l0,0l0,0l-0.1,0h0l-0.2,0l0,0
		l-0.1,0l0,0l-0.1,0h0l-0.1,0l0,0l-0.1,0l0,0l-0.1,0l0,0l-0.1,0l0,0l0,0l0,0l0,0l0,0l0,0l0,0l-0.1,0l0,0l-0.1,0l0,0l0,0l0,0
		c-0.1,0-0.2,0-0.4,0h0c-0.2,0-0.3,0-0.5,0l0,0c-0.7,0.1-1.3,0.1-2,0.2l0,0c-12.9,1.3-24.3,3.8-32.8,7.2l0,0l0,0l0,0
		c-0.1,0-0.1,0.1-0.2,0.1l0,0c-0.1,0.1-0.3,0.1-0.4,0.2l0,0c0,0-0.1,0-0.1,0l0,0l0,0l0,0c0,0-0.1,0-0.1,0l0,0l0,0l0,0l0,0l0,0l0,0
		l0,0c0,0,0,0-0.1,0l0,0l0,0l0,0l0,0l0,0l0,0l0,0l0,0l0,0l0,0l0,0l0,0l0,0l0,0l0,0l0,0l0,0l0,0l0,0l0,0l0,0l0,0l0,0l0,0l0,0l0,0l0,0
		l0,0l0,0l0,0l0,0l0,0l0,0l0,0l0,0l0,0l0,0l0,0l0,0l0,0c0,0-0.1,0-0.1,0l0,0l0,0l0,0l0,0l0,0c-0.1,0-0.1,0-0.2,0.1l0,0l0,0l0,0
		c0,0-0.1,0-0.1,0.1h0c0,0,0,0-0.1,0h0c-0.1,0-0.2,0.1-0.3,0.1l0,0c-0.3,0.2-0.7,0.3-1,0.5c-5.8,2.7-8.2,9.6-5.5,15.3
		c2.7,5.8,9.6,8.2,15.3,5.5c7.8-3.6,24.1-7.5,46.6-7.5c9,0,18.1,0.7,27,2.1c6.3,1,12.2-3.2,13.3-9.5c1-6.3-3.2-12.2-9.5-13.3
		c-0.3,0-0.6-0.1-0.9-0.1l0,0l-0.1,0l0,0l-0.1,0l0,0c0,0-0.1,0-0.1,0l0,0c0,0-0.1,0-0.1,0l0,0l-0.1,0l0,0l-0.1,0l0,0
		c0,0-0.1,0-0.1,0l0,0c0,0-0.1,0-0.1,0l0,0l-0.1,0l0,0c0,0-0.1,0-0.1,0l0,0l-0.1,0l0,0c0,0,0,0-0.1,0l0,0c0,0,0,0-0.1,0l0,0l-0.1,0
		l-0.1,0c0,0,0,0-0.1,0l-0.1,0l-0.1,0l-0.1,0c0,0,0,0-0.1,0l-0.1,0l0,0c0,0,0,0-0.1,0l0,0c0,0,0,0-0.1,0l-0.1,0c0,0-0.1,0-0.1,0l0,0
		l-0.1,0l0,0c-0.2,0-0.4-0.1-0.6-0.1l0,0c0,0-0.1,0-0.1,0h0c-5-0.7-10.3-1.2-15.9-1.5l0,0l-0.4,0h0c0,0-0.1,0-0.1,0l0,0
		c-0.1,0-0.2,0-0.3,0h0c0,0-0.1,0-0.1,0l0,0c-0.1,0-0.2,0-0.3,0l0,0l-0.1,0l0,0c0,0-0.1,0-0.1,0l0,0l-0.1,0l0,0c0,0-0.1,0-0.1,0l0,0
		c0,0-0.1,0-0.1,0l0,0c0,0-0.1,0-0.1,0l0,0c0,0-0.1,0-0.1,0l0,0l-0.1,0l-0.1,0l-0.1,0c0,0,0,0-0.1,0l-0.1,0l0,0l-0.1,0l0,0
		c0,0-0.1,0-0.1,0c0,0,0,0-0.1,0c0,0-0.1,0-0.1,0l0,0l-0.1,0l0,0l-0.1,0l-0.1,0l-0.1,0l-0.1,0c0,0,0,0-0.1,0l-0.1,0l-0.1,0
		c0,0-0.1,0-0.1,0l0,0l-0.1,0l0,0l-0.1,0l0,0l-0.1,0l0,0l-0.1,0l0,0c0,0-0.1,0-0.1,0l0,0l-0.1,0l0,0c0,0-0.1,0-0.1,0c0,0,0,0,0,0
		l-0.1,0l0,0l-0.1,0l0,0c0,0-0.1,0-0.1,0l0,0l-0.1,0l0,0l-0.1,0l0,0c0,0-0.1,0-0.1,0l0,0l-0.1,0l0,0c0,0-0.1,0-0.1,0l0,0l-0.1,0l0,0
		l-0.1,0l0,0c0,0-0.1,0-0.1,0l0,0c0,0-0.1,0-0.1,0l0,0c0,0-0.1,0-0.1,0l0,0c0,0-0.1,0-0.1,0l0,0l-0.1,0l0,0l-0.1,0l0,0l-0.1,0l0,0
		l-0.1,0l0,0l-0.1,0l0,0c0,0-0.1,0-0.1,0l0,0c0,0-0.1,0-0.1,0l0,0c0,0-0.1,0-0.1,0l0,0c0,0-0.1,0-0.1,0l0,0c0,0-0.1,0-0.1,0l0,0
		l-0.1,0l0,0l-0.1,0l0,0c0,0-0.1,0-0.1,0l0,0l-0.1,0l0,0c0,0-0.1,0-0.1,0l0,0l-0.1,0h0c0,0-0.1,0-0.1,0h0c0,0-0.1,0-0.1,0h0
		c0,0-0.1,0-0.1,0h0c0,0-0.1,0-0.1,0h0c0,0-0.1,0-0.1,0h0l-0.1,0h0l-0.1,0h0l-0.1,0h0l-0.1,0h0l-0.1,0h0c0,0-0.1,0-0.1,0h0
		c0,0-0.1,0-0.1,0h0c0,0-0.1,0-0.1,0h0l-0.1,0h0l-0.1,0h0l-0.1,0h0c0,0-0.1,0-0.1,0h0c0,0-0.1,0-0.1,0h0c0,0-0.1,0-0.1,0h0
		c0,0-0.1,0-0.1,0h0c0,0-0.1,0-0.1,0L149.8,91.5L149.8,91.5z"/>
	<path class="st1" d="M200.9,263.8l0.7-0.2c11.7-2.9,19.1-14.3,17.1-26.1l-4.8-29.1c-1.8-11.1-11.4-19.2-22.6-19.2l0,0
		c-12.7-0.1-23.1,10.2-23.1,22.9c0,1.1,0.1,2.2,0.2,3.3l4.1,29.2c1.8,12.6,13.4,21.4,26,19.6C199.3,264.1,200.1,264,200.9,263.8z"/>
	<path class="st7" d="M27.7,248.2L248.8,27c6.4-6.4,16.7-6.4,23.1,0l0,0c6.4,6.4,6.4,16.7,0,23.1l0,0L50.8,271.2
		c-6.4,6.4-16.7,6.4-23.1,0l0,0C21.3,264.9,21.3,254.5,27.7,248.2L27.7,248.2z"/>
	<path class="st5" d="M225.8,50.1c6.4-6.4,16.7-6.4,23.1,0c6.4,6.4,6.4,16.7,0,23.1l23.1-23.1c6.4-6.4,6.4-16.7,0-23.1
		c-6.4-6.4-16.7-6.4-23.1,0L225.8,50.1z"/>
	<g>
		<path class="st8" d="M54.8,35.7C51.3,44,44.7,50.6,36.4,54.1c-1.5,0.6-2.3,2.2-1.7,3.7c0.3,0.8,0.9,1.4,1.7,1.7
			c8.3,3.5,14.9,10.1,18.4,18.4c0.6,1.5,2.2,2.3,3.7,1.7c0.8-0.3,1.4-0.9,1.7-1.7c3.5-8.3,10.1-14.9,18.4-18.4
			c1.5-0.6,2.3-2.2,1.7-3.7c-0.3-0.8-0.9-1.4-1.7-1.7C70.4,50.6,63.8,44,60.3,35.7c-0.6-1.5-2.2-2.3-3.7-1.7
			C55.7,34.3,55.1,34.9,54.8,35.7z"/>
		<path class="st8" d="M89.5,93.3c-3.5,8.4-10.2,15-18.5,18.5c-1.5,0.6-2.2,2.2-1.7,3.7c0.3,0.8,0.9,1.4,1.7,1.7
			c8.4,3.5,15,10.2,18.5,18.5c0.6,1.5,2.2,2.2,3.7,1.7c0.8-0.3,1.4-0.9,1.7-1.7c3.5-8.4,10.2-15,18.5-18.5c1.5-0.6,2.2-2.2,1.7-3.7
			c-0.3-0.8-0.9-1.4-1.7-1.7c-8.4-3.5-15-10.2-18.5-18.5c-0.6-1.5-2.2-2.2-3.7-1.7C90.4,91.9,89.7,92.5,89.5,93.3z"/>
		<path class="st8" d="M249.2,70.5c-1.3,1.8-3,3.5-4.8,4.8c-2.5,1.9-3.1,5.4-1.2,8c0.3,0.5,0.8,0.9,1.2,1.2c1.8,1.4,3.4,3,4.8,4.8
			c1.9,2.5,5.5,2.9,7.9,1c0.4-0.3,0.7-0.6,1-1c1.3-1.8,3-3.5,4.8-4.8c2.5-1.9,3.1-5.4,1.2-8c-0.3-0.5-0.8-0.9-1.2-1.2
			c-1.8-1.4-3.4-3-4.8-4.8c-1.9-2.5-5.5-2.9-7.9-1C249.8,69.8,249.4,70.1,249.2,70.5z"/>
		<path class="st8" d="M204.8,35.7c-3.5,8.3-10.1,14.9-18.4,18.4c-1.5,0.6-2.3,2.2-1.7,3.7c0.3,0.8,0.9,1.4,1.7,1.7
			c8.3,3.5,14.9,10.1,18.4,18.4c0.6,1.5,2.2,2.3,3.7,1.7c0.8-0.3,1.4-0.9,1.7-1.7c3.5-8.3,10.1-14.9,18.4-18.4
			c1.5-0.6,2.3-2.2,1.7-3.7c-0.3-0.8-0.9-1.4-1.7-1.7c-8.3-3.5-14.9-10.1-18.4-18.4c-0.6-1.5-2.2-2.3-3.7-1.7
			C205.7,34.3,205,34.9,204.8,35.7z"/>
		<path class="st8" d="M193.2,116.5c-3.5,8.3-10.1,14.9-18.4,18.4c-1.5,0.6-2.3,2.2-1.7,3.7c0.3,0.8,0.9,1.4,1.7,1.7
			c8.3,3.5,14.9,10.1,18.4,18.4c0.6,1.5,2.2,2.3,3.7,1.7c0.8-0.3,1.4-0.9,1.7-1.7c3.5-8.3,10.1-14.9,18.4-18.4
			c1.5-0.6,2.3-2.2,1.7-3.7c-0.3-0.8-0.9-1.4-1.7-1.7c-8.3-3.5-14.9-10.1-18.4-18.4c-0.6-1.5-2.2-2.3-3.7-1.7
			C194.1,115.1,193.5,115.7,193.2,116.5L193.2,116.5z"/>
	</g>
	<path class="st9" d="M28.7,247.2L224.8,51.1c3.2-3.2,8.3-3.2,11.5,0l0,0c3.2,3.2,3.2,8.3,0,11.5L40.2,258.7
		c-3.2,3.2-8.3,3.2-11.5,0l0,0C25.5,255.5,25.5,250.4,28.7,247.2z"/>
	<path class="st10" d="M244.5,31.4l6.8-6.8c3.2-3.2,8.3-3.2,11.5,0l0,0c3.2,3.2,3.2,8.3,0,11.5l-6.8,6.8c-3.2,3.2-8.3,3.2-11.5,0
		l0,0C241.3,39.8,241.3,34.6,244.5,31.4z"/>
	<g>
		<circle class="st11" cx="51.8" cy="51.1" r="5.8"/>
		<circle class="st11" cx="86.4" cy="108.8" r="5.8"/>
		<circle class="st11" cx="201.7" cy="51.1" r="5.8"/>
		<circle class="st11" cx="190.2" cy="131.8" r="5.8"/>
	</g>
</g>
</svg>
