<?xml version="1.0" encoding="utf-8"?>
<!-- Generator: Adobe Illustrator 24.2.3, SVG Export Plug-In . SVG Version: 6.00 Build 0)  -->
<svg version="1.1" id="Слой_1" xmlns="http://www.w3.org/2000/svg" xmlns:xlink="http://www.w3.org/1999/xlink" x="0px" y="0px"
	 viewBox="0 0 300 300" style="enable-background:new 0 0 300 300;" xml:space="preserve">
<style type="text/css">
	.st0{display:none;}
	.st1{display:inline;fill:#5E0404;}
	.st2{display:inline;fill:#D31E1E;}
	.st3{display:inline;fill:#FF0606;}
	.st4{display:none;fill:#FF0606;}
	.st5{display:none;fill:#D31E1E;}
	.st6{display:none;fill:#890000;}
	.st7{display:none;fill:#FF7F15;}
	.st8{display:none;fill:#FFA412;}
	.st9{display:none;fill:#FF7915;}
	.st10{display:none;fill:#A80404;}
	.st11{display:none;fill:#5E0404;}
	.st12{display:none;fill:#350202;}
	.st13{display:inline;fill:#FFE799;}
	.st14{display:inline;fill:#FF7F15;}
	.st15{display:none;fill:#FFC217;}
	.st16{display:inline;fill:#A80404;}
	.st17{display:inline;fill:#8C0000;}
	.st18{display:inline;fill:#FFC217;}
	.st19{fill:#3D068C;}
	.st20{fill:#744FC1;}
	.st21{fill:#2B0065;}
	.st22{fill:#8E6FCC;}
	.st23{fill:#5733B1;}
	.st24{fill:#5628B4;}
	.st25{fill:#3A0499;}
	.st26{fill:#E7455F;}
	.st27{fill:#F7B236;}
	.st28{fill:#EE7B8E;}
	.st29{fill:#B6A4E0;}
	.st30{fill:#FBD99C;}
</style>
<g class="st0">
	<ellipse class="st1" cx="150" cy="252.9" rx="51" ry="25.9"/>
	<path class="st1" d="M72.6,60.1c0,0,1.3-24.7,28-38.9c0,0,18.8,1.7,29.7,15.5c0,0,7.9-8.4,13.8-7.5l5.9,6.7V81l-69.4,9.2L72.6,60.1
		z"/>
	<path class="st1" d="M227.4,60.1c0,0-1.3-24.7-28-38.9c0,0-18.8,1.7-29.7,15.5c0,0-7.9-8.4-13.8-7.5l-5.9,6.7V81l69.4,9.2
		L227.4,60.1z"/>
</g>
<g class="st0">
	<path class="st2" d="M43.8,132.9c0,0-10.9,2.9-16.3,10c0,0,4.6,6.7,10.5,6.7c0,0-3.3,0.4-3.8,5c0,0,3.8,6.3,7.9,6.7
		c4.2,0.4,14.2,22.2,14.2,22.2l5.9-41.4L43.8,132.9z"/>
	<path class="st2" d="M48.8,73.9c0,0-7.1-15.5-0.8-31.8c0,0,42.7,2.5,43.5,28.4c0,0,6.3-12.1,8.8-24.7c0,0,18,5,24.7,19.2
		c0,0,3.8-11.7,10.5-13.8c6.7-2.5,15.1,9.6,15.1,15.5s-21.3,43.9-21.3,43.9l-34.7,4.6L48.8,73.9z"/>
</g>
<g class="st0">
	<path class="st3" d="M256.2,132.9c0,0,10.9,2.9,16.3,10c0,0-4.6,6.7-10.5,6.7c0,0,3.3,0.4,3.8,5c0,0-3.8,6.3-7.9,6.7
		c-4.2,0.4-14.2,22.2-14.2,22.2l-5.9-41.4L256.2,132.9z"/>
	<path class="st3" d="M251.2,73.9c0,0,7.1-15.5,0.8-31.8c0,0-42.7,2.5-43.5,28.4c0,0-6.3-12.1-8.8-24.7c0,0-18,5-24.7,19.2
		c0,0-3.8-11.7-10.5-13.8c-6.7-2.5-15.1,9.6-15.1,15.5s21.3,43.9,21.3,43.9l34.7,4.6L251.2,73.9z"/>
</g>
<g class="st0">
	<polygon class="st1" points="73.5,219.8 108.2,236.1 108.2,267.1 97.3,254.5 74.7,254.5 83.9,246.2 63,246.2 75.6,233.6 
		54.7,233.6 63,225.7 	"/>
	<polygon class="st1" points="226.5,219.8 191.8,236.1 191.8,267.1 202.7,254.5 225.3,254.5 216.1,246.2 237,246.2 224.4,233.6 
		245.3,233.6 237,225.7 	"/>
</g>
<ellipse class="st4" cx="150" cy="157.1" rx="105.8" ry="88.7"/>
<path class="st5" d="M150,68.5c58.5,0,105.8,39.7,105.8,88.7s-47.3,88.7-105.8,88.7"/>
<ellipse class="st6" cx="150" cy="224.9" rx="54.8" ry="41.4"/>
<ellipse class="st7" cx="150" cy="211.5" rx="54.8" ry="41.4"/>
<ellipse class="st8" cx="150" cy="199.8" rx="48.5" ry="28.9"/>
<path class="st9" d="M150,170.9c26.8,0,48.5,13,48.5,28.9s-21.7,28.9-48.5,28.9"/>
<ellipse class="st5" cx="150" cy="196.4" rx="48.5" ry="19.7"/>
<path class="st10" d="M150,176.8c26.8,0,48.5,8.8,48.5,19.7s-21.7,19.7-48.5,19.7"/>
<path class="st6" d="M121.1,170.1c0,0-13.4-15.9-46.4,17.1c-27.6,27.2-50.6-7.9-39.7-23.8c0,0-1.3-12.1-10.5,13.8
	c-8.8,25.9,7.5,56,44.7,48.1c37.6-8.4,41.8-20.1,61.9-17.6s18-14.6,18.8-18.4s0-23.4,0-23.4L121.1,170.1z"/>
<path class="st10" d="M22.5,55.1c0,0-10,76.1,35.5,93.7l-8.4,9.6h20.9v14.2l25.1-25.1c0,0,39.3-32.2-8.4-63.6
	C53,61.8,22.5,55.1,22.5,55.1z"/>
<path class="st6" d="M22.5,55.1c0,0-10,76.1,35.5,93.7l-8.4,9.6h20.9v14.2l25.1-25.1c0,0,31.8-32.6-15.9-64
	C45.9,60.9,22.5,55.1,22.5,55.1z"/>
<path class="st11" d="M22.5,55.1c0,0,23.4,5.8,57.2,28.4c47.7,31.4,15.9,64,15.9,64l-25.1,25.1v-14.2l-1.2,66.9
	c37.6-8.4,41.8-20.1,61.9-17.6s18-14.6,18.8-18.4s0-23.4,0-23.4l-28.9,4.6l28.9-0.4c30.1,0,54.8,18.4,54.8,41.4
	s-24.7,41.4-54.8,41.4"/>
<path class="st8" d="M125.7,137.9c0,15.5-13,28.4-28.9,28.4S68,153.8,68,137.9c0-15.5,13-32.2,28.9-32.2
	C112.8,106.1,125.7,122.4,125.7,137.9z"/>
<ellipse class="st10" cx="96.5" cy="137.9" rx="28.9" ry="28.4"/>
<path class="st6" d="M76,117.8c11.3-10.9,29.7-10.9,41,0s11.3,28.9,0,40.1"/>
<ellipse class="st8" cx="96.5" cy="137.9" rx="22.6" ry="21.7"/>
<path class="st7" d="M96.5,116.1c12.5,0,22.6,9.6,22.6,21.7s-10,21.7-22.6,21.7"/>
<ellipse class="st11" cx="96.5" cy="137.9" rx="11.7" ry="11.3"/>
<path class="st12" d="M96.5,126.6c6.3,0,11.7,5,11.7,11.3c0,6.3-5,11.3-11.7,11.3"/>
<g class="st0">
	<ellipse class="st13" cx="90.6" cy="132" rx="3.8" ry="3.3"/>
	<ellipse class="st13" cx="101.1" cy="141.2" rx="2.1" ry="2.1"/>
</g>
<g class="st0">
	<ellipse class="st14" cx="35" cy="77.7" rx="4.6" ry="4.6"/>
	<ellipse class="st14" cx="42.5" cy="88.5" rx="2.1" ry="2.1"/>
	<circle class="st14" cx="48" cy="94.8" r="0.8"/>
	<path class="st14" d="M59.7,88.5c0,0,13.8,18.8-2.9,21.3s-17.1,17.1-7.1,23c10,5.4,16.3-8.8,10-10.9c0,0,0.4,10-9.2,5
		c-9.6-5.4-3.8-17.1,13.8-15.9c17.6,1.7,15.9-10.9,8.8-16.7C65.9,88.1,59.7,88.5,59.7,88.5z"/>
</g>
<path class="st15" d="M126.2,167.1c-0.8,0-1.3,0-2.1,0c-14.2,0-25.9,7.9-25.9,20.5h38.5c3.8,0,8.8,3.3,13,3.3v-46.4
	C137.5,144.6,126.6,154.6,126.2,167.1z"/>
<path class="st6" d="M178.9,170.1c0,0,13.4-15.9,46.4,17.1c27.6,27.2,50.6-7.9,39.3-23.8c0,0,1.3-12.1,10.5,13.8s-7.1,56-44.7,48.1
	c-37.6-8.4-41.8-20.1-61.9-17.6s-18-14.6-18.8-18.4s0-23.4,0-23.4L178.9,170.1z"/>
<path class="st11" d="M230.7,225.3c-37.6-8.4-41.8-20.1-61.9-17.6s-18-14.6-18.8-18.4s0-23.4,0-23.4l28.9,4.6"/>
<path class="st10" d="M277.5,55.1c0,0,10,76.1-35.5,93.7l8.4,9.6h-20.9v14.2l-25.1-25.1c0,0-39.3-32.2,8.4-63.6
	C247,61.8,277.5,55.1,277.5,55.1z"/>
<path class="st6" d="M277.5,55.1c0,0,10,76.1-35.5,93.7l8.4,9.6h-20.9v14.2l-25.1-25.1c0,0-31.8-32.6,15.9-64
	C254.1,60.9,277.5,55.1,277.5,55.1z"/>
<path class="st11" d="M229.5,158.4v14.2l-25.1-25.1c0,0-31.8-32.6,15.9-64c34.3-22.6,57.3-28.4,57.3-28.4"/>
<path class="st8" d="M174.3,137.9c0,15.5,13,28.4,28.9,28.4s28.9-12.5,28.9-28.4c0-15.5-13-32.2-28.9-32.2
	C187.2,106.1,174.3,122.4,174.3,137.9z"/>
<ellipse class="st10" cx="203.5" cy="137.9" rx="28.9" ry="28.4"/>
<path class="st6" d="M224,117.8c-11.3-10.9-29.7-10.9-41,0s-11.3,28.9,0,40.1"/>
<ellipse class="st8" cx="203.5" cy="137.9" rx="22.6" ry="21.7"/>
<path class="st7" d="M203.5,116.1c-12.5,0-22.6,9.6-22.6,21.7s10,21.7,22.6,21.7"/>
<ellipse class="st11" cx="203.5" cy="137.9" rx="11.7" ry="11.3"/>
<path class="st12" d="M203.5,126.6c-6.3,0-11.7,5-11.7,11.3c0,6.3,5,11.3,11.7,11.3"/>
<g class="st0">
	<ellipse class="st13" cx="209.4" cy="132" rx="3.8" ry="3.3"/>
	<ellipse class="st13" cx="198.9" cy="141.2" rx="2.1" ry="2.1"/>
</g>
<g class="st0">
	<ellipse class="st14" cx="265" cy="77.7" rx="4.6" ry="4.6"/>
	<ellipse class="st14" cx="257.5" cy="88.5" rx="2.1" ry="2.1"/>
	<circle class="st14" cx="252" cy="94.8" r="0.8"/>
	<path class="st14" d="M240.3,88.5c0,0-13.8,18.8,2.9,21.3s17.1,17.1,7.1,23c-10,5.4-16.3-8.8-10-10.9c0,0-0.4,10,9.2,5
		c9.6-5.4,3.8-17.1-13.8-15.9c-17.6,1.7-15.9-10.9-8.8-16.7C234.1,88.1,240.3,88.5,240.3,88.5z"/>
</g>
<path class="st15" d="M173.8,167.1c0.8,0,1.3,0,2.1,0c14.2,0,25.9,7.9,25.9,20.5h-38.5c-3.8,0-8.8,3.3-13,3.3v-46.4
	C162.5,144.6,173.4,154.6,173.8,167.1z"/>
<path class="st7" d="M192.7,187.6l-42.7-43l0,0l0,0l0,0l0,0l-42.7,43.1H137c3.8,0,8.8,3.3,13,3.3l0,0l0,0l0,0l0,0
	c4.2,0,9.2-3.3,13-3.3h29.7V187.6z"/>
<g class="st0">
	<ellipse class="st16" cx="150" cy="158.8" rx="2.9" ry="2.9"/>
	<ellipse class="st16" cx="150" cy="170.1" rx="2.9" ry="2.9"/>
	<ellipse class="st16" cx="150" cy="181.4" rx="2.9" ry="2.9"/>
</g>
<path class="st15" d="M175.9,114.5c0,14.2-11.7,25.5-25.9,25.5s-25.9-11.3-25.9-25.5s11.7-50.2,25.9-50.2S175.9,100.7,175.9,114.5z"
	/>
<path class="st8" d="M150,64.7c14.6,0,25.9,36,25.9,50.2s-11.7,25.5-25.9,25.5"/>
<g class="st0">
	<path class="st1" d="M139.1,120.7c-1.7,0-2.9-0.4-2.9-2.1l0,0c0-1.7,1.3-2.1,2.9-2.1h21.7c1.7,0,2.9,0.4,2.9,2.1l0,0
		c0,1.7-1.3,2.1-2.9,2.1H139.1z"/>
	<path class="st1" d="M147.9,107.8c0-1.7,0.4-2.9,2.1-2.9l0,0c1.7,0,2.1,1.3,2.1,2.9v21.7c0,1.7-0.4,2.9-2.1,2.9l0,0
		c-1.7,0-2.1-1.3-2.1-2.9V107.8z"/>
	<ellipse class="st1" cx="139.5" cy="108.2" rx="2.5" ry="2.5"/>
	<ellipse class="st1" cx="160.5" cy="108.2" rx="2.5" ry="2.5"/>
	<ellipse class="st1" cx="139.5" cy="129.5" rx="2.5" ry="2.5"/>
	<ellipse class="st1" cx="160.5" cy="129.5" rx="2.5" ry="2.5"/>
</g>
<g class="st0">
	<ellipse class="st17" cx="149.6" cy="83.1" rx="1.7" ry="1.7"/>
	<path class="st17" d="M150,78.5c-5,0-9.2,3.8-9.2,8.8s4.2,8.8,9.2,8.8s9.2-3.8,9.2-8.8S155,78.5,150,78.5z M149.6,93.1
		c-0.8,0-1.7-0.8-1.7-1.7c0-0.8,0.8-1.7,1.7-1.7c0.8,0,1.7,0.8,1.7,1.7C151.3,92.7,150.4,93.1,149.6,93.1z M150,87.3
		c-2.1,0.8-4.2,1.3-4.2,4.2c0,2.1,1.7,4.2,4.2,4.2c-4.6,0-8.4-3.8-8.4-7.9c0-4.6,3.8-7.9,8.4-7.9c2.1,0,4.2,1.7,4.2,4.2
		C154.2,86,152.1,86.4,150,87.3z"/>
</g>
<g class="st0">
	<polygon class="st1" points="54.2,165.5 71.8,182.6 63.4,190.6 	"/>
	<polygon class="st1" points="245.8,165.5 228.2,182.6 236.6,190.6 	"/>
</g>
<g class="st0">
	<path class="st18" d="M88.9,61.3c0,0-2.5,14.2,9.6,14.6c12.5,0,15.9,4.6,15.9,9.2s-4.6,9.2-10.5,4.6s-0.8-9.6,5-5.9
		c0,0-3.8-4.2-7.5-1.3s2.9,12.1,10.5,8.8c7.9-3.3,2.5-18.4-9.2-20.9s-13.4-10-10.9-13c2.5-2.9,10,3.3,5,6.3c0,0,7.9-3.8,1.3-7.9
		c-7.5-4.6-8.4-0.4-8.8,1.7C89.4,59.3,88.9,61.3,88.9,61.3z"/>
	<circle class="st18" cx="118.2" cy="91.9" r="0.4"/>
	<path class="st18" d="M124.1,94.8c0.4,0.8,0,1.7-0.8,1.7c-0.8,0.4-1.7,0-1.7-0.8s0-1.7,0.8-1.7C122.8,94,123.7,94,124.1,94.8z"/>
	<circle class="st18" cx="126.6" cy="96.9" r="0.4"/>
	<circle class="st18" cx="130.3" cy="98.6" r="0.4"/>
	<circle class="st18" cx="109" cy="86.4" r="0.8"/>
	<path class="st18" d="M96.9,60.9c0.4,0.8,0,1.3-0.8,1.7s-1.3,0-1.7-0.8c-0.4-0.8,0-1.3,0.8-1.7C96.1,59.7,96.9,60.1,96.9,60.9z"/>
	<path class="st18" d="M100.2,65.5c0,0,2.5-1.3,2.5-5.4c0,0,2.9,3.8,0.4,5C101.1,65.9,100.2,65.5,100.2,65.5z"/>
	<path class="st18" d="M102.7,67.2l2.9-1.7c0,0-0.4,2.5-1.3,2.1C104,67.6,102.7,67.2,102.7,67.2z"/>
	<path class="st18" d="M120.3,57.6c0,0.4,0,0.4-0.4,0.8l-8.4,2.5c-0.4,0-0.4,0-0.8-0.4l0,0c0-0.4,0-0.4,0.4-0.8l8.4-2.5
		C119.9,57.2,120.3,57.6,120.3,57.6L120.3,57.6z"/>
	<path class="st18" d="M122,62.2c0,0.4,0,0.4-0.4,0.4l-8.4,2.5c-0.4,0-0.4,0-0.8-0.4l0,0c0-0.4,0-0.4,0.4-0.8l8.4-2.5
		C121.6,61.8,122,61.8,122,62.2L122,62.2z"/>
	<path class="st18" d="M124.1,66.4c0,0.4,0,0.4-0.4,0.8l-8.8,2.5c-0.4,0-0.4,0-0.8-0.4l0,0c0-0.4,0-0.4,0.4-0.8l8.4-2.5
		C123.7,65.9,124.1,66.4,124.1,66.4L124.1,66.4z"/>
	<path class="st18" d="M125.7,71c0,0.4,0,0.4-0.4,0.8l-8.4,2.5c-0.4,0-0.4,0-0.8-0.4l0,0c0-0.4,0-0.4,0.4-0.8l8.4-2.5
		C125.3,70.5,125.7,70.5,125.7,71L125.7,71z"/>
	<path class="st18" d="M211.1,61.3c0,0,2.5,14.2-9.6,14.6c-12.5,0-15.9,4.6-15.9,9.2s4.6,9.2,10.5,4.6s0.8-9.6-5.4-5.9
		c0,0,3.8-4.2,7.5-1.3c3.8,2.9-2.9,12.1-10.5,8.8c-7.9-3.3-2.5-18.4,9.2-20.9s13.4-10,10.9-13c-2.5-2.9-10,3.3-5,6.3
		c0,0-7.9-3.8-1.3-7.9c7.5-4.6,8.4-0.4,8.8,1.7C210.6,59.3,211.1,61.3,211.1,61.3z"/>
	<circle class="st18" cx="181.8" cy="91.9" r="0.4"/>
	<ellipse class="st18" cx="177.2" cy="95.3" rx="1.3" ry="1.3"/>
	<circle class="st18" cx="173.4" cy="96.9" r="0.4"/>
	<path class="st18" d="M169.2,98.1c0,0,0,0.4,0.4,0.4c0,0,0.4,0,0.4-0.4c0,0,0-0.4-0.4-0.4C169.7,98.1,169.7,98.1,169.2,98.1z"/>
	<circle class="st18" cx="191" cy="86.4" r="0.8"/>
	<path class="st18" d="M203.1,60.9c-0.4,0.8,0,1.3,0.8,1.7s1.3,0,1.7-0.8s0-1.3-0.8-1.7C203.9,59.7,203.1,60.1,203.1,60.9z"/>
	<path class="st18" d="M199.8,65.5c0,0-2.5-1.3-2.5-5.4c0,0-2.9,3.8-0.4,5C198.9,65.9,199.8,65.5,199.8,65.5z"/>
	<path class="st18" d="M197.3,67.2l-2.9-1.7c0,0,0.4,2.5,1.3,2.1C196,67.6,197.3,67.2,197.3,67.2z"/>
	<path class="st18" d="M179.7,57.6c0,0.4,0,0.4,0.4,0.8l8.4,2.5c0.4,0,0.4,0,0.8-0.4l0,0c0-0.4,0-0.4-0.4-0.8l-8.4-2.5
		C180.1,57.2,179.7,57.6,179.7,57.6L179.7,57.6z"/>
	<path class="st18" d="M178,62.2c0,0.4,0,0.4,0.4,0.4l8.4,2.5c0.4,0,0.4,0,0.8-0.4l0,0c0-0.4,0-0.4-0.4-0.8l-8.4-2.5
		C178.4,61.8,178,61.8,178,62.2L178,62.2z"/>
	<path class="st18" d="M175.9,66.4c0,0.4,0,0.4,0.4,0.8l8.8,2.5c0.4,0,0.4,0,0.8-0.4l0,0c0-0.4,0-0.4-0.4-0.8l-8.4-2.5
		C176.3,65.9,175.9,66.4,175.9,66.4L175.9,66.4z"/>
	<path class="st18" d="M174.3,71c0,0.4,0,0.4,0.4,0.8l8.4,2.5c0.4,0,0.4,0,0.8-0.4l0,0c0-0.4,0-0.4-0.4-0.8l-8.4-2.5
		C174.7,70.5,174.3,70.5,174.3,71L174.3,71z"/>
</g>
<path class="st19" d="M48.1,256.3c0,17.5,45.4,31.7,101.5,31.7S251,273.8,251,256.3l-25.4-145.9c0-14-34.1-25.4-76.1-25.4
	s-76.1,11.4-76.1,25.4L48.1,256.3z"/>
<ellipse class="st20" cx="149.5" cy="129.5" rx="139.5" ry="57.1"/>
<path class="st21" d="M241,199.2l-4.4-25.5c-23.1,7.8-52.7,12.8-87.1,12.8h-0.2c0,0-0.1,0-0.1,0h-0.4c0,0-0.1,0-0.1,0h-0.2
	c0,0-0.1,0-0.1,0h-0.2c0,0,0,0,0,0H148c0,0,0,0,0,0h-0.1c0,0,0,0-0.1,0h-0.1c0,0-0.1,0-0.1,0c0,0,0,0,0,0c0,0-0.1,0-0.1,0h-0.1
	c0,0-0.1,0-0.1,0c0,0,0,0-0.1,0H147c0,0,0,0-0.1,0c0,0-0.1,0-0.1,0h-0.1c0,0-0.1,0-0.1,0h-0.1c0,0-0.1,0-0.1,0c0,0,0,0-0.1,0
	c0,0-0.1,0-0.1,0c0,0,0,0-0.1,0c0,0-0.1,0-0.1,0c0,0,0,0-0.1,0c0,0-0.1,0-0.1,0c0,0,0,0-0.1,0c0,0,0,0-0.1,0c0,0,0,0-0.1,0
	c0,0-0.1,0-0.1,0c0,0,0,0-0.1,0c0,0,0,0-0.1,0c0,0-0.1,0-0.1,0c0,0,0,0-0.1,0c-0.1,0-0.1,0-0.2,0c0,0,0,0,0,0c0,0-0.1,0-0.1,0
	c0,0,0,0-0.1,0c0,0-0.1,0-0.1,0c0,0,0,0,0,0l-0.2,0c0,0,0,0,0,0c0,0-0.1,0-0.1,0c0,0,0,0,0,0l-0.3,0c0,0,0,0,0,0c0,0-0.1,0-0.1,0h0
	c-0.1,0-0.2,0-0.3,0h0l-0.1,0h0c-0.1,0-0.2,0-0.3,0h0c-4.9-0.1-9.8-0.3-14.5-0.6c-0.3,0-0.5,0-0.8,0c-7,0-12.7,5.7-12.7,12.7
	c0,6.7,5.2,12.2,11.9,12.6c7.3,0.4,14.8,0.7,22.2,0.7C184.2,211.9,215.3,207.3,241,199.2L241,199.2z"/>
<path class="st22" d="M149.5,72.4C65.8,72.4,10,101.9,10,129.5c0,13.7,13.8,27.9,38,38.7c0-0.2,0.1-0.4,0.1-0.6
	c0-24.5,19.9-44.4,44.4-44.4h114.1c24.5,0,44.4,19.9,44.4,44.4c0,0.2,0.1,0.4,0.1,0.6c24.2-10.8,38-25,38-38.7
	C289,101.9,233.2,72.4,149.5,72.4L149.5,72.4z"/>
<path class="st23" d="M282.7,135.4c0.1,0,0.1,0,0.2,0c3.5-0.1,6.2-3,6.1-6.5l0,0c-0.2-3.8-1.3-7.5-3.1-10.9l0,0
	c-0.1-0.2-0.2-0.4-0.3-0.6l0,0c0,0,0-0.1,0-0.1l0,0c-0.1-0.2-0.2-0.4-0.4-0.6l0,0c0,0,0,0,0,0l0,0l0,0l0,0c-0.1-0.2-0.2-0.3-0.3-0.5
	l0,0c0,0,0,0,0,0l0,0c0,0,0,0,0,0l0,0c0,0,0,0,0,0l0,0c0,0,0,0,0,0l0,0l0,0l0,0c-0.1-0.1-0.2-0.3-0.3-0.4l0,0l0,0l0,0c0,0,0,0,0,0
	l0,0c0,0,0,0,0,0l0,0c0,0,0,0,0,0l0,0l0,0l0,0l0,0h0c-0.1-0.1-0.2-0.3-0.3-0.4l0,0l0,0l0,0l0,0l0,0c0,0,0,0,0,0l0,0c0,0,0,0,0,0l0,0
	l0,0l0,0l0,0l0,0l0,0c-0.1-0.1-0.2-0.3-0.3-0.4l0,0c0,0,0,0,0,0l0,0c0,0,0,0,0,0l0,0l0,0l0,0l0,0l0,0l0,0l0,0l0,0
	c-0.1-0.1-0.2-0.2-0.3-0.3l0,0l0,0l0,0c0,0,0,0,0,0l0,0c0,0,0,0,0,0l0,0l0,0l0,0l0,0l0,0l0,0l0,0l0,0l0,0l0,0l0,0
	c-0.1-0.1-0.1-0.2-0.2-0.3l0,0c0,0,0,0,0,0l0,0l0,0l0,0l0,0l0,0l0,0l0,0l0,0l0,0c0,0,0,0,0,0l0,0c0,0,0,0,0,0l0,0c0,0,0,0,0,0l0,0
	l0,0l0,0c0,0,0,0,0,0l0,0c0-0.1-0.1-0.1-0.1-0.2l0,0c0,0,0-0.1-0.1-0.1l0,0c0,0,0,0,0,0l0,0l0,0l0,0l0,0l0,0c0,0,0,0,0,0l0,0l0,0
	l0,0c0,0,0,0,0,0l0,0l0,0l0,0l0,0l0,0c0,0,0,0,0,0v0c-0.1-0.1-0.1-0.1-0.2-0.2l0,0c0,0,0-0.1-0.1-0.1l0,0l0,0l0,0l0,0l0,0l0,0l0,0
	l0,0l0,0l0,0l0,0l0,0l0,0c0,0,0,0,0,0l0,0l0,0l0,0c-0.1-0.1-0.1-0.2-0.2-0.3l0,0l0,0l0,0l0,0l0,0l0,0l0,0l0,0l0,0l0,0l0,0
	c0,0,0,0,0,0l0,0l0,0l0,0l0,0l0,0l0,0l0,0c0,0,0,0,0,0c-0.1-0.1-0.1-0.1-0.2-0.2l0,0c0,0,0,0,0,0l0,0l0,0l0,0c0,0,0,0,0,0l0,0
	c0,0,0,0,0,0l0,0l0,0l0,0l0,0l0,0l0,0l0,0c0,0,0,0,0,0l0,0l0,0l0,0c-0.1-0.1-0.2-0.2-0.2-0.2l0,0l0,0l0,0l0,0l0,0l0,0l0,0l0,0l0,0
	c0,0,0,0,0,0l0,0l0,0l0,0l0,0l0,0l0,0l0,0l0,0l0,0l0,0l0,0c-0.1-0.1-0.2-0.2-0.2-0.2l0,0c0,0,0,0,0,0l0,0c0,0,0,0,0,0l0,0
	c0,0,0,0,0,0l0,0c0,0,0,0,0,0l0,0c0,0,0,0,0,0l0,0c0,0,0,0,0,0l0,0l0,0l0,0l0,0l0,0c-0.1-0.1-0.2-0.2-0.3-0.3l0,0l0,0l0,0l0,0l0,0
	l0,0l0,0l0,0l0,0l0,0l0,0c0,0,0,0,0,0l0,0l0,0l0,0l0,0l0,0c0,0,0,0,0,0l0,0c-0.1-0.1-0.1-0.1-0.2-0.2l0,0c0,0,0,0,0,0l0,0l0,0l0,0
	c0,0,0,0,0,0l0,0l0,0l0,0l0,0l0,0l0,0l0,0l0,0l0,0l0,0l0,0l0,0l0,0l0,0l0,0c-0.1-0.1-0.1-0.1-0.2-0.2l0,0l0,0l0,0l0,0l0,0l0,0l0,0
	l0,0l0,0c0,0,0,0,0,0l0,0l0,0l0,0l0,0l0,0l0,0l0,0l0,0l0,0c0,0,0,0,0,0l0,0l0,0l0,0c-0.1-0.1-0.1-0.1-0.2-0.2l0,0c0,0,0,0,0,0l0,0
	l0,0l0,0l0,0l0,0l0,0l0,0l0,0l0,0c0,0,0,0,0,0l0,0l0,0l0,0l0,0l0,0l0,0l0,0l0,0l0,0c-0.1-0.1-0.2-0.1-0.2-0.2l0,0l0,0l0,0
	c0,0,0,0,0,0l0,0c0,0,0,0,0,0l0,0l0,0l0,0l0,0l0,0l0,0l0,0l0,0l0,0l0,0l0,0l0,0l0,0l0,0l0,0l0,0l0,0c-0.1-0.1-0.1-0.1-0.2-0.2l0,0
	c0,0,0,0,0,0l0,0c0,0,0,0,0,0l0,0l0,0l0,0l0,0l0,0c0,0,0,0,0,0l0,0l0,0l0,0l0,0l0,0l0,0l0,0c0,0,0,0,0,0l0,0c0,0,0,0,0,0l0,0
	c0,0,0,0,0,0l0,0c0,0,0,0,0,0l0,0l-0.2-0.2l0,0l0,0l0,0c0,0,0,0,0,0l0,0l0,0l0,0l0,0l0,0c0,0,0,0,0,0l0,0c0,0,0,0,0,0l0,0
	c0,0,0,0,0,0l0,0l0,0l0,0l0,0l0,0l0,0l0,0c0,0,0,0,0,0l0,0l0,0l0,0c0,0-0.1-0.1-0.1-0.1l0,0l0,0l0,0l0,0l0,0l0,0l0,0l0,0l0,0l0,0
	l0,0l0,0l0,0l0,0l0,0l0,0l0,0c0,0,0,0,0,0l0,0l0,0l0,0l0,0l0,0c0,0,0,0,0,0l0,0l-0.1,0l0,0c0,0,0,0,0,0l0,0c0,0,0,0,0,0l0,0
	c0,0,0,0,0,0l0,0l0,0l0,0l0,0l0,0l0,0l0,0c0,0,0,0,0,0l0,0l0,0l0,0l0,0l0,0l0,0l0,0l0,0l0,0l0,0l0,0l0,0l0,0l0,0l0,0l0,0l0,0l-0.1,0
	l0,0c0,0,0,0,0,0l0,0l0,0l0,0l0,0l0,0l0,0l0,0c0,0,0,0,0,0l0,0l0,0l0,0l0,0l0,0l0,0l0,0l0,0l0,0l0,0l0,0l0,0l0,0l0,0l0,0l0,0l0,0
	l0,0c0,0,0,0-0.1-0.1l0,0l0,0l0,0l0,0l0,0l0,0l0,0l0,0l0,0l0,0l0,0l0,0l0,0l0,0l0,0l0,0l0,0l0,0l0,0l0,0l0,0l0,0l0,0l0,0l0,0l0,0
	l0,0c-0.1-0.1-0.2-0.1-0.2-0.2l0,0l0,0l0,0c0,0,0,0,0,0l0,0l0,0l0,0l0,0l0,0c0,0,0,0,0,0l0,0l0,0l0,0l0,0l0,0l0,0l0,0l0,0l0,0l0,0
	l0,0l0,0l0,0c-0.1-0.1-0.2-0.1-0.2-0.2l0,0c0,0,0,0,0,0l0,0l0,0l0,0l0,0l0,0l0,0l0,0l0,0l0,0l0,0l0,0l0,0l0,0l0,0l0,0l0,0l0,0l0,0
	l0,0c0,0,0,0,0,0l0,0c-0.1-0.1-0.2-0.1-0.3-0.2l0,0l0,0l0,0l0,0l0,0c0,0,0,0,0,0l0,0l0,0l0,0l0,0l0,0c0,0,0,0,0,0l0,0l0,0l0,0
	c0,0,0,0,0,0l0,0l0,0l0,0c0,0,0,0,0,0l0,0c-0.1-0.1-0.2-0.2-0.4-0.2l0,0l0,0l0,0l0,0l0,0c0,0,0,0,0,0l0,0c0,0,0,0,0,0l0,0
	c0,0,0,0,0,0l0,0c0,0,0,0,0,0l0,0c0,0,0,0,0,0l0,0c0,0,0,0,0,0l0,0c-0.1-0.1-0.3-0.2-0.4-0.3l0,0l0,0l0,0l0,0l0,0c0,0,0,0,0,0l0,0
	l0,0l0,0l0,0l0,0l0,0l0,0c0,0,0,0-0.1,0l0,0c0,0,0,0-0.1,0l0,0c-0.2-0.1-0.4-0.3-0.7-0.4l0,0l-0.1,0l0,0l-0.1,0h0
	c-6.7-4.1-13.8-7.7-21.2-10.5c-3.3-1.3-6.9,0.4-8.2,3.6c-1.3,3.3,0.3,6.9,3.6,8.2c24.9,9.8,36.2,21.8,36.5,29.4
	C276.4,132.7,279.2,135.4,282.7,135.4L282.7,135.4z M149.5,186.6h0.3c0,0,0,0,0.1,0h0.1c0,0,0,0,0.1,0h0.1c0,0,0,0,0.1,0
	c0,0,0,0,0.1,0h0.1c0,0,0,0,0.1,0h0.1c0,0,0,0,0.1,0c0,0,0.1,0,0.1,0h0.1c0,0,0,0,0.1,0c0,0,0,0,0.1,0h0.1h0l0.1,0h0l0.1,0h0
	c0,0,0.1,0,0.1,0h0l0.1,0h0.1l0.1,0h0.1c0,0,0,0,0.1,0c0,0,0,0,0.1,0c0,0,0,0,0.1,0l0.1,0c0,0,0,0,0.1,0c0,0,0,0,0.1,0l0.1,0h0.1
	l0.1,0c0,0,0,0,0.1,0c0,0,0.1,0,0.1,0h0l0.1,0h0l0.1,0l0,0c0,0,0.1,0,0.1,0l0.1,0l0.1,0l0,0c0,0,0.1,0,0.1,0l0,0c0,0,0.1,0,0.1,0
	l0.1,0l0.1,0l0.1,0l0.1,0l0,0c0,0,0.1,0,0.1,0l0,0c0,0,0.1,0,0.1,0l0,0l0.1,0c0,0,0.1,0,0.1,0c0,0,0,0,0.1,0l0.1,0l0.1,0l0.1,0
	c0,0,0,0,0.1,0c0,0,0,0,0.1,0l0.1,0l0.1,0l0.1,0l0.1,0l0.1,0l0.1,0l0.1,0c0,0,0,0,0.1,0l0.1,0l0.1,0l0.1,0l0.1,0l0.1,0l0.1,0
	c0,0,0.1,0,0.1,0l0,0c0,0,0.1,0,0.1,0l0.1,0l0.1,0c0,0,0,0,0.1,0l0.1,0l0.1,0l0.1,0l0.1,0c0,0,0,0,0.1,0l0.1,0l0.1,0c0,0,0,0,0.1,0
	l0.1,0l0.1,0l0.1,0l0.1,0l0.1,0l0.1,0c0,0,0,0,0.1,0c0,0,0,0,0.1,0l0.1,0l0.1,0c0,0,0,0,0.1,0l0.1,0l0.1,0l0.1,0l0.1,0
	c0,0,0,0,0.1,0l0.1,0l0.1,0l0.1,0l0.1,0l0.1,0l0.1,0c0,0,0,0,0.1,0c0,0,0,0,0.1,0c0,0,0,0,0.1,0l0.1,0l0.1,0c0,0,0,0,0.1,0l0,0
	l0.2,0l0,0l0.1,0c0,0,0,0,0.1,0c0,0,0,0,0.1,0l0.1,0c0,0,0,0,0.1,0l0.1,0l0.1,0l0.1,0l0.1,0l0.1,0c0,0,0,0,0.1,0l0.1,0
	c0,0,0,0,0.1,0l0,0l0.1,0l0.1,0l0.1,0c0,0,0.1,0,0.1,0l0.1,0c0,0,0.1,0,0.1,0c0,0,0,0,0.1,0l0.1,0c0,0,0,0,0.1,0l0.1,0l0.1,0
	c0,0,0,0,0.1,0l0.1,0l0.1,0l0.1,0l0,0l0.1,0l0.1,0l0.1,0l0.1,0l0.1,0l0.1,0l0.1,0l0.1,0l0.1,0l0.1,0l0.1,0c0,0,0.1,0,0.1,0l0.1,0
	l0.1,0l0.1,0l0.1,0l0.1,0l0.1,0l0.1,0l0.1,0c0,0,0,0,0.1,0l0.1,0l0.1,0l0.1,0c0,0,0,0,0.1,0l0,0c0,0,0,0,0.1,0l0,0l0.1,0l0,0l0.1,0
	l0,0l0.2,0l0,0c0,0,0.1,0,0.1,0l0,0c0,0,0,0,0.1,0l0,0l0.1,0l0,0c0,0,0,0,0.1,0l0.1,0l0.1,0l0.1,0l0.1,0l0.1,0l0.1,0l0,0l0.1,0l0,0
	c0,0,0.1,0,0.1,0l0,0c0.1,0,0.2,0,0.3,0l0,0c0,0,0,0,0.1,0l0.1,0l0.1,0c0,0,0,0,0.1,0l0.1,0l0.1,0l0.1,0l0.1,0c0,0,0,0,0.1,0
	c0,0,0,0,0,0l0.1,0l0.1,0c0,0,0,0,0.1,0c0,0,0,0,0.1,0l0.1,0l0.1,0c0,0,0,0,0.1,0c0,0,0,0,0.1,0l0.1,0c0,0,0,0,0.1,0l0.1,0l0.1,0
	l0.1,0l0,0l0.1,0l0,0l0.1,0l0,0c0,0,0.1,0,0.1,0l0,0l0.1,0l0,0l0.1,0l0,0c0,0,0.1,0,0.1,0l0,0l0.1,0l0,0c0.1,0,0.3,0,0.4,0l0,0
	c0,0,0.1,0,0.1,0l0,0l0.1,0l0,0l0.1,0l0,0c0,0,0.1,0,0.1,0l0,0c0,0,0.1,0,0.1,0l0,0l0.1,0l0,0c0.2,0,0.4,0,0.7,0l0,0
	c0,0,0.1,0,0.1,0l0,0l0.1,0l0,0l0.1,0l0,0l0.1,0l0,0c0,0,0.1,0,0.1,0l0,0l0.1,0l0,0l0.1,0l0,0c0.1,0,0.3,0,0.4,0h0c0,0,0.1,0,0.1,0
	l0,0l0.1,0l0,0l0.1,0l0,0l0.1,0l0,0c0,0,0.1,0,0.1,0l0,0c0,0,0.1,0,0.1,0l0,0c0,0,0.1,0,0.1,0l0,0c0.2,0,0.5,0,0.7,0l0,0l0.1,0l0,0
	c0,0,0.1,0,0.1,0l0,0c0,0,0.1,0,0.1,0l0,0l0.1,0l0,0l0.1,0l0,0l0.1,0l0,0c0.2,0,0.4,0,0.6,0h0c0,0,0.1,0,0.1,0l0,0c0,0,0.1,0,0.1,0
	l0,0c0,0,0.1,0,0.1,0l0,0l0.1,0l0,0l0.1,0l0,0c0,0,0.1,0,0.1,0l0,0c0.2,0,0.5,0,0.7,0h0c0,0,0.1,0,0.1,0l0,0l0.1,0l0,0l0.1,0l0,0
	c0,0,0.1,0,0.1,0l0,0c0,0,0.1,0,0.1,0l0,0c0.3,0,0.5,0,0.8-0.1h0l0.1,0l0,0c0,0,0.1,0,0.1,0l0,0l0.1,0l0,0l0.1,0l0,0
	c0,0,0.1,0,0.1,0h0c0.2,0,0.4,0,0.7-0.1l0,0l0.1,0h0c0,0,0.1,0,0.1,0l0,0c0,0,0.1,0,0.1,0h0c0,0,0.1,0,0.1,0l0,0
	c0.4,0,0.7-0.1,1.1-0.1l0,0c0,0,0.1,0,0.1,0l0,0l0.1,0l0,0c20-1.7,37.8-5.1,53.1-9.8l0,0l0.1,0l0,0l0.1,0l0,0l0.1,0l0,0
	c0.2-0.1,0.4-0.1,0.7-0.2l0,0l0.1,0l0,0l0.1,0l0,0c0,0,0,0,0.1,0l0,0l0.1,0l0,0c0,0,0,0,0.1,0l0,0c0.2-0.1,0.3-0.1,0.5-0.2l0,0
	l0.1,0l0,0c0,0,0,0,0.1,0l0,0c0,0,0,0,0.1,0l0,0l0.1,0l0,0c0,0,0,0,0.1,0l0,0l0.1,0l0,0c0,0,0,0,0.1,0l0,0c0.1,0,0.2-0.1,0.3-0.1
	l0,0c0,0,0,0,0.1,0l0,0c0,0,0,0,0.1,0l0,0l0.1,0l0,0l0.1,0l0,0l0.1,0l0,0c0,0,0,0,0.1,0l0,0l0.1,0l0,0l0.1,0l0,0c0,0,0.1,0,0.1,0
	c0,0,0,0,0.1,0l0,0l0,0l0,0l0,0l0,0l0,0l0,0c0,0,0,0,0,0l0,0l0,0l0,0l0,0l0,0l0,0l0,0l0.1,0l0,0l0.1,0l0,0c0.1,0,0.1,0,0.2-0.1l0,0
	l0.1,0l0,0l0.1,0l0,0c0,0,0,0,0.1,0l0,0c0,0,0,0,0.1,0l0,0l0.1,0l0,0l0.1,0l0,0c0,0,0,0,0.1,0l0,0l0.1,0l0,0c0,0,0.1,0,0.1,0l0,0
	c0.1,0,0.1,0,0.2-0.1l0,0l0.1,0l0,0c0,0,0,0,0.1,0l0,0c0,0,0,0,0.1,0l0,0l0.1,0l0,0l0.1,0l0,0c0,0,0.1,0,0.1,0l0,0
	c0.2-0.1,0.4-0.1,0.5-0.2l0,0c0,0,0.1,0,0.1,0l0,0c0,0,0.1,0,0.1,0c0,0,0,0,0,0c0.1,0,0.1,0,0.2-0.1l0,0c6.6-2.3,13.1-5,19.3-8.1
	c3.1-1.6,4.4-5.4,2.8-8.5c-1.6-3.1-5.4-4.4-8.5-2.8c0,0,0,0,0,0c-24.9,12.7-62,19.9-102,19.9c-74.9,0-119.5-24.3-126-40.7
	c-1.3-3.3-5-4.8-8.2-3.5c-3.2,1.3-4.8,5-3.5,8.2c2.8,6.9,8.8,13.7,17.8,20l0,0c0.1,0.1,0.3,0.2,0.4,0.3l0,0c0.1,0.1,0.3,0.2,0.4,0.3
	l0,0l0,0l0,0l0.1,0l0,0c0.1,0.1,0.2,0.1,0.3,0.2l0,0c0,0,0,0,0.1,0l0,0c0,0,0,0,0.1,0l0,0c0.1,0.1,0.3,0.2,0.4,0.3l0,0l0.1,0l0,0
	c0,0,0,0,0.1,0l0,0l0.1,0l0,0c0,0,0,0,0.1,0l0,0c0.1,0.1,0.2,0.1,0.3,0.2l0,0l0.1,0l0,0l0,0l0,0l0,0l0,0l0,0l0,0
	c0.1,0,0.1,0.1,0.2,0.1l0,0l0,0l0,0l0,0l0,0l0,0l0,0c0,0,0,0,0,0l0,0l0,0l0,0c0.1,0,0.1,0.1,0.2,0.1l0,0l0.1,0l0,0c0,0,0,0,0,0l0,0
	l0,0l0,0c0.1,0.1,0.2,0.1,0.3,0.2l0,0l0.1,0l0,0l0.1,0l0,0l0.1,0l0,0l0,0l0,0c0.1,0,0.1,0.1,0.2,0.1l0,0l0,0l0,0l0,0l0,0l0,0l0,0
	l0,0l0,0l0,0l0,0c0,0,0,0,0,0l0,0c0.1,0,0.1,0.1,0.2,0.1l0,0c0,0,0,0,0.1,0l0,0l0,0l0,0l0,0l0,0c0,0,0,0,0,0l0,0c0,0,0,0,0.1,0l0,0
	c0.1,0,0.2,0.1,0.2,0.1l0,0l0.1,0l0,0c0,0,0,0,0,0l0,0l0,0l0,0l0,0l0,0l0.1,0.1l0,0c0.1,0,0.1,0.1,0.2,0.1l0,0c0,0,0,0,0.1,0l0,0
	l0,0l0,0c0,0,0,0,0,0l0,0c0,0,0,0,0.1,0l0,0l0.1,0l0,0c0.1,0,0.1,0.1,0.2,0.1l0,0l0,0l0,0l0,0l0,0l0,0l0,0l0,0l0,0l0,0l0,0l0,0l0,0
	c0.1,0,0.1,0.1,0.2,0.1l0,0l0.1,0l0,0l0,0l0,0l0,0l0,0l0,0l0,0c0,0,0,0,0,0l0,0l0,0l0,0l0.1,0l0,0c0,0,0,0,0.1,0l0,0c0,0,0,0,0.1,0
	l0,0l0,0l0,0l0,0l0,0l0,0l0,0l0,0l0,0l0,0l0,0c0,0,0.1,0,0.1,0.1l0,0c0,0,0.1,0,0.1,0.1l0,0l0,0l0,0c0,0,0,0,0,0l0,0c0,0,0,0,0,0
	l0,0l0,0l0,0l0,0l0,0c0,0,0,0,0,0l0,0c0,0,0.1,0,0.1,0.1l0,0c0,0,0,0,0,0l0,0l0,0l0,0l0,0l0,0l0,0l0,0l0,0l0,0l0,0l0,0l0.2,0.1l0,0
	l0.1,0l0,0c0,0,0,0,0,0l0,0l0,0l0,0l0,0l0,0l0,0l0,0l0,0l0,0c0,0,0,0,0.1,0l0,0l0.1,0.1l0,0c0,0,0,0,0.1,0l0,0l0,0l0,0c0,0,0,0,0,0
	l0,0l0,0l0,0l0,0l0,0l0,0l0,0c0,0,0.1,0,0.1,0.1l0,0l0.1,0l0,0l0,0l0,0l0,0l0,0l0,0l0,0l0,0l0,0l0,0l0,0l0.1,0l0,0
	c0.1,0,0.1,0.1,0.2,0.1l0,0c0,0,0,0,0.1,0l0,0l0,0l0,0l0,0l0,0l0,0l0,0c0,0,0,0,0,0l0,0l0,0l0,0c0,0,0.1,0,0.1,0.1l0,0l0,0l0,0l0,0
	l0,0l0,0l0,0l0,0l0,0l0,0l0,0l0,0l0,0l0,0l0,0l0.1,0.1l0,0l0.1,0l0,0c0,0,0,0,0,0l0,0l0,0l0,0c0,0,0,0,0,0l0,0l0,0l0,0l0,0l0,0
	c0,0,0,0,0.1,0l0,0c0,0,0.1,0,0.1,0.1l0,0l0,0l0,0l0,0l0,0l0,0l0,0l0,0l0,0l0,0l0,0l0,0l0,0c0,0,0,0,0.1,0l0,0c0,0,0,0,0.1,0l0,0
	c0,0,0,0,0.1,0l0,0l0,0l0,0l0,0l0,0l0,0l0,0l0,0l0,0l0,0l0,0l0.1,0l0,0l0,0l0,0c0,0,0.1,0,0.1,0.1l0,0l0,0l0,0l0,0l0,0l0,0l0,0
	c0,0,0,0,0,0l0,0l0,0l0,0l0,0l0,0l0.1,0l0,0l0.1,0l0,0l0.1,0l0,0l0,0l0,0l0,0l0,0l0,0l0,0l0,0l0,0l0,0l0,0l0,0l0,0l0,0l0.1,0
	c0,0,0,0,0,0l0,0l0,0l0,0l0,0l0,0l0,0l0,0l0,0l0,0l0,0l0,0l0,0l0,0l0,0l0,0l0.1,0l0,0l0,0l0,0l0,0l0,0l0,0l0,0l0,0l0,0l0,0l0,0l0,0
	l0,0l0,0l0,0l0,0l0,0l0,0c0,0,0,0,0,0c0,0,0,0,0,0l0,0l0,0l0,0l0,0l0,0l0,0l0,0l0,0l0,0l0,0l0,0l0,0l0,0l0,0l0,0l0,0
	c0,0,0.1,0,0.1,0l0,0l0,0l0,0c0,0,0,0,0,0l0,0l0,0l0,0l0,0l0,0l0,0l0,0c0,0,0,0,0,0l0,0l0,0l0,0l0,0l0,0c0,0,0,0,0,0c0,0,0,0,0,0
	l0,0l0,0l0,0l0,0l0,0l0,0l0,0l0,0l0,0l0,0l0,0l0,0l0,0l0,0l0.1,0.1l0,0l0,0l0,0l0,0l0,0l0,0l0,0l0,0l0,0l0,0l0,0l0,0l0,0l0,0l0.1,0
	l0,0l0.1,0l0,0l0,0l0,0l0,0l0,0l0,0l0,0l0,0l0,0l0,0l0,0l0,0l0,0l0,0c0.1,0,0.1,0.1,0.2,0.1l0,0l0,0l0,0l0,0l0,0c0,0,0,0,0,0l0,0
	c0,0,0,0,0,0l0,0l0,0l0,0l0,0l0,0c0.1,0,0.1,0,0.2,0.1l0,0l0,0l0,0c0,0,0,0,0,0l0,0l0,0l0,0l0,0l0,0l0,0l0,0l0,0l0,0l0,0l0,0l0,0
	c0,0,0,0,0.1,0l0,0l0.1,0l0,0l0,0l0,0l0,0l0,0l0,0l0,0l0,0l0,0l0,0l0,0l0,0l0,0l0,0l0,0c0,0,0,0,0.1,0l0,0l0,0l0,0l0,0l0,0l0,0l0,0
	l0,0l0,0l0,0l0,0l0,0l0,0l0,0l0,0l0,0c0,0,0.1,0,0.1,0l0,0c0,0,0,0,0,0l0,0l0,0l0,0l0,0l0,0l0,0l0,0l0,0l0,0l0,0l0,0l0,0l0,0l0,0
	l0,0c0,0,0,0,0.1,0l0,0l0,0l0,0l0,0l0,0l0,0l0,0l0,0l0,0l0,0l0,0l0,0c0,0,0,0,0,0l0,0l0,0l0,0l0,0l0.1,0l0,0l0,0l0,0l0,0l0,0l0,0
	l0,0l0,0l0,0l0,0l0,0l0,0l0,0l0,0l0,0l0,0c0,0,0,0,0,0l0.1,0l0,0l0,0l0,0l0,0l0,0l0,0l0,0l0,0l0,0l0,0l0,0l0,0l0,0l0,0l0,0
	c0.1,0,0.1,0,0.2,0.1l0,0c0,0,0,0,0,0l0,0l0,0l0,0l0,0l0,0l0,0l0,0l0,0l0,0l0,0l0,0l0,0l0.1,0l0,0l0.1,0l0.1,0l0,0l0,0l0,0l0,0l0,0
	l0,0l0,0l0,0l0,0l0,0c0,0,0,0,0,0l0,0l0.1,0l0,0l0.1,0l0,0c0,0,0,0,0.1,0l0,0c0,0,0,0,0.1,0l0,0l0.1,0l0,0l0,0l0,0l0,0l0,0l0,0l0,0
	l0,0l0,0l0,0l0,0c0,0,0.1,0,0.1,0.1l0,0l0.1,0l0,0l0,0l0,0l0,0l0,0l0,0l0,0l0.1,0l0,0c0,0,0,0,0.1,0l0,0l0.1,0l0,0
	c0.1,0,0.1,0,0.2,0.1l0,0l0.1,0l0,0l0,0l0,0l0,0l0,0l0,0l0,0l0,0l0,0l0,0l0,0l0.1,0l0,0c0,0,0.1,0,0.1,0.1l0,0l0,0l0,0l0,0l0,0l0,0
	l0,0l0,0l0,0l0,0l0,0l0,0l0,0l0,0l0,0l0.1,0l0,0l0,0l0,0l0,0l0,0l0,0l0,0l0,0c0,0,0,0,0,0l0,0l0,0l0,0l0,0l0,0l0,0l0,0l0.1,0l0.1,0
	l0,0l0.1,0l0,0c0,0,0,0,0,0l0,0l0,0l0,0l0,0l0,0l0,0l0,0l0,0l0,0l0,0l0,0l0,0c0,0,0.1,0,0.1,0l0,0c0,0,0,0,0.1,0l0,0l0,0l0,0l0,0
	l0,0l0,0l0,0l0,0l0,0l0,0l0,0l0,0l0,0l0,0c0,0,0,0,0.1,0l0,0c0,0,0,0,0.1,0l0,0l0,0l0,0l0,0l0,0l0,0l0,0l0,0l0,0l0,0l0,0
	c0,0,0,0,0,0l0,0l0,0l0,0l0.1,0l0.1,0l0,0l0,0l0,0l0,0c0,0,0,0,0,0l0,0l0,0l0,0c0,0,0,0,0,0l0,0l0,0l0,0l0,0l0,0l0,0l0,0l0,0l0.1,0
	l0,0l0,0l0,0l0,0l0,0l0,0l0,0l0,0l0,0l0,0l0,0l0,0l0,0l0,0l0,0l0,0l0,0l0.1,0l0,0l0,0l0,0l0,0l0,0c0,0,0,0,0,0l0,0c0,0,0,0,0,0l0,0
	l0,0l0,0l0,0l0,0l0,0l0,0c0,0,0.1,0,0.1,0l0,0l0,0l0,0l0,0c0,0,0,0,0,0l0,0l0,0c0,0,0,0,0,0l0,0l0,0l0,0l0,0l0,0l0.1,0l0,0l0.1,0
	l0,0c0,0,0.1,0,0.1,0l0,0l0,0l0,0l0,0l0,0l0,0l0,0l0,0l0,0l0,0l0,0c0,0,0,0,0,0l0,0l0,0l0,0l0,0l0,0c0,0,0.1,0,0.1,0l0,0l0,0l0,0
	l0,0l0,0c0,0,0,0,0,0l0,0l0,0l0,0l0,0l0,0l0,0l0,0c0,0,0,0,0,0l0,0l0,0c0,0,0.1,0,0.1,0l0,0c0,0,0,0,0.1,0l0,0l0.1,0l0,0l0,0l0,0
	c0,0,0,0,0,0l0,0l0,0l0,0l0.1,0l0,0l0.1,0l0,0c0,0,0,0,0.1,0l0,0c0.1,0,0.1,0,0.2,0.1l0,0l0.1,0l0,0l0,0l0,0l0,0l0,0l0,0l0,0l0,0
	l0,0l0,0l0,0l0,0l0,0l0.1,0l0,0l0,0l0,0l0,0l0,0l0,0l0,0c0,0,0,0,0.1,0l0,0l0,0l0,0l0,0l0,0l0,0l0,0l0,0c0,0,0.1,0,0.1,0l0,0l0,0
	l0,0l0,0l0,0l0,0l0,0l0,0l0,0l0,0l0,0l0,0l0.1,0l0,0c0,0,0,0,0.1,0l0,0l0.1,0l0,0l0.1,0l0,0l0,0l0,0l0,0l0,0l0,0l0,0l0,0l0,0l0,0
	l0.1,0l0,0l0.1,0l0,0l0.1,0l0,0c0,0,0.1,0,0.1,0l0,0l0.1,0l0,0l0,0l0,0l0,0l0,0l0,0l0,0l0,0c0,0,0,0,0,0l0,0c0,0,0,0,0.1,0l0,0l0,0
	l0,0l0,0l0.1,0l0,0l0,0l0,0l0,0l0,0l0,0l0,0l0,0l0,0l0,0l0,0l0,0l0,0c0,0,0,0,0.1,0l0,0l0,0l0.1,0l0.1,0l0.1,0l0,0l0,0l0,0l0.1,0
	l0,0l0.1,0l0,0l0,0l0,0l0,0l0,0l0,0l0,0l0,0l0,0c0,0,0.1,0,0.1,0l0,0c0,0,0,0,0.1,0l0,0l0,0l0,0l0,0l0,0l0,0l0,0l0,0l0,0l0,0
	c0,0,0,0,0,0l0,0c0,0,0,0,0,0c0,0,0.1,0,0.1,0h0l0.1,0l0,0l0,0l0,0l0,0l0,0l0,0l0,0l0,0l0,0l0,0l0,0l0,0l0,0l0.1,0l0,0l0.1,0l0,0
	l0.1,0l0,0c0,0,0,0,0.1,0c0,0,0,0,0,0l0,0l0,0l0,0l0,0l0,0l0,0c0,0,0,0,0.1,0l0,0l0.1,0l0,0c0,0,0,0,0.1,0l0,0l0.2,0l0,0
	c0,0,0,0,0,0l0,0l0,0l0,0l0,0l0,0l0,0l0,0l0,0l0,0l0,0c0,0,0,0,0,0l0,0l0,0l0,0l0.1,0l0,0l0,0l0,0l0,0l0,0l0,0l0,0l0,0l0,0l0,0
	l0.1,0l0,0l0.1,0l0,0c0,0,0,0,0.1,0l0,0c0.1,0,0.1,0,0.2,0l0,0l0.1,0l0,0l0.1,0l0,0c0,0,0,0,0.1,0l0,0l0.1,0l0,0c0,0,0,0,0.1,0l0,0
	c0,0,0,0,0.1,0l0,0l0.1,0h0c0,0,0.1,0,0.1,0l0,0l0.1,0l0,0l0.1,0l0,0c0,0,0,0,0.1,0l0,0c0,0,0,0,0.1,0l0,0l0.1,0l0,0l0.1,0l0,0
	l0.1,0l0,0l0.1,0l0,0l0.1,0l0,0c0,0,0,0,0.1,0l0,0l0.1,0l0,0l0.1,0l0,0c0,0,0,0,0.1,0l0,0l0.1,0l0,0l0.1,0l0,0l0,0l0,0
	c0,0,0,0,0.1,0l0,0l0.1,0l0,0c0,0,0,0,0.1,0l0,0l0.1,0l0,0l0,0l0,0l0.1,0l0,0l0.1,0l0,0l0.1,0c0,0,0,0,0,0l0.1,0l0,0l0.1,0l0,0
	c0,0,0.1,0,0.1,0l0,0l0.1,0l0,0l0.1,0l0,0l0.1,0l0,0l0.1,0l0,0c0,0,0,0,0,0l0,0l0,0l0,0c0,0,0,0,0.1,0l0,0l0.1,0l0,0c0,0,0,0,0.1,0
	l0,0l0.1,0l0,0l0.1,0c0,0,0,0,0,0l0,0l0,0l0,0l0,0l0.1,0l0,0l0.1,0l0,0l0.1,0l0,0l0.1,0l0,0c0,0,0,0,0.1,0l0,0l0.1,0l0,0l0,0l0,0
	l0,0l0,0l0,0l0,0l0,0l0,0l0.1,0l0,0l0.1,0l0,0c0,0,0.1,0,0.1,0l0,0l0.1,0l0,0l0.1,0l0,0l0.1,0l0,0l0.1,0l0,0l0.1,0l0,0
	c0,0,0,0,0.1,0l0,0l0.1,0l0,0c0,0,0.1,0,0.1,0l0,0l0.1,0l0,0c0,0,0,0,0.1,0l0,0c0,0,0,0,0.1,0l0,0c0,0,0,0,0.1,0l0,0l0.1,0l0,0
	l0.1,0l0,0c0,0,0,0,0.1,0l0,0c0,0,0.1,0,0.1,0l0,0c0.1,0,0.1,0,0.2,0l0,0l0.1,0l0,0l0.1,0l0,0l0.1,0l0,0l0.1,0l0,0l0.1,0l0,0l0.1,0
	l0,0l0.1,0l0,0l0.1,0l0,0l0.1,0l0,0l0.1,0l0,0l0.1,0l0,0c0,0,0,0,0.1,0l0,0l0.1,0l0,0l0.1,0l0,0l0.1,0l0,0l0.1,0l0,0l0.1,0l0,0
	l0.1,0l0,0l0.1,0l0,0l0.1,0l0,0l0.1,0l0,0l0.1,0l0,0l0.1,0l0,0l0.1,0l0,0l0.1,0l0,0c0,0,0.1,0,0.1,0c0,0,0,0,0,0c0,0,0.1,0,0.1,0
	l0,0l0.1,0l0,0c0,0,0,0,0.1,0l0,0l0.1,0l0,0l0.1,0l0,0l0.1,0l0,0l0,0l0,0c0,0,0,0,0.1,0l0,0l0.1,0l0,0l0.1,0l0,0c0,0,0,0,0.1,0l0,0
	l0,0l0,0l0,0l0,0l0,0l0.1,0l0,0l0,0l0.1,0l0,0l0.1,0l0,0c0,0,0.1,0,0.1,0l0,0l0.1,0l0,0l0.1,0l0,0l0.1,0l0,0l0.1,0l0,0l0.1,0l0,0
	l0.1,0l0,0l0.1,0l0,0l0.2,0l0,0l0.1,0l0,0l0.1,0l0,0l0.1,0l0,0c0,0,0,0,0.1,0l0,0l0,0l0,0l0.1,0l0,0l0.1,0l0,0c0,0,0,0,0.1,0l0.1,0
	l0,0l0,0l0,0l0,0l0.1,0l0,0l0,0l0,0l0,0l0,0c0,0,0,0,0.1,0l0,0l0.1,0l0,0l0.1,0l0,0l0.1,0l0,0l0.1,0l0,0l0.1,0l0,0l0,0l0,0l0,0l0,0
	c0,0,0,0,0.1,0l0,0l0.1,0l0,0c0,0,0,0,0.1,0l0,0c0,0,0,0,0.1,0l0,0c0,0,0.1,0,0.1,0l0,0l0.1,0l0,0l0,0l0,0c0,0,0,0,0.1,0l0,0l0.1,0
	l0,0l0.1,0l0,0l0.1,0l0,0l0.1,0l0,0c0,0,0,0,0.1,0l0,0c0,0,0.1,0,0.1,0l0,0c0,0,0,0,0.1,0l0,0l0.1,0l0,0c0,0,0,0,0.1,0l0,0l0.1,0
	l0,0l0.1,0l0,0l0.1,0l0,0l0.1,0l0,0c0.1,0,0.1,0,0.2,0l0,0l0.1,0l0,0l0.1,0l0,0l0.1,0l0,0c0,0,0,0,0.1,0l0,0l0.1,0l0,0l0,0l0,0
	l0.1,0l0,0l0,0c0,0,0.1,0,0.1,0l0,0l0,0l0.1,0l0,0l0,0l0,0l0,0l0,0l0.1,0l0,0l0.1,0l0,0l0.1,0l0,0l0.1,0l0,0c0.1,0,0.1,0,0.2,0l0,0
	l0.1,0l0,0l0.1,0l0,0l0.1,0l0,0l0.1,0l0,0l0.1,0l0,0l0.1,0l0,0c0,0,0.1,0,0.1,0l0,0l0.1,0l0,0l0.1,0l0,0l0.1,0l0,0c0,0,0,0,0.1,0
	l0,0l0.1,0l0,0l0.1,0l0,0l0.1,0l0,0l0.1,0l0,0c0,0,0,0,0.1,0l0,0l0.1,0l0,0l0.1,0l0,0l0.1,0l0,0l0.1,0l0,0l0.1,0l0,0c0,0,0,0,0.1,0
	l0.1,0l0,0l0,0l0.1,0l0,0c0,0,0.1,0,0.1,0l0,0c0,0,0.1,0,0.1,0l0,0c0,0,0.1,0,0.1,0l0,0c0,0,0.1,0,0.1,0l0,0c0,0,0,0,0.1,0l0,0
	l0.1,0l0,0l0.1,0l0,0l0.1,0l0,0c0,0,0.1,0,0.1,0l0,0c0.1,0,0.1,0,0.2,0l0,0c0,0,0.1,0,0.1,0l0,0l0.1,0l0,0c0,0,0,0,0.1,0l0,0l0.1,0
	l0,0l0.1,0l0,0l0.1,0l0,0c0.1,0,0.2,0,0.3,0.1l0,0l0.1,0l0,0l0.1,0l0,0l0.1,0l0,0l0.1,0l0,0c0,0,0,0,0.1,0l0,0l0.1,0l0,0l0.1,0l0,0
	c0,0,0.1,0,0.1,0l0,0l0.1,0l0,0l0.1,0l0,0l0.1,0l0,0l0.1,0l0,0c0,0,0,0,0.1,0l0,0c0,0,0,0,0.1,0l0,0c0,0,0,0,0.1,0l0,0
	c0,0,0.1,0,0.1,0l0,0c0,0,0.1,0,0.1,0l0,0c0,0,0.1,0,0.1,0l0,0l0.1,0l0,0c0,0,0,0,0.1,0l0,0l0.1,0l0,0l0.1,0l0,0c0,0,0,0,0.1,0l0,0
	c0,0,0.1,0,0.1,0l0,0c0.1,0,0.1,0,0.2,0l0,0c0,0,0.1,0,0.1,0l0,0l0.1,0l0,0l0.1,0l0,0c0,0,0,0,0.1,0l0,0c0,0,0,0,0.1,0l0,0l0.1,0
	l0,0l0.1,0l0,0l0.2,0l0,0c0,0,0.1,0,0.1,0l0,0l0.1,0l0,0l0.1,0l0,0l0.1,0l0,0c0,0,0,0,0.1,0l0,0l0.1,0l0,0l0.1,0l0,0
	c0.1,0,0.1,0,0.2,0l0,0l0.1,0l0,0l0.1,0l0,0c0,0,0,0,0.1,0l0,0l0.1,0l0,0c0,0,0,0,0.1,0l0,0l0.1,0l0,0l0.1,0l0,0c0.1,0,0.1,0,0.2,0
	l0,0c0,0,0.1,0,0.1,0l0,0c0,0,0.1,0,0.1,0l0,0c0,0,0.1,0,0.1,0l0,0c0,0,0,0,0.1,0l0,0c0,0,0,0,0.1,0l0,0l0.1,0l0,0c0,0,0,0,0.1,0
	l0,0c0.1,0,0.1,0,0.2,0l0,0l0.1,0l0,0c0,0,0,0,0.1,0l0,0l0.1,0l0,0l0,0l0.1,0l0.1,0l0,0l0.1,0l0,0c0,0,0,0,0.1,0l0,0l0.1,0l0,0
	l0.1,0l0,0l0.1,0l0.1,0l0,0l0,0l0.1,0l0.1,0l0,0l0.1,0l0.1,0l0,0c0,0,0,0,0.1,0l0,0l0.1,0l0,0l0.1,0l0,0c0,0,0,0,0.1,0l0,0l0.1,0
	l0,0c0,0,0,0,0.1,0l0,0c0,0,0,0,0.1,0l0,0c0,0,0,0,0.1,0l0,0c0,0,0.1,0,0.1,0l0,0c0,0,0,0,0.1,0l0,0l0.1,0l0,0c0,0,0.1,0,0.1,0l0,0
	l0.1,0l0,0l0.1,0l0,0l0.1,0l0,0c0,0,0,0,0.1,0l0,0l0.1,0l0,0l0.1,0l0,0c0,0,0.1,0,0.1,0l0,0c0.1,0,0.1,0,0.2,0l0,0c0,0,0,0,0.1,0
	l0,0c0,0,0,0,0.1,0l0,0l0.1,0l0,0l0.1,0l0,0c0,0,0,0,0.1,0l0,0c0,0,0,0,0.1,0l0,0l0.1,0l0,0c0,0,0.1,0,0.1,0l0,0l0.1,0l0,0
	c0,0,0,0,0.1,0l0,0l0.1,0l0,0l0.1,0l0,0l0.1,0l0,0c0,0,0,0,0.1,0l0,0l0.1,0l0,0c0.1,0,0.1,0,0.2,0l0,0c0,0,0.1,0,0.1,0l0,0l0.1,0
	l0,0l0.1,0l0,0l0.1,0l0,0l0.1,0l0,0l0.1,0l0,0l0.1,0l0,0c0,0,0.1,0,0.1,0l0,0c0,0,0.1,0,0.1,0l0,0c0,0,0.1,0,0.1,0l0,0
	c0,0,0.1,0,0.1,0l0,0l0.1,0l0,0l0.1,0l0,0c0,0,0.1,0,0.1,0l0,0c0,0,0.1,0,0.1,0l0,0l0.1,0l0,0c0.1,0,0.1,0,0.2,0l0,0
	c0,0,0.1,0,0.1,0l0,0l0.1,0l0,0l0.1,0l0,0l0.1,0l0,0c0,0,0,0,0.1,0l0.1,0l0,0l0.1,0l0.1,0l0.1,0l0.1,0l0,0l0.1,0l0,0
	c0,0,0.1,0,0.1,0l0,0c0,0,0.1,0,0.1,0l0,0l0.1,0l0,0l0.1,0l0,0l0.1,0l0,0l0.1,0l0,0l0.1,0l0,0l0.2,0l0,0c0,0,0,0,0.1,0l0,0l0.1,0
	l0,0l0.1,0l0,0l0.1,0c0,0,0,0,0,0l0.1,0l0,0l0.1,0l0,0l0.1,0l0,0c0.1,0,0.1,0,0.2,0l0,0l0.1,0l0,0c0,0,0.1,0,0.1,0l0,0
	c0,0,0,0,0.1,0l0,0l0.1,0l0,0l0.1,0l0,0l0.1,0l0,0l0.1,0l0,0l0.2,0l0,0l0.1,0l0,0c0,0,0.1,0,0.1,0l0,0l0.1,0l0,0l0.1,0l0,0l0.1,0
	l0,0l0.1,0l0,0c0,0,0.1,0,0.1,0l0,0l0.1,0l0,0c0,0,0.1,0,0.1,0l0,0l0.1,0l0,0c0,0,0,0,0.1,0l0,0l0.1,0l0,0c0,0,0,0,0.1,0l0,0l0.1,0
	l0,0l0.1,0l0,0l0.1,0l0,0c0,0,0.1,0,0.1,0l0,0l0.1,0l0.1,0c0,0,0,0,0.1,0l0,0l0.1,0l0,0l0.1,0l0,0c0,0,0,0,0.1,0l0,0l0.1,0l0,0
	c0,0,0,0,0.1,0l0,0c0.1,0,0.1,0,0.2,0l0,0l0.1,0l0,0c0,0,0,0,0.1,0l0,0l0.1,0l0,0l0.1,0l0.1,0l0.1,0l0,0l0.1,0l0,0l0.1,0l0.1,0
	l0.1,0c0,0,0.1,0,0.1,0l0.1,0l0.1,0l0.1,0l0.1,0l0.1,0l0,0l0.1,0l0,0l0.1,0l0,0l0.1,0l0.1,0l0.1,0l0,0l0.1,0l0,0l0.2,0l0,0
	c0,0,0.1,0,0.1,0l0,0c0,0,0,0,0.1,0l0,0c0,0,0,0,0.1,0l0,0c0,0,0,0,0.1,0l0,0l0.1,0l0,0l0.1,0l0,0l0.1,0l0,0c0,0,0.1,0,0.1,0l0,0
	l0.1,0l0,0l0.1,0l0,0l0.1,0l0,0l0.1,0l0,0l0.1,0l0,0l0.1,0l0,0l0.1,0l0,0c0.1,0,0.2,0,0.3,0l0,0l0.1,0l0,0l0.1,0l0,0l0.1,0l0,0
	l0.1,0l0.1,0c0,0,0,0,0.1,0l0,0l0.1,0l0,0c0,0,0.1,0,0.1,0l0,0c0,0,0.1,0,0.1,0l0,0l0.1,0l0,0l0.1,0l0,0l0.1,0l0,0l0.1,0l0,0l0.1,0
	l0,0c0,0,0,0,0.1,0l0,0l0.1,0l0,0c0,0,0.1,0,0.1,0h0l0.1,0l0,0l0.1,0l0,0l0.1,0l0,0c0,0,0,0,0.1,0l0.1,0c0,0,0,0,0.1,0l0,0l0.1,0
	l0,0l0.1,0l0,0l0.1,0l0,0l0.2,0l0,0l0.1,0l0,0c0,0,0,0,0.1,0l0,0l0.1,0l0,0c0,0,0,0,0.1,0l0,0l0.1,0l0,0l0.1,0l0,0l0.1,0l0,0
	c0.1,0,0.1,0,0.2,0l0,0c0,0,0,0,0.1,0l0,0l0.1,0l0,0c0,0,0,0,0.1,0l0,0l0.1,0l0,0l0.1,0l0,0l0.1,0l0,0c0,0,0.1,0,0.1,0l0,0
	c0.1,0,0.1,0,0.2,0l0,0l0.1,0l0,0l0.1,0l0,0c0,0,0,0,0.1,0l0,0l0.1,0l0,0l0.1,0l0,0l0.1,0l0,0l0.1,0l0,0c0,0,0.1,0,0.1,0l0,0l0.1,0
	l0,0l0.1,0l0,0c0,0,0.1,0,0.1,0l0,0l0.1,0l0,0l0.1,0l0,0l0.1,0l0,0l0.1,0l0,0c0,0,0.1,0,0.1,0l0,0c0.1,0,0.1,0,0.2,0l0,0
	c0,0,0.1,0,0.1,0l0,0c0,0,0,0,0.1,0l0,0l0.1,0l0,0l0.1,0l0,0c0,0,0,0,0.1,0l0,0c0,0,0,0,0.1,0l0,0l0.2,0l0,0l0.1,0l0,0l0.1,0l0,0
	l0.1,0l0,0l0.1,0l0,0l0.1,0l0,0l0.1,0l0,0c0.1,0,0.2,0,0.3,0l0,0l0.1,0l0,0c0,0,0.1,0,0.1,0l0,0l0.1,0l0,0c0,0,0,0,0.1,0l0,0l0.1,0
	l0,0c0,0,0.1,0,0.1,0l0,0l0.1,0l0,0c0.1,0,0.1,0,0.2,0l0,0l0.1,0l0,0c0,0,0,0,0.1,0l0,0l0.1,0l0,0l0.1,0l0,0l0.1,0l0,0
	c0,0,0,0,0.1,0l0,0l0.1,0l0,0l0.1,0l0,0c0,0,0.1,0,0.1,0l0,0l0.1,0l0,0c0,0,0,0,0.1,0l0,0l0.1,0l0.1,0l0.1,0l0,0l0.1,0l0,0
	c0,0,0,0,0.1,0l0,0l0.1,0l0,0c0,0,0.1,0,0.1,0l0,0l0.1,0l0,0l0.1,0l0,0c0,0,0,0,0.1,0l0,0l0.1,0l0,0l0.1,0l0,0l0.1,0l0,0l0.1,0l0,0
	c0.1,0,0.2,0,0.3,0l0,0l0.1,0l0,0l0.1,0l0,0l0.1,0l0,0l0.1,0l0,0l0.1,0l0,0l0.1,0l0,0c0.1,0,0.2,0,0.2,0l0,0l0.1,0l0,0l0.1,0l0,0
	l0.1,0l0,0l0.1,0l0,0l0.1,0l0,0c0,0,0.1,0,0.1,0l0,0c0,0,0.1,0,0.1,0l0,0l0.2,0l0,0c0,0,0,0,0.1,0l0,0c0,0,0,0,0.1,0l0,0l0.1,0l0,0
	l0.1,0l0,0l0.1,0l0,0l0.1,0l0,0c0,0,0.1,0,0.1,0h0c0,0,0.1,0,0.1,0h0c0,0,0.1,0,0.1,0l0,0c0,0,0.1,0,0.1,0l0,0c0,0,0.1,0,0.1,0l0,0
	l0.1,0l0,0l0.1,0l0,0l0.1,0l0,0c0,0,0.1,0,0.1,0l0,0l0.1,0l0,0l0.1,0h0c0,0,0.1,0,0.1,0l0,0l0.1,0l0,0c0,0,0,0,0.1,0l0,0
	c0,0,0,0,0.1,0l0,0l0.1,0l0,0c0,0,0,0,0.1,0l0.1,0c0,0,0,0,0.1,0l0,0l0.1,0l0,0l0.1,0l0,0c0,0,0.1,0,0.1,0l0,0c0,0,0,0,0.1,0
	c0,0,0,0,0.1,0l0.1,0c0,0,0,0,0.1,0l0.1,0l0.1,0l0.1,0l0.1,0l0.1,0l0.1,0c0,0,0,0,0.1,0l0.1,0l0.1,0l0,0l0.1,0l0,0l0.1,0l0,0l0.1,0
	l0,0c0,0,0.1,0,0.1,0l0,0l0.1,0l0,0l0.1,0l0,0c0,0,0.1,0,0.1,0l0,0l0.1,0h0c0.1,0,0.2,0,0.2,0h0c0,0,0.1,0,0.1,0l0,0l0.1,0l0,0
	c0,0,0,0,0.1,0c0,0,0,0,0,0c0,0,0,0,0.1,0l0,0l0.1,0l0,0l0.1,0l0,0c0,0,0.1,0,0.1,0h0l0.1,0h0l0.1,0l0,0l0.1,0l0,0l0.1,0l0,0l0.1,0
	l0.1,0l0.1,0l0,0c0,0,0,0,0.1,0l0,0c0,0,0.1,0,0.1,0l0,0l0.1,0l0,0c0,0,0.1,0,0.1,0h0l0.1,0l0,0l0.1,0l0.1,0l0.1,0l0.1,0l0.1,0
	l0.1,0l0.1,0c0,0,0,0,0.1,0l0.1,0l0,0c0,0,0.1,0,0.1,0l0,0l0.1,0l0,0c0,0,0.1,0,0.1,0l0,0l0.1,0l0,0l0.1,0l0.1,0l0.1,0l0.1,0
	c0,0,0,0,0.1,0l0.1,0l0.1,0l0.1,0l0.1,0l0.1,0l0.1,0h0l0.1,0h0l0.1,0h0l0.1,0h0.1c0,0,0,0,0.1,0h0c0,0,0,0,0.1,0h0c0,0,0,0,0.1,0h0
	l0.1,0h0.1h0.1h0c0,0,0.1,0,0.1,0h0c0,0,0.1,0,0.1,0h0l0.1,0h0c0,0,0.1,0,0.1,0h0h0.1h0c0,0,0,0,0.1,0h0c0,0,0,0,0.1,0h0
	c0,0,0,0,0.1,0h0.1h0L149.5,186.6L149.5,186.6z"/>
<ellipse class="st24" cx="149.5" cy="110.5" rx="76.1" ry="25.4"/>
<path class="st25" d="M211.4,98c-2.7,0-5.4,0.9-7.6,2.5l-0.1,0.1c-5.7,4.2-6.9,12.1-2.8,17.8c4,5.5,11.6,6.9,17.2,3.1
	c0.1-0.1,0.2-0.2,0.4-0.3l0,0c0,0,0,0,0.1,0l0,0l0,0c0.1-0.1,0.2-0.2,0.3-0.3l0,0c0.2-0.1,0.4-0.3,0.6-0.4
	c5.3-4.2,6.2-11.9,2.2-17.3C219.3,99.9,215.5,98,211.4,98L211.4,98z M149.5,85.1h-0.2h0h-0.1c0,0,0,0-0.1,0H149H149h0h0h0h0h0h-0.1
	h0h0h0h0h0l-0.1,0h0l-0.1,0h0l0,0h0l0,0h0l-0.1,0h0c0,0,0,0-0.1,0h0c0,0,0,0-0.1,0h0l-0.1,0h0c0,0,0,0-0.1,0h0l-0.1,0h0l-0.1,0h0
	l-0.1,0h0c0,0-0.1,0-0.1,0h0l-0.1,0h0l0,0h0l-0.1,0h0l-0.1,0l0,0l0,0l0,0l0,0l0,0l0,0l0,0l0,0l0,0c0,0,0,0-0.1,0h0l0,0l0,0l0,0l0,0
	l0,0l0,0l-0.1,0h0l-0.1,0l0,0l0,0l0,0l-0.1,0h0c0,0,0,0-0.1,0h0l-0.1,0l0,0l0,0l0,0l0,0l0,0l0,0l0,0l-0.1,0h0l-0.1,0h0
	c0,0,0,0-0.1,0h0c0,0,0,0-0.1,0l0,0l-0.1,0l0,0l0,0l0,0l0,0l0,0l0,0l0,0l-0.1,0h0l-0.1,0l0,0l0,0l0,0l0,0l0,0l0,0l-0.1,0l0,0l0,0
	l0,0l0,0l0,0l0,0l0,0l0,0c0,0,0,0-0.1,0l0,0l0,0l0,0l0,0l0,0l0,0l0,0l-0.1,0l0,0l-0.1,0l0,0l0,0l0,0l0,0l0,0l0,0l0,0l-0.1,0h0
	c0,0,0,0-0.1,0l0,0l0,0l0,0l0,0l0,0l-0.1,0h0l-0.1,0l0,0l0,0l0,0l0,0l0,0l-0.1,0l0,0l-0.1,0l0,0l0,0l0,0l0,0l0,0c0,0,0,0-0.1,0l0,0
	l-0.1,0h0l-0.1,0l0,0l-0.1,0l0,0l0,0l0,0l0,0l0,0l-0.1,0l0,0l0,0l0,0l0,0l0,0l0,0l0,0l0,0l0,0l-0.1,0l0,0c0,0,0,0-0.1,0l0,0l-0.1,0
	l0,0l-0.1,0h0c0,0-0.1,0-0.1,0l0,0c0,0,0,0-0.1,0l0,0l-0.1,0l0,0l-0.1,0c0,0-0.1,0-0.1,0l0,0l-0.1,0l0,0l-0.1,0h0l-0.1,0h0
	c0,0,0,0-0.1,0l0,0l-0.1,0l0,0l-0.1,0l0,0l-0.1,0l0,0l-0.1,0l0,0l0,0l0,0l0,0l0,0l0,0l0,0l-0.1,0l0,0l0,0l0,0l0,0l0,0l0,0l0,0l0,0
	l-0.1,0l0,0l0,0l0,0l0,0l0,0l0,0l0,0l0,0l0,0l0,0l0,0l0,0l0,0l0,0l0,0l0,0l0,0l0,0c0,0,0,0-0.1,0l0,0l0,0l0,0l0,0l0,0l0,0l0,0
	l-0.1,0l0,0l0,0l0,0l0,0l0,0l0,0l0,0l-0.1,0l0,0c0,0,0,0-0.1,0l0,0l0,0l0,0l0,0l0,0l0,0l0,0l-0.1,0l0,0l-0.1,0l0,0l0,0l0,0l0,0l0,0
	c0,0,0,0-0.1,0h0l-0.1,0l0,0l-0.1,0l0,0l-0.1,0l0,0c0,0,0,0-0.1,0l0,0l0,0l0,0l0,0l0,0l0,0l0,0l0,0l0,0c0,0,0,0-0.1,0h0
	c0,0,0,0-0.1,0l0,0l-0.1,0l0,0l0,0l0,0l-0.1,0l0,0l-0.1,0l0,0l-0.1,0l0,0l-0.1,0l0,0l-0.1,0l0,0l-0.1,0l0,0l0,0l0,0l0,0l0,0l0,0l0,0
	l-0.1,0l0,0l-0.1,0l0,0l0,0l0,0l-0.1,0l0,0c0,0,0,0-0.1,0l0,0c0,0-0.1,0-0.1,0l0,0c0,0,0,0-0.1,0l0,0l-0.1,0l0,0l-0.1,0l0,0l0,0l0,0
	l0,0l0,0l-0.1,0l0,0c0,0,0,0-0.1,0l0,0l0,0l0,0l0,0l0,0l-0.1,0l0,0l-0.1,0l0,0l-0.1,0l0,0l-0.1,0l0,0l-0.1,0l0,0l-0.1,0l0,0l-0.1,0
	l0,0l-0.1,0l0,0c0,0-0.1,0-0.1,0l0,0l-0.1,0l0,0l-0.1,0l0,0c-0.1,0-0.2,0-0.3,0l0,0c-0.1,0-0.2,0-0.3,0l0,0l-0.1,0l0,0l-0.1,0l0,0
	c0,0-0.1,0-0.1,0h0c0,0,0,0-0.1,0l0,0l-0.1,0l0,0c0,0-0.1,0-0.1,0h0c0,0,0,0-0.1,0l0,0l-0.1,0l0,0l-0.1,0l0,0l-0.1,0l0,0
	c0,0-0.1,0-0.1,0l0,0l-0.1,0l0,0l0,0l0,0c0,0-0.1,0-0.1,0l0,0l-0.1,0l0,0l-0.1,0l0,0l-0.1,0h0l-0.1,0l0,0l-0.1,0l0,0l-0.1,0h0
	l-0.2,0l0,0l-0.1,0l0,0l-0.1,0h0l-0.1,0l0,0l-0.1,0l0,0l-0.1,0l0,0l-0.1,0l0,0l-0.1,0l0,0l0,0l0,0l-0.1,0l0,0l-0.1,0l0,0l-0.1,0l0,0
	l-0.1,0l0,0c-0.1,0-0.3,0-0.4,0h0c-0.2,0-0.4,0-0.6,0l0,0c-0.7,0.1-1.5,0.1-2.2,0.2l0,0c-14.2,1.4-26.7,4.2-36.1,7.9l0,0l0,0l0,0
	c-0.1,0-0.1,0.1-0.2,0.1l0,0c-0.1,0.1-0.3,0.1-0.4,0.2l0,0c0,0-0.1,0-0.1,0.1l0,0l0,0l0,0c0,0-0.1,0-0.1,0.1l0,0l0,0l0,0l0,0l0,0
	l0,0l0,0c0,0-0.1,0-0.1,0l0,0l0,0l0,0l0,0l0,0l0,0l0,0l0,0l0,0l0,0l0,0l0,0l0,0l0,0l0,0l0,0l0,0l0,0l0,0l0,0l0,0l0,0l0,0l0,0l0,0
	l0,0l0,0l0,0l0,0l0,0l0,0l0,0l0,0l0,0l0,0l0,0l0,0l0,0l0,0l0,0c0,0-0.1,0-0.1,0l0,0l0,0l0,0l0,0l0,0c-0.1,0-0.1,0-0.2,0.1l0,0l0,0
	l0,0c0,0-0.1,0-0.1,0.1h0c0,0,0,0-0.1,0h0c-0.1,0-0.2,0.1-0.3,0.2l0,0c-0.4,0.2-0.7,0.3-1.1,0.5c-6.3,3-9.1,10.5-6.1,16.9
	c3,6.3,10.5,9.1,16.9,6.1c8.5-4,26.5-8.3,51.3-8.3c9.9,0,19.9,0.7,29.7,2.3c6.9,1.1,13.4-3.5,14.6-10.4c1.1-6.9-3.5-13.4-10.4-14.6
	c-0.3-0.1-0.6-0.1-1-0.2l0,0l-0.1,0l0,0l-0.1,0l0,0c0,0-0.1,0-0.1,0l0,0c0,0-0.1,0-0.1,0l0,0l-0.1,0l0,0l-0.1,0l0,0c0,0-0.1,0-0.1,0
	l0,0c0,0-0.1,0-0.1,0l0,0l-0.1,0l0,0c0,0-0.1,0-0.1,0l0,0l-0.1,0l0,0c0,0-0.1,0-0.1,0l0,0c0,0-0.1,0-0.1,0l0,0l-0.1,0l-0.1,0
	c0,0,0,0-0.1,0l-0.1,0l-0.1,0l-0.1,0c0,0,0,0-0.1,0l-0.1,0l0,0c0,0-0.1,0-0.1,0l0,0c0,0-0.1,0-0.1,0l-0.1,0c0,0-0.1,0-0.1,0l0,0
	l-0.1,0l0,0c-0.2,0-0.4-0.1-0.6-0.1l0,0c0,0-0.1,0-0.1,0h0c-5.5-0.8-11.4-1.3-17.4-1.7l0,0l-0.4,0h0c0,0-0.1,0-0.1,0l0,0
	c-0.1,0-0.2,0-0.3,0h0c0,0-0.1,0-0.1,0l0,0c-0.1,0-0.2,0-0.3,0l0,0l-0.1,0l0,0c0,0-0.1,0-0.1,0l0,0l-0.1,0l0,0c0,0-0.1,0-0.1,0l0,0
	c0,0-0.1,0-0.1,0l0,0c0,0-0.1,0-0.1,0l0,0c0,0-0.1,0-0.1,0l0,0l-0.1,0l-0.1,0l-0.1,0c0,0,0,0-0.1,0l-0.1,0l0,0l-0.1,0l0,0
	c0,0-0.1,0-0.1,0c0,0,0,0-0.1,0c0,0-0.1,0-0.1,0l0,0l-0.1,0l-0.1,0l-0.1,0l-0.1,0l-0.1,0l-0.1,0c0,0,0,0-0.1,0l-0.1,0l-0.1,0
	c0,0-0.1,0-0.1,0l0,0l-0.1,0l-0.1,0l-0.1,0l-0.1,0l-0.1,0l0,0l-0.1,0l0,0c0,0-0.1,0-0.1,0l-0.1,0l-0.1,0l0,0c0,0-0.1,0-0.1,0
	c0,0,0,0,0,0l-0.1,0l-0.1,0l-0.1,0l0,0c0,0-0.1,0-0.1,0l0,0l-0.1,0l0,0l-0.1,0l0,0c0,0-0.1,0-0.1,0l0,0l-0.1,0l0,0c0,0-0.1,0-0.1,0
	l0,0l-0.1,0l0,0l-0.1,0l0,0c0,0-0.1,0-0.1,0l0,0c0,0-0.1,0-0.1,0l0,0c0,0-0.1,0-0.1,0l0,0c0,0-0.1,0-0.1,0l0,0l-0.1,0l0,0l-0.1,0
	l0,0l-0.1,0l0,0l-0.1,0l0,0l-0.1,0l0,0c0,0-0.1,0-0.1,0l0,0c0,0-0.1,0-0.1,0l0,0c0,0-0.1,0-0.1,0l0,0c0,0-0.1,0-0.1,0l0,0
	c0,0-0.1,0-0.1,0l0,0l-0.1,0l0,0l-0.1,0l0,0c0,0-0.1,0-0.1,0l0,0l-0.1,0l0,0c0,0-0.1,0-0.1,0l0,0l-0.1,0h0c0,0-0.1,0-0.1,0h0
	c0,0-0.1,0-0.1,0h0c0,0-0.1,0-0.1,0h0c0,0-0.1,0-0.1,0h0c0,0-0.1,0-0.1,0h0l-0.1,0h0l-0.1,0h0l-0.1,0h0l-0.1,0h0l-0.1,0h0
	c0,0-0.1,0-0.1,0h0c0,0-0.1,0-0.1,0h0c0,0-0.1,0-0.1,0h0l-0.1,0h0l-0.1,0h0l-0.1,0h0c0,0-0.1,0-0.1,0h0c0,0-0.1,0-0.1,0h0
	c0,0-0.1,0-0.1,0h0c0,0-0.1,0-0.1,0h0c0,0-0.1,0-0.1,0L149.5,85.1L149.5,85.1z"/>
<path class="st20" d="M205.7,274.6l0.8-0.2c12.8-3.2,21-15.7,18.8-28.7l-5.3-32c-2-12.2-12.5-21.1-24.9-21.2l0,0
	c-14-0.1-25.4,11.2-25.4,25.2c0,1.2,0.1,2.5,0.3,3.7l4.6,32.2c2,13.9,14.8,23.5,28.6,21.5C203.9,275,204.8,274.8,205.7,274.6z"/>
<path class="st26" d="M15.3,257.4L258.4,14.3c7-7,18.4-7,25.4,0l0,0c7,7,7,18.4,0,25.4l0,0L40.6,282.8c-7,7-18.4,7-25.4,0l0,0
	C8.3,275.8,8.3,264.4,15.3,257.4L15.3,257.4z"/>
<path class="st24" d="M233,39.6c7-7,18.4-7,25.4,0c7,7,7,18.4,0,25.4l25.4-25.4c7-7,7-18.4,0-25.4c-7-7-18.4-7-25.4,0L233,39.6z"/>
<g>
	<path class="st27" d="M45.1,23.8c-3.9,9.1-11.1,16.4-20.2,20.2c-1.7,0.6-2.5,2.5-1.9,4.1c0.3,0.9,1,1.5,1.9,1.9
		c9.1,3.9,16.4,11.1,20.2,20.2c0.6,1.7,2.5,2.5,4.1,1.9c0.9-0.3,1.5-1,1.9-1.9c3.9-9.1,11.1-16.4,20.2-20.2c1.7-0.6,2.5-2.5,1.9-4.1
		c-0.3-0.9-1-1.5-1.9-1.9C62.2,40.2,54.9,32.9,51,23.8c-0.6-1.7-2.5-2.5-4.1-1.9C46.1,22.3,45.4,22.9,45.1,23.8z"/>
	<path class="st27" d="M83.1,87.1c-3.9,9.2-11.2,16.5-20.4,20.4c-1.6,0.6-2.5,2.4-1.9,4c0.3,0.9,1,1.5,1.9,1.9
		c9.2,3.9,16.5,11.2,20.4,20.4c0.6,1.6,2.4,2.5,4,1.9c0.9-0.3,1.5-1,1.9-1.9c3.9-9.2,11.2-16.5,20.4-20.4c1.6-0.6,2.5-2.4,1.9-4
		c-0.3-0.9-1-1.5-1.9-1.9c-9.2-3.9-16.5-11.2-20.4-20.4c-0.6-1.6-2.4-2.5-4-1.9C84.1,85.6,83.5,86.3,83.1,87.1z"/>
	<path class="st27" d="M258.8,62c-1.5,2-3.2,3.8-5.2,5.3c-2.8,2-3.4,6-1.4,8.8c0.4,0.5,0.8,1,1.4,1.4c2,1.5,3.8,3.3,5.2,5.3
		c2.1,2.7,6,3.2,8.7,1.1c0.4-0.3,0.8-0.7,1.1-1.1c1.5-2,3.2-3.8,5.2-5.3c2.8-2,3.4-6,1.4-8.8c-0.4-0.5-0.8-1-1.4-1.4
		c-2-1.5-3.8-3.3-5.2-5.3c-2.1-2.7-6-3.2-8.7-1.1C259.4,61.3,259.1,61.6,258.8,62z"/>
	<path class="st27" d="M209.9,23.8c-3.9,9.1-11.1,16.4-20.2,20.2c-1.7,0.6-2.5,2.5-1.9,4.1c0.3,0.9,1,1.5,1.9,1.9
		c9.1,3.9,16.4,11.1,20.2,20.2c0.6,1.7,2.5,2.5,4.1,1.9c0.9-0.3,1.5-1,1.9-1.9c3.9-9.1,11.1-16.4,20.2-20.2c1.7-0.6,2.5-2.5,1.9-4.1
		c-0.3-0.9-1-1.5-1.9-1.9c-9.1-3.9-16.4-11.1-20.2-20.2c-0.6-1.7-2.5-2.5-4.1-1.9C210.9,22.3,210.3,22.9,209.9,23.8z"/>
	<path class="st27" d="M197.3,112.6c-3.9,9.1-11.1,16.4-20.2,20.2c-1.7,0.6-2.5,2.5-1.9,4.1c0.3,0.9,1,1.5,1.9,1.9
		c9.1,3.9,16.4,11.1,20.2,20.2c0.6,1.7,2.5,2.5,4.1,1.9c0.9-0.3,1.5-1,1.9-1.9c3.9-9.1,11.1-16.4,20.2-20.2c1.7-0.6,2.5-2.5,1.9-4.1
		c-0.3-0.9-1-1.5-1.9-1.9c-9.1-3.9-16.4-11.1-20.2-20.2c-0.6-1.7-2.5-2.5-4.1-1.9C198.3,111,197.6,111.7,197.3,112.6L197.3,112.6z"
		/>
</g>
<path class="st28" d="M16.3,256.3L232,40.7c3.5-3.5,9.2-3.5,12.7,0l0,0c3.5,3.5,3.5,9.2,0,12.7L29,269c-3.5,3.5-9.2,3.5-12.7,0l0,0
	C12.8,265.5,12.8,259.8,16.3,256.3z"/>
<path class="st29" d="M253.6,19.1l7.4-7.4c3.5-3.5,9.2-3.5,12.7,0l0,0c3.5,3.5,3.5,9.2,0,12.7l-7.4,7.4c-3.5,3.5-9.2,3.5-12.7,0l0,0
	C250.1,28.2,250.1,22.6,253.6,19.1z"/>
<g>
	<circle class="st30" cx="41.7" cy="40.7" r="6.3"/>
	
		<ellipse transform="matrix(7.088907e-02 -0.9975 0.9975 7.088907e-02 -29.7547 176.299)" class="st30" cx="79.8" cy="104.1" rx="6.3" ry="6.3"/>
	<circle class="st30" cx="206.6" cy="40.7" r="6.3"/>
	<circle class="st30" cx="193.9" cy="129.5" r="6.3"/>
</g>
</svg>
